<?xml version="1.0" encoding="utf-8" standalone="no"?>
<!DOCTYPE svg PUBLIC "-//W3C//DTD SVG 1.1//EN"
  "http://www.w3.org/Graphics/SVG/1.1/DTD/svg11.dtd">
<svg xmlns:xlink="http://www.w3.org/1999/xlink" width="400.32pt" height="292.32pt" viewBox="0 0 400.32 292.32" xmlns="http://www.w3.org/2000/svg" version="1.1">
 <metadata>
  <rdf:RDF xmlns:dc="http://purl.org/dc/elements/1.1/" xmlns:cc="http://creativecommons.org/ns#" xmlns:rdf="http://www.w3.org/1999/02/22-rdf-syntax-ns#">
   <cc:Work>
    <dc:type rdf:resource="http://purl.org/dc/dcmitype/StillImage"/>
    <dc:date>2024-08-20T14:54:00.605731</dc:date>
    <dc:format>image/svg+xml</dc:format>
    <dc:creator>
     <cc:Agent>
      <dc:title>Matplotlib v3.8.0, https://matplotlib.org/</dc:title>
     </cc:Agent>
    </dc:creator>
   </cc:Work>
  </rdf:RDF>
 </metadata>
 <defs>
  <style type="text/css">*{stroke-linejoin: round; stroke-linecap: butt}</style>
 </defs>
 <g id="figure_1">
  <g id="patch_1">
   <path d="M -0 292.32 
L 400.32 292.32 
L 400.32 0 
L -0 0 
z
" style="fill: #ffffff"/>
  </g>
  <g id="axes_1">
   <g id="patch_2">
    <path d="M 57.320625 246.37875 
L 396.72 246.37875 
L 396.72 3.6 
L 57.320625 3.6 
z
" style="fill: #ffffff"/>
   </g>
   <g id="PolyCollection_1">
    <path d="M 72.747869 26.982864 
L 72.747869 41.328043 
L 107.030634 46.169273 
L 141.3134 46.717244 
L 175.596165 45.152799 
L 209.87893 57.948973 
L 244.161695 56.225996 
L 278.44446 51.240245 
L 312.727225 56.415933 
L 347.009991 57.846479 
L 381.292756 59.383397 
L 381.292756 44.544793 
L 381.292756 44.544793 
L 347.009991 41.054343 
L 312.727225 30.124077 
L 278.44446 21.091706 
L 244.161695 26.85993 
L 209.87893 26.606765 
L 175.596165 19.869073 
L 141.3134 23.327175 
L 107.030634 22.343023 
L 72.747869 26.982864 
z
" clip-path="url(#p8bfc8f149a)" style="fill: #0c5da5; fill-opacity: 0.3"/>
   </g>
   <g id="PolyCollection_2">
    <path d="M 72.747869 32.803588 
L 72.747869 44.360565 
L 107.030634 54.348538 
L 141.3134 74.627122 
L 175.596165 93.445737 
L 209.87893 113.690061 
L 244.161695 139.695607 
L 278.44446 179.214652 
L 312.727225 179.923222 
L 347.009991 180.309159 
L 381.292756 178.478025 
L 381.292756 170.29034 
L 381.292756 170.29034 
L 347.009991 165.477987 
L 312.727225 160.638043 
L 278.44446 125.593171 
L 244.161695 97.885886 
L 209.87893 50.863443 
L 175.596165 39.688594 
L 141.3134 25.336052 
L 107.030634 29.762288 
L 72.747869 32.803588 
z
" clip-path="url(#p8bfc8f149a)" style="fill: #00b945; fill-opacity: 0.3"/>
   </g>
   <g id="PolyCollection_3">
    <path d="M 72.747869 25.161388 
L 72.747869 43.190278 
L 107.030634 48.66158 
L 141.3134 64.443252 
L 175.596165 105.830868 
L 209.87893 159.327213 
L 244.161695 198.563893 
L 278.44446 208.32055 
L 312.727225 205.355023 
L 347.009991 205.019751 
L 381.292756 204.983109 
L 381.292756 204.983109 
L 381.292756 204.983109 
L 347.009991 204.969847 
L 312.727225 203.766425 
L 278.44446 189.397488 
L 244.161695 167.269933 
L 209.87893 84.730901 
L 175.596165 54.200969 
L 141.3134 50.625915 
L 107.030634 23.280389 
L 72.747869 25.161388 
z
" clip-path="url(#p8bfc8f149a)" style="fill: #ff9500; fill-opacity: 0.3"/>
   </g>
   <g id="PolyCollection_4">
    <path d="M 72.747869 23.551471 
L 72.747869 42.591359 
L 107.030634 71.51947 
L 141.3134 80.508001 
L 175.596165 155.9833 
L 209.87893 204.554469 
L 244.161695 217.245642 
L 278.44446 218.667784 
L 312.727225 218.499897 
L 347.009991 218.303778 
L 381.292756 218.303778 
L 381.292756 218.303778 
L 381.292756 218.303778 
L 347.009991 218.303778 
L 312.727225 217.926259 
L 278.44446 216.45621 
L 244.161695 201.300323 
L 209.87893 146.965191 
L 175.596165 94.454625 
L 141.3134 53.760665 
L 107.030634 20.173876 
L 72.747869 23.551471 
z
" clip-path="url(#p8bfc8f149a)" style="fill: #ff2c00; fill-opacity: 0.3"/>
   </g>
   <g id="PolyCollection_5">
    <path d="M 72.747869 25.586614 
L 72.747869 40.736584 
L 107.030634 55.130261 
L 141.3134 107.433035 
L 175.596165 157.275662 
L 209.87893 209.574577 
L 244.161695 223.598667 
L 278.44446 225.753081 
L 312.727225 225.668576 
L 347.009991 225.668576 
L 381.292756 225.668576 
L 381.292756 225.668576 
L 381.292756 225.668576 
L 347.009991 225.668576 
L 312.727225 225.668576 
L 278.44446 225.529149 
L 244.161695 207.077273 
L 209.87893 183.2973 
L 175.596165 109.603324 
L 141.3134 51.781875 
L 107.030634 38.641985 
L 72.747869 25.586614 
z
" clip-path="url(#p8bfc8f149a)" style="fill: #845b97; fill-opacity: 0.3"/>
   </g>
   <g id="PolyCollection_6">
    <path d="M 72.747869 29.239907 
L 72.747869 50.408912 
L 107.030634 62.57019 
L 141.3134 111.329534 
L 175.596165 189.998978 
L 209.87893 230.360151 
L 244.161695 235.343352 
L 278.44446 235.234261 
L 312.727225 235.234261 
L 347.009991 235.234261 
L 381.292756 235.234261 
L 381.292756 235.234261 
L 381.292756 235.234261 
L 347.009991 235.234261 
L 312.727225 235.234261 
L 278.44446 235.234261 
L 244.161695 233.496341 
L 209.87893 209.801764 
L 175.596165 115.525717 
L 141.3134 56.748015 
L 107.030634 14.635398 
L 72.747869 29.239907 
z
" clip-path="url(#p8bfc8f149a)" style="fill: #474747; fill-opacity: 0.3"/>
   </g>
   <g id="matplotlib.axis_1">
    <g id="xtick_1">
     <g id="line2d_1">
      <defs>
       <path id="m1fb71a9834" d="M 0 0 
L 0 -3 
" style="stroke: #000000; stroke-width: 0.5"/>
      </defs>
      <g>
       <use xlink:href="#m1fb71a9834" x="124.172017" y="246.37875" style="stroke: #000000; stroke-width: 0.5"/>
      </g>
     </g>
     <g id="line2d_2">
      <defs>
       <path id="m8999cf6bd5" d="M 0 0 
L 0 3 
" style="stroke: #000000; stroke-width: 0.5"/>
      </defs>
      <g>
       <use xlink:href="#m8999cf6bd5" x="124.172017" y="3.6" style="stroke: #000000; stroke-width: 0.5"/>
      </g>
     </g>
     <g id="text_1">
      <!-- $\mathdefault{5}$ -->
      <g transform="translate(118.412017 263.555938) scale(0.18 -0.18)">
       <defs>
        <path id="DejaVuSans-35" d="M 691 4666 
L 3169 4666 
L 3169 4134 
L 1269 4134 
L 1269 2991 
Q 1406 3038 1543 3061 
Q 1681 3084 1819 3084 
Q 2600 3084 3056 2656 
Q 3513 2228 3513 1497 
Q 3513 744 3044 326 
Q 2575 -91 1722 -91 
Q 1428 -91 1123 -41 
Q 819 9 494 109 
L 494 744 
Q 775 591 1075 516 
Q 1375 441 1709 441 
Q 2250 441 2565 725 
Q 2881 1009 2881 1497 
Q 2881 1984 2565 2268 
Q 2250 2553 1709 2553 
Q 1456 2553 1204 2497 
Q 953 2441 691 2322 
L 691 4666 
z
" transform="scale(0.015625)"/>
       </defs>
       <use xlink:href="#DejaVuSans-35" transform="translate(0 0.09375)"/>
      </g>
     </g>
    </g>
    <g id="xtick_2">
     <g id="line2d_3">
      <g>
       <use xlink:href="#m1fb71a9834" x="209.87893" y="246.37875" style="stroke: #000000; stroke-width: 0.5"/>
      </g>
     </g>
     <g id="line2d_4">
      <g>
       <use xlink:href="#m8999cf6bd5" x="209.87893" y="3.6" style="stroke: #000000; stroke-width: 0.5"/>
      </g>
     </g>
     <g id="text_2">
      <!-- $\mathdefault{10}$ -->
      <g transform="translate(198.35893 263.555938) scale(0.18 -0.18)">
       <defs>
        <path id="DejaVuSans-31" d="M 794 531 
L 1825 531 
L 1825 4091 
L 703 3866 
L 703 4441 
L 1819 4666 
L 2450 4666 
L 2450 531 
L 3481 531 
L 3481 0 
L 794 0 
L 794 531 
z
" transform="scale(0.015625)"/>
        <path id="DejaVuSans-30" d="M 2034 4250 
Q 1547 4250 1301 3770 
Q 1056 3291 1056 2328 
Q 1056 1369 1301 889 
Q 1547 409 2034 409 
Q 2525 409 2770 889 
Q 3016 1369 3016 2328 
Q 3016 3291 2770 3770 
Q 2525 4250 2034 4250 
z
M 2034 4750 
Q 2819 4750 3233 4129 
Q 3647 3509 3647 2328 
Q 3647 1150 3233 529 
Q 2819 -91 2034 -91 
Q 1250 -91 836 529 
Q 422 1150 422 2328 
Q 422 3509 836 4129 
Q 1250 4750 2034 4750 
z
" transform="scale(0.015625)"/>
       </defs>
       <use xlink:href="#DejaVuSans-31" transform="translate(0 0.78125)"/>
       <use xlink:href="#DejaVuSans-30" transform="translate(63.623047 0.78125)"/>
      </g>
     </g>
    </g>
    <g id="xtick_3">
     <g id="line2d_5">
      <g>
       <use xlink:href="#m1fb71a9834" x="295.585843" y="246.37875" style="stroke: #000000; stroke-width: 0.5"/>
      </g>
     </g>
     <g id="line2d_6">
      <g>
       <use xlink:href="#m8999cf6bd5" x="295.585843" y="3.6" style="stroke: #000000; stroke-width: 0.5"/>
      </g>
     </g>
     <g id="text_3">
      <!-- $\mathdefault{15}$ -->
      <g transform="translate(284.065843 263.555938) scale(0.18 -0.18)">
       <use xlink:href="#DejaVuSans-31" transform="translate(0 0.09375)"/>
       <use xlink:href="#DejaVuSans-35" transform="translate(63.623047 0.09375)"/>
      </g>
     </g>
    </g>
    <g id="xtick_4">
     <g id="line2d_7">
      <g>
       <use xlink:href="#m1fb71a9834" x="381.292756" y="246.37875" style="stroke: #000000; stroke-width: 0.5"/>
      </g>
     </g>
     <g id="line2d_8">
      <g>
       <use xlink:href="#m8999cf6bd5" x="381.292756" y="3.6" style="stroke: #000000; stroke-width: 0.5"/>
      </g>
     </g>
     <g id="text_4">
      <!-- $\mathdefault{20}$ -->
      <g transform="translate(369.772756 263.555938) scale(0.18 -0.18)">
       <defs>
        <path id="DejaVuSans-32" d="M 1228 531 
L 3431 531 
L 3431 0 
L 469 0 
L 469 531 
Q 828 903 1448 1529 
Q 2069 2156 2228 2338 
Q 2531 2678 2651 2914 
Q 2772 3150 2772 3378 
Q 2772 3750 2511 3984 
Q 2250 4219 1831 4219 
Q 1534 4219 1204 4116 
Q 875 4013 500 3803 
L 500 4441 
Q 881 4594 1212 4672 
Q 1544 4750 1819 4750 
Q 2544 4750 2975 4387 
Q 3406 4025 3406 3419 
Q 3406 3131 3298 2873 
Q 3191 2616 2906 2266 
Q 2828 2175 2409 1742 
Q 1991 1309 1228 531 
z
" transform="scale(0.015625)"/>
       </defs>
       <use xlink:href="#DejaVuSans-32" transform="translate(0 0.78125)"/>
       <use xlink:href="#DejaVuSans-30" transform="translate(63.623047 0.78125)"/>
      </g>
     </g>
    </g>
    <g id="xtick_5">
     <g id="line2d_9">
      <defs>
       <path id="mdc97d3f821" d="M 0 0 
L 0 -1.5 
" style="stroke: #000000; stroke-width: 0.5"/>
      </defs>
      <g>
       <use xlink:href="#mdc97d3f821" x="72.747869" y="246.37875" style="stroke: #000000; stroke-width: 0.5"/>
      </g>
     </g>
     <g id="line2d_10">
      <defs>
       <path id="m8cefb52cdd" d="M 0 0 
L 0 1.5 
" style="stroke: #000000; stroke-width: 0.5"/>
      </defs>
      <g>
       <use xlink:href="#m8cefb52cdd" x="72.747869" y="3.6" style="stroke: #000000; stroke-width: 0.5"/>
      </g>
     </g>
    </g>
    <g id="xtick_6">
     <g id="line2d_11">
      <g>
       <use xlink:href="#mdc97d3f821" x="89.889252" y="246.37875" style="stroke: #000000; stroke-width: 0.5"/>
      </g>
     </g>
     <g id="line2d_12">
      <g>
       <use xlink:href="#m8cefb52cdd" x="89.889252" y="3.6" style="stroke: #000000; stroke-width: 0.5"/>
      </g>
     </g>
    </g>
    <g id="xtick_7">
     <g id="line2d_13">
      <g>
       <use xlink:href="#mdc97d3f821" x="107.030634" y="246.37875" style="stroke: #000000; stroke-width: 0.5"/>
      </g>
     </g>
     <g id="line2d_14">
      <g>
       <use xlink:href="#m8cefb52cdd" x="107.030634" y="3.6" style="stroke: #000000; stroke-width: 0.5"/>
      </g>
     </g>
    </g>
    <g id="xtick_8">
     <g id="line2d_15">
      <g>
       <use xlink:href="#mdc97d3f821" x="141.3134" y="246.37875" style="stroke: #000000; stroke-width: 0.5"/>
      </g>
     </g>
     <g id="line2d_16">
      <g>
       <use xlink:href="#m8cefb52cdd" x="141.3134" y="3.6" style="stroke: #000000; stroke-width: 0.5"/>
      </g>
     </g>
    </g>
    <g id="xtick_9">
     <g id="line2d_17">
      <g>
       <use xlink:href="#mdc97d3f821" x="158.454782" y="246.37875" style="stroke: #000000; stroke-width: 0.5"/>
      </g>
     </g>
     <g id="line2d_18">
      <g>
       <use xlink:href="#m8cefb52cdd" x="158.454782" y="3.6" style="stroke: #000000; stroke-width: 0.5"/>
      </g>
     </g>
    </g>
    <g id="xtick_10">
     <g id="line2d_19">
      <g>
       <use xlink:href="#mdc97d3f821" x="175.596165" y="246.37875" style="stroke: #000000; stroke-width: 0.5"/>
      </g>
     </g>
     <g id="line2d_20">
      <g>
       <use xlink:href="#m8cefb52cdd" x="175.596165" y="3.6" style="stroke: #000000; stroke-width: 0.5"/>
      </g>
     </g>
    </g>
    <g id="xtick_11">
     <g id="line2d_21">
      <g>
       <use xlink:href="#mdc97d3f821" x="192.737547" y="246.37875" style="stroke: #000000; stroke-width: 0.5"/>
      </g>
     </g>
     <g id="line2d_22">
      <g>
       <use xlink:href="#m8cefb52cdd" x="192.737547" y="3.6" style="stroke: #000000; stroke-width: 0.5"/>
      </g>
     </g>
    </g>
    <g id="xtick_12">
     <g id="line2d_23">
      <g>
       <use xlink:href="#mdc97d3f821" x="227.020312" y="246.37875" style="stroke: #000000; stroke-width: 0.5"/>
      </g>
     </g>
     <g id="line2d_24">
      <g>
       <use xlink:href="#m8cefb52cdd" x="227.020312" y="3.6" style="stroke: #000000; stroke-width: 0.5"/>
      </g>
     </g>
    </g>
    <g id="xtick_13">
     <g id="line2d_25">
      <g>
       <use xlink:href="#mdc97d3f821" x="244.161695" y="246.37875" style="stroke: #000000; stroke-width: 0.5"/>
      </g>
     </g>
     <g id="line2d_26">
      <g>
       <use xlink:href="#m8cefb52cdd" x="244.161695" y="3.6" style="stroke: #000000; stroke-width: 0.5"/>
      </g>
     </g>
    </g>
    <g id="xtick_14">
     <g id="line2d_27">
      <g>
       <use xlink:href="#mdc97d3f821" x="261.303078" y="246.37875" style="stroke: #000000; stroke-width: 0.5"/>
      </g>
     </g>
     <g id="line2d_28">
      <g>
       <use xlink:href="#m8cefb52cdd" x="261.303078" y="3.6" style="stroke: #000000; stroke-width: 0.5"/>
      </g>
     </g>
    </g>
    <g id="xtick_15">
     <g id="line2d_29">
      <g>
       <use xlink:href="#mdc97d3f821" x="278.44446" y="246.37875" style="stroke: #000000; stroke-width: 0.5"/>
      </g>
     </g>
     <g id="line2d_30">
      <g>
       <use xlink:href="#m8cefb52cdd" x="278.44446" y="3.6" style="stroke: #000000; stroke-width: 0.5"/>
      </g>
     </g>
    </g>
    <g id="xtick_16">
     <g id="line2d_31">
      <g>
       <use xlink:href="#mdc97d3f821" x="312.727225" y="246.37875" style="stroke: #000000; stroke-width: 0.5"/>
      </g>
     </g>
     <g id="line2d_32">
      <g>
       <use xlink:href="#m8cefb52cdd" x="312.727225" y="3.6" style="stroke: #000000; stroke-width: 0.5"/>
      </g>
     </g>
    </g>
    <g id="xtick_17">
     <g id="line2d_33">
      <g>
       <use xlink:href="#mdc97d3f821" x="329.868608" y="246.37875" style="stroke: #000000; stroke-width: 0.5"/>
      </g>
     </g>
     <g id="line2d_34">
      <g>
       <use xlink:href="#m8cefb52cdd" x="329.868608" y="3.6" style="stroke: #000000; stroke-width: 0.5"/>
      </g>
     </g>
    </g>
    <g id="xtick_18">
     <g id="line2d_35">
      <g>
       <use xlink:href="#mdc97d3f821" x="347.009991" y="246.37875" style="stroke: #000000; stroke-width: 0.5"/>
      </g>
     </g>
     <g id="line2d_36">
      <g>
       <use xlink:href="#m8cefb52cdd" x="347.009991" y="3.6" style="stroke: #000000; stroke-width: 0.5"/>
      </g>
     </g>
    </g>
    <g id="xtick_19">
     <g id="line2d_37">
      <g>
       <use xlink:href="#mdc97d3f821" x="364.151373" y="246.37875" style="stroke: #000000; stroke-width: 0.5"/>
      </g>
     </g>
     <g id="line2d_38">
      <g>
       <use xlink:href="#m8cefb52cdd" x="364.151373" y="3.6" style="stroke: #000000; stroke-width: 0.5"/>
      </g>
     </g>
    </g>
    <g id="text_5">
     <!-- Depth -->
     <g transform="translate(199.606875 284.976562) scale(0.18 -0.18)">
      <defs>
       <path id="DejaVuSans-44" d="M 1259 4147 
L 1259 519 
L 2022 519 
Q 2988 519 3436 956 
Q 3884 1394 3884 2338 
Q 3884 3275 3436 3711 
Q 2988 4147 2022 4147 
L 1259 4147 
z
M 628 4666 
L 1925 4666 
Q 3281 4666 3915 4102 
Q 4550 3538 4550 2338 
Q 4550 1131 3912 565 
Q 3275 0 1925 0 
L 628 0 
L 628 4666 
z
" transform="scale(0.015625)"/>
       <path id="DejaVuSans-65" d="M 3597 1894 
L 3597 1613 
L 953 1613 
Q 991 1019 1311 708 
Q 1631 397 2203 397 
Q 2534 397 2845 478 
Q 3156 559 3463 722 
L 3463 178 
Q 3153 47 2828 -22 
Q 2503 -91 2169 -91 
Q 1331 -91 842 396 
Q 353 884 353 1716 
Q 353 2575 817 3079 
Q 1281 3584 2069 3584 
Q 2775 3584 3186 3129 
Q 3597 2675 3597 1894 
z
M 3022 2063 
Q 3016 2534 2758 2815 
Q 2500 3097 2075 3097 
Q 1594 3097 1305 2825 
Q 1016 2553 972 2059 
L 3022 2063 
z
" transform="scale(0.015625)"/>
       <path id="DejaVuSans-70" d="M 1159 525 
L 1159 -1331 
L 581 -1331 
L 581 3500 
L 1159 3500 
L 1159 2969 
Q 1341 3281 1617 3432 
Q 1894 3584 2278 3584 
Q 2916 3584 3314 3078 
Q 3713 2572 3713 1747 
Q 3713 922 3314 415 
Q 2916 -91 2278 -91 
Q 1894 -91 1617 61 
Q 1341 213 1159 525 
z
M 3116 1747 
Q 3116 2381 2855 2742 
Q 2594 3103 2138 3103 
Q 1681 3103 1420 2742 
Q 1159 2381 1159 1747 
Q 1159 1113 1420 752 
Q 1681 391 2138 391 
Q 2594 391 2855 752 
Q 3116 1113 3116 1747 
z
" transform="scale(0.015625)"/>
       <path id="DejaVuSans-74" d="M 1172 4494 
L 1172 3500 
L 2356 3500 
L 2356 3053 
L 1172 3053 
L 1172 1153 
Q 1172 725 1289 603 
Q 1406 481 1766 481 
L 2356 481 
L 2356 0 
L 1766 0 
Q 1100 0 847 248 
Q 594 497 594 1153 
L 594 3053 
L 172 3053 
L 172 3500 
L 594 3500 
L 594 4494 
L 1172 4494 
z
" transform="scale(0.015625)"/>
       <path id="DejaVuSans-68" d="M 3513 2113 
L 3513 0 
L 2938 0 
L 2938 2094 
Q 2938 2591 2744 2837 
Q 2550 3084 2163 3084 
Q 1697 3084 1428 2787 
Q 1159 2491 1159 1978 
L 1159 0 
L 581 0 
L 581 4863 
L 1159 4863 
L 1159 2956 
Q 1366 3272 1645 3428 
Q 1925 3584 2291 3584 
Q 2894 3584 3203 3211 
Q 3513 2838 3513 2113 
z
" transform="scale(0.015625)"/>
      </defs>
      <use xlink:href="#DejaVuSans-44"/>
      <use xlink:href="#DejaVuSans-65" x="77.001953"/>
      <use xlink:href="#DejaVuSans-70" x="138.525391"/>
      <use xlink:href="#DejaVuSans-74" x="202.001953"/>
      <use xlink:href="#DejaVuSans-68" x="241.210938"/>
     </g>
    </g>
   </g>
   <g id="matplotlib.axis_2">
    <g id="ytick_1">
     <g id="line2d_39">
      <defs>
       <path id="m4a83f66f71" d="M 0 0 
L 3 0 
" style="stroke: #000000; stroke-width: 0.5"/>
      </defs>
      <g>
       <use xlink:href="#m4a83f66f71" x="57.320625" y="193.493842" style="stroke: #000000; stroke-width: 0.5"/>
      </g>
     </g>
     <g id="line2d_40">
      <defs>
       <path id="md72ec5c340" d="M 0 0 
L -3 0 
" style="stroke: #000000; stroke-width: 0.5"/>
      </defs>
      <g>
       <use xlink:href="#md72ec5c340" x="396.72" y="193.493842" style="stroke: #000000; stroke-width: 0.5"/>
      </g>
     </g>
     <g id="text_6">
      <!-- $\mathdefault{0.6}$ -->
      <g transform="translate(25.020625 200.332436) scale(0.18 -0.18)">
       <defs>
        <path id="DejaVuSans-2e" d="M 684 794 
L 1344 794 
L 1344 0 
L 684 0 
L 684 794 
z
" transform="scale(0.015625)"/>
        <path id="DejaVuSans-36" d="M 2113 2584 
Q 1688 2584 1439 2293 
Q 1191 2003 1191 1497 
Q 1191 994 1439 701 
Q 1688 409 2113 409 
Q 2538 409 2786 701 
Q 3034 994 3034 1497 
Q 3034 2003 2786 2293 
Q 2538 2584 2113 2584 
z
M 3366 4563 
L 3366 3988 
Q 3128 4100 2886 4159 
Q 2644 4219 2406 4219 
Q 1781 4219 1451 3797 
Q 1122 3375 1075 2522 
Q 1259 2794 1537 2939 
Q 1816 3084 2150 3084 
Q 2853 3084 3261 2657 
Q 3669 2231 3669 1497 
Q 3669 778 3244 343 
Q 2819 -91 2113 -91 
Q 1303 -91 875 529 
Q 447 1150 447 2328 
Q 447 3434 972 4092 
Q 1497 4750 2381 4750 
Q 2619 4750 2861 4703 
Q 3103 4656 3366 4563 
z
" transform="scale(0.015625)"/>
       </defs>
       <use xlink:href="#DejaVuSans-30" transform="translate(0 0.78125)"/>
       <use xlink:href="#DejaVuSans-2e" transform="translate(63.623047 0.78125)"/>
       <use xlink:href="#DejaVuSans-36" transform="translate(95.410156 0.78125)"/>
      </g>
     </g>
    </g>
    <g id="ytick_2">
     <g id="line2d_41">
      <g>
       <use xlink:href="#m4a83f66f71" x="57.320625" y="126.035202" style="stroke: #000000; stroke-width: 0.5"/>
      </g>
     </g>
     <g id="line2d_42">
      <g>
       <use xlink:href="#md72ec5c340" x="396.72" y="126.035202" style="stroke: #000000; stroke-width: 0.5"/>
      </g>
     </g>
     <g id="text_7">
      <!-- $\mathdefault{0.8}$ -->
      <g transform="translate(25.560625 132.873795) scale(0.18 -0.18)">
       <defs>
        <path id="DejaVuSans-38" d="M 2034 2216 
Q 1584 2216 1326 1975 
Q 1069 1734 1069 1313 
Q 1069 891 1326 650 
Q 1584 409 2034 409 
Q 2484 409 2743 651 
Q 3003 894 3003 1313 
Q 3003 1734 2745 1975 
Q 2488 2216 2034 2216 
z
M 1403 2484 
Q 997 2584 770 2862 
Q 544 3141 544 3541 
Q 544 4100 942 4425 
Q 1341 4750 2034 4750 
Q 2731 4750 3128 4425 
Q 3525 4100 3525 3541 
Q 3525 3141 3298 2862 
Q 3072 2584 2669 2484 
Q 3125 2378 3379 2068 
Q 3634 1759 3634 1313 
Q 3634 634 3220 271 
Q 2806 -91 2034 -91 
Q 1263 -91 848 271 
Q 434 634 434 1313 
Q 434 1759 690 2068 
Q 947 2378 1403 2484 
z
M 1172 3481 
Q 1172 3119 1398 2916 
Q 1625 2713 2034 2713 
Q 2441 2713 2670 2916 
Q 2900 3119 2900 3481 
Q 2900 3844 2670 4047 
Q 2441 4250 2034 4250 
Q 1625 4250 1398 4047 
Q 1172 3844 1172 3481 
z
" transform="scale(0.015625)"/>
       </defs>
       <use xlink:href="#DejaVuSans-30" transform="translate(0 0.78125)"/>
       <use xlink:href="#DejaVuSans-2e" transform="translate(63.623047 0.78125)"/>
       <use xlink:href="#DejaVuSans-38" transform="translate(92.785156 0.78125)"/>
      </g>
     </g>
    </g>
    <g id="ytick_3">
     <g id="line2d_43">
      <g>
       <use xlink:href="#m4a83f66f71" x="57.320625" y="58.576561" style="stroke: #000000; stroke-width: 0.5"/>
      </g>
     </g>
     <g id="line2d_44">
      <g>
       <use xlink:href="#md72ec5c340" x="396.72" y="58.576561" style="stroke: #000000; stroke-width: 0.5"/>
      </g>
     </g>
     <g id="text_8">
      <!-- $\mathdefault{1.0}$ -->
      <g transform="translate(25.020625 65.415155) scale(0.18 -0.18)">
       <use xlink:href="#DejaVuSans-31" transform="translate(0 0.78125)"/>
       <use xlink:href="#DejaVuSans-2e" transform="translate(63.623047 0.78125)"/>
       <use xlink:href="#DejaVuSans-30" transform="translate(95.410156 0.78125)"/>
      </g>
     </g>
    </g>
    <g id="ytick_4">
     <g id="line2d_45">
      <defs>
       <path id="mca400f0b6c" d="M 0 0 
L 1.5 0 
" style="stroke: #000000; stroke-width: 0.5"/>
      </defs>
      <g>
       <use xlink:href="#mca400f0b6c" x="57.320625" y="244.087822" style="stroke: #000000; stroke-width: 0.5"/>
      </g>
     </g>
     <g id="line2d_46">
      <defs>
       <path id="m1b9e3e6731" d="M 0 0 
L -1.5 0 
" style="stroke: #000000; stroke-width: 0.5"/>
      </defs>
      <g>
       <use xlink:href="#m1b9e3e6731" x="396.72" y="244.087822" style="stroke: #000000; stroke-width: 0.5"/>
      </g>
     </g>
    </g>
    <g id="ytick_5">
     <g id="line2d_47">
      <g>
       <use xlink:href="#mca400f0b6c" x="57.320625" y="227.223162" style="stroke: #000000; stroke-width: 0.5"/>
      </g>
     </g>
     <g id="line2d_48">
      <g>
       <use xlink:href="#m1b9e3e6731" x="396.72" y="227.223162" style="stroke: #000000; stroke-width: 0.5"/>
      </g>
     </g>
    </g>
    <g id="ytick_6">
     <g id="line2d_49">
      <g>
       <use xlink:href="#mca400f0b6c" x="57.320625" y="210.358502" style="stroke: #000000; stroke-width: 0.5"/>
      </g>
     </g>
     <g id="line2d_50">
      <g>
       <use xlink:href="#m1b9e3e6731" x="396.72" y="210.358502" style="stroke: #000000; stroke-width: 0.5"/>
      </g>
     </g>
    </g>
    <g id="ytick_7">
     <g id="line2d_51">
      <g>
       <use xlink:href="#mca400f0b6c" x="57.320625" y="176.629182" style="stroke: #000000; stroke-width: 0.5"/>
      </g>
     </g>
     <g id="line2d_52">
      <g>
       <use xlink:href="#m1b9e3e6731" x="396.72" y="176.629182" style="stroke: #000000; stroke-width: 0.5"/>
      </g>
     </g>
    </g>
    <g id="ytick_8">
     <g id="line2d_53">
      <g>
       <use xlink:href="#mca400f0b6c" x="57.320625" y="159.764522" style="stroke: #000000; stroke-width: 0.5"/>
      </g>
     </g>
     <g id="line2d_54">
      <g>
       <use xlink:href="#m1b9e3e6731" x="396.72" y="159.764522" style="stroke: #000000; stroke-width: 0.5"/>
      </g>
     </g>
    </g>
    <g id="ytick_9">
     <g id="line2d_55">
      <g>
       <use xlink:href="#mca400f0b6c" x="57.320625" y="142.899862" style="stroke: #000000; stroke-width: 0.5"/>
      </g>
     </g>
     <g id="line2d_56">
      <g>
       <use xlink:href="#m1b9e3e6731" x="396.72" y="142.899862" style="stroke: #000000; stroke-width: 0.5"/>
      </g>
     </g>
    </g>
    <g id="ytick_10">
     <g id="line2d_57">
      <g>
       <use xlink:href="#mca400f0b6c" x="57.320625" y="109.170542" style="stroke: #000000; stroke-width: 0.5"/>
      </g>
     </g>
     <g id="line2d_58">
      <g>
       <use xlink:href="#m1b9e3e6731" x="396.72" y="109.170542" style="stroke: #000000; stroke-width: 0.5"/>
      </g>
     </g>
    </g>
    <g id="ytick_11">
     <g id="line2d_59">
      <g>
       <use xlink:href="#mca400f0b6c" x="57.320625" y="92.305882" style="stroke: #000000; stroke-width: 0.5"/>
      </g>
     </g>
     <g id="line2d_60">
      <g>
       <use xlink:href="#m1b9e3e6731" x="396.72" y="92.305882" style="stroke: #000000; stroke-width: 0.5"/>
      </g>
     </g>
    </g>
    <g id="ytick_12">
     <g id="line2d_61">
      <g>
       <use xlink:href="#mca400f0b6c" x="57.320625" y="75.441222" style="stroke: #000000; stroke-width: 0.5"/>
      </g>
     </g>
     <g id="line2d_62">
      <g>
       <use xlink:href="#m1b9e3e6731" x="396.72" y="75.441222" style="stroke: #000000; stroke-width: 0.5"/>
      </g>
     </g>
    </g>
    <g id="ytick_13">
     <g id="line2d_63">
      <g>
       <use xlink:href="#mca400f0b6c" x="57.320625" y="41.711901" style="stroke: #000000; stroke-width: 0.5"/>
      </g>
     </g>
     <g id="line2d_64">
      <g>
       <use xlink:href="#m1b9e3e6731" x="396.72" y="41.711901" style="stroke: #000000; stroke-width: 0.5"/>
      </g>
     </g>
    </g>
    <g id="ytick_14">
     <g id="line2d_65">
      <g>
       <use xlink:href="#mca400f0b6c" x="57.320625" y="24.847241" style="stroke: #000000; stroke-width: 0.5"/>
      </g>
     </g>
     <g id="line2d_66">
      <g>
       <use xlink:href="#m1b9e3e6731" x="396.72" y="24.847241" style="stroke: #000000; stroke-width: 0.5"/>
      </g>
     </g>
    </g>
    <g id="ytick_15">
     <g id="line2d_67">
      <g>
       <use xlink:href="#mca400f0b6c" x="57.320625" y="7.982581" style="stroke: #000000; stroke-width: 0.5"/>
      </g>
     </g>
     <g id="line2d_68">
      <g>
       <use xlink:href="#m1b9e3e6731" x="396.72" y="7.982581" style="stroke: #000000; stroke-width: 0.5"/>
      </g>
     </g>
    </g>
    <g id="text_9">
     <!-- Mean Spatial Constant -->
     <g transform="translate(17.277187 226.678125) rotate(-90) scale(0.18 -0.18)">
      <defs>
       <path id="DejaVuSans-4d" d="M 628 4666 
L 1569 4666 
L 2759 1491 
L 3956 4666 
L 4897 4666 
L 4897 0 
L 4281 0 
L 4281 4097 
L 3078 897 
L 2444 897 
L 1241 4097 
L 1241 0 
L 628 0 
L 628 4666 
z
" transform="scale(0.015625)"/>
       <path id="DejaVuSans-61" d="M 2194 1759 
Q 1497 1759 1228 1600 
Q 959 1441 959 1056 
Q 959 750 1161 570 
Q 1363 391 1709 391 
Q 2188 391 2477 730 
Q 2766 1069 2766 1631 
L 2766 1759 
L 2194 1759 
z
M 3341 1997 
L 3341 0 
L 2766 0 
L 2766 531 
Q 2569 213 2275 61 
Q 1981 -91 1556 -91 
Q 1019 -91 701 211 
Q 384 513 384 1019 
Q 384 1609 779 1909 
Q 1175 2209 1959 2209 
L 2766 2209 
L 2766 2266 
Q 2766 2663 2505 2880 
Q 2244 3097 1772 3097 
Q 1472 3097 1187 3025 
Q 903 2953 641 2809 
L 641 3341 
Q 956 3463 1253 3523 
Q 1550 3584 1831 3584 
Q 2591 3584 2966 3190 
Q 3341 2797 3341 1997 
z
" transform="scale(0.015625)"/>
       <path id="DejaVuSans-6e" d="M 3513 2113 
L 3513 0 
L 2938 0 
L 2938 2094 
Q 2938 2591 2744 2837 
Q 2550 3084 2163 3084 
Q 1697 3084 1428 2787 
Q 1159 2491 1159 1978 
L 1159 0 
L 581 0 
L 581 3500 
L 1159 3500 
L 1159 2956 
Q 1366 3272 1645 3428 
Q 1925 3584 2291 3584 
Q 2894 3584 3203 3211 
Q 3513 2838 3513 2113 
z
" transform="scale(0.015625)"/>
       <path id="DejaVuSans-20" transform="scale(0.015625)"/>
       <path id="DejaVuSans-53" d="M 3425 4513 
L 3425 3897 
Q 3066 4069 2747 4153 
Q 2428 4238 2131 4238 
Q 1616 4238 1336 4038 
Q 1056 3838 1056 3469 
Q 1056 3159 1242 3001 
Q 1428 2844 1947 2747 
L 2328 2669 
Q 3034 2534 3370 2195 
Q 3706 1856 3706 1288 
Q 3706 609 3251 259 
Q 2797 -91 1919 -91 
Q 1588 -91 1214 -16 
Q 841 59 441 206 
L 441 856 
Q 825 641 1194 531 
Q 1563 422 1919 422 
Q 2459 422 2753 634 
Q 3047 847 3047 1241 
Q 3047 1584 2836 1778 
Q 2625 1972 2144 2069 
L 1759 2144 
Q 1053 2284 737 2584 
Q 422 2884 422 3419 
Q 422 4038 858 4394 
Q 1294 4750 2059 4750 
Q 2388 4750 2728 4690 
Q 3069 4631 3425 4513 
z
" transform="scale(0.015625)"/>
       <path id="DejaVuSans-69" d="M 603 3500 
L 1178 3500 
L 1178 0 
L 603 0 
L 603 3500 
z
M 603 4863 
L 1178 4863 
L 1178 4134 
L 603 4134 
L 603 4863 
z
" transform="scale(0.015625)"/>
       <path id="DejaVuSans-6c" d="M 603 4863 
L 1178 4863 
L 1178 0 
L 603 0 
L 603 4863 
z
" transform="scale(0.015625)"/>
       <path id="DejaVuSans-43" d="M 4122 4306 
L 4122 3641 
Q 3803 3938 3442 4084 
Q 3081 4231 2675 4231 
Q 1875 4231 1450 3742 
Q 1025 3253 1025 2328 
Q 1025 1406 1450 917 
Q 1875 428 2675 428 
Q 3081 428 3442 575 
Q 3803 722 4122 1019 
L 4122 359 
Q 3791 134 3420 21 
Q 3050 -91 2638 -91 
Q 1578 -91 968 557 
Q 359 1206 359 2328 
Q 359 3453 968 4101 
Q 1578 4750 2638 4750 
Q 3056 4750 3426 4639 
Q 3797 4528 4122 4306 
z
" transform="scale(0.015625)"/>
       <path id="DejaVuSans-6f" d="M 1959 3097 
Q 1497 3097 1228 2736 
Q 959 2375 959 1747 
Q 959 1119 1226 758 
Q 1494 397 1959 397 
Q 2419 397 2687 759 
Q 2956 1122 2956 1747 
Q 2956 2369 2687 2733 
Q 2419 3097 1959 3097 
z
M 1959 3584 
Q 2709 3584 3137 3096 
Q 3566 2609 3566 1747 
Q 3566 888 3137 398 
Q 2709 -91 1959 -91 
Q 1206 -91 779 398 
Q 353 888 353 1747 
Q 353 2609 779 3096 
Q 1206 3584 1959 3584 
z
" transform="scale(0.015625)"/>
       <path id="DejaVuSans-73" d="M 2834 3397 
L 2834 2853 
Q 2591 2978 2328 3040 
Q 2066 3103 1784 3103 
Q 1356 3103 1142 2972 
Q 928 2841 928 2578 
Q 928 2378 1081 2264 
Q 1234 2150 1697 2047 
L 1894 2003 
Q 2506 1872 2764 1633 
Q 3022 1394 3022 966 
Q 3022 478 2636 193 
Q 2250 -91 1575 -91 
Q 1294 -91 989 -36 
Q 684 19 347 128 
L 347 722 
Q 666 556 975 473 
Q 1284 391 1588 391 
Q 1994 391 2212 530 
Q 2431 669 2431 922 
Q 2431 1156 2273 1281 
Q 2116 1406 1581 1522 
L 1381 1569 
Q 847 1681 609 1914 
Q 372 2147 372 2553 
Q 372 3047 722 3315 
Q 1072 3584 1716 3584 
Q 2034 3584 2315 3537 
Q 2597 3491 2834 3397 
z
" transform="scale(0.015625)"/>
      </defs>
      <use xlink:href="#DejaVuSans-4d"/>
      <use xlink:href="#DejaVuSans-65" x="86.279297"/>
      <use xlink:href="#DejaVuSans-61" x="147.802734"/>
      <use xlink:href="#DejaVuSans-6e" x="209.082031"/>
      <use xlink:href="#DejaVuSans-20" x="272.460938"/>
      <use xlink:href="#DejaVuSans-53" x="304.248047"/>
      <use xlink:href="#DejaVuSans-70" x="367.724609"/>
      <use xlink:href="#DejaVuSans-61" x="431.201172"/>
      <use xlink:href="#DejaVuSans-74" x="492.480469"/>
      <use xlink:href="#DejaVuSans-69" x="531.689453"/>
      <use xlink:href="#DejaVuSans-61" x="559.472656"/>
      <use xlink:href="#DejaVuSans-6c" x="620.751953"/>
      <use xlink:href="#DejaVuSans-20" x="648.535156"/>
      <use xlink:href="#DejaVuSans-43" x="680.322266"/>
      <use xlink:href="#DejaVuSans-6f" x="750.146484"/>
      <use xlink:href="#DejaVuSans-6e" x="811.328125"/>
      <use xlink:href="#DejaVuSans-73" x="874.707031"/>
      <use xlink:href="#DejaVuSans-74" x="926.806641"/>
      <use xlink:href="#DejaVuSans-61" x="966.015625"/>
      <use xlink:href="#DejaVuSans-6e" x="1027.294922"/>
      <use xlink:href="#DejaVuSans-74" x="1090.673828"/>
     </g>
    </g>
   </g>
   <g id="line2d_69">
    <path d="M 72.747869 34.155453 
L 107.030634 34.256148 
L 141.3134 35.022209 
L 175.596165 32.510936 
L 209.87893 42.277869 
L 244.161695 41.542963 
L 278.44446 36.165975 
L 312.727225 43.270005 
L 347.009991 49.450411 
L 381.292756 51.964095 
" clip-path="url(#p8bfc8f149a)" style="fill: none; stroke: #0c5da5; stroke-width: 2; stroke-linecap: square"/>
    <defs>
     <path id="m76046cadb0" d="M 0 3 
C 0.795609 3 1.55874 2.683901 2.12132 2.12132 
C 2.683901 1.55874 3 0.795609 3 0 
C 3 -0.795609 2.683901 -1.55874 2.12132 -2.12132 
C 1.55874 -2.683901 0.795609 -3 0 -3 
C -0.795609 -3 -1.55874 -2.683901 -2.12132 -2.12132 
C -2.683901 -1.55874 -3 -0.795609 -3 0 
C -3 0.795609 -2.683901 1.55874 -2.12132 2.12132 
C -1.55874 2.683901 -0.795609 3 0 3 
z
" style="stroke: #0c5da5"/>
    </defs>
    <g clip-path="url(#p8bfc8f149a)">
     <use xlink:href="#m76046cadb0" x="72.747869" y="34.155453" style="fill: #0c5da5; stroke: #0c5da5"/>
     <use xlink:href="#m76046cadb0" x="107.030634" y="34.256148" style="fill: #0c5da5; stroke: #0c5da5"/>
     <use xlink:href="#m76046cadb0" x="141.3134" y="35.022209" style="fill: #0c5da5; stroke: #0c5da5"/>
     <use xlink:href="#m76046cadb0" x="175.596165" y="32.510936" style="fill: #0c5da5; stroke: #0c5da5"/>
     <use xlink:href="#m76046cadb0" x="209.87893" y="42.277869" style="fill: #0c5da5; stroke: #0c5da5"/>
     <use xlink:href="#m76046cadb0" x="244.161695" y="41.542963" style="fill: #0c5da5; stroke: #0c5da5"/>
     <use xlink:href="#m76046cadb0" x="278.44446" y="36.165975" style="fill: #0c5da5; stroke: #0c5da5"/>
     <use xlink:href="#m76046cadb0" x="312.727225" y="43.270005" style="fill: #0c5da5; stroke: #0c5da5"/>
     <use xlink:href="#m76046cadb0" x="347.009991" y="49.450411" style="fill: #0c5da5; stroke: #0c5da5"/>
     <use xlink:href="#m76046cadb0" x="381.292756" y="51.964095" style="fill: #0c5da5; stroke: #0c5da5"/>
    </g>
   </g>
   <g id="line2d_70">
    <path d="M 72.747869 38.582076 
L 107.030634 42.055413 
L 141.3134 49.981587 
L 175.596165 66.567166 
L 209.87893 82.276752 
L 244.161695 118.790747 
L 278.44446 152.403912 
L 312.727225 170.280633 
L 347.009991 172.893573 
L 381.292756 174.384183 
" clip-path="url(#p8bfc8f149a)" style="fill: none; stroke: #00b945; stroke-width: 2; stroke-linecap: square"/>
    <defs>
     <path id="mee180ffcfb" d="M 0 3 
C 0.795609 3 1.55874 2.683901 2.12132 2.12132 
C 2.683901 1.55874 3 0.795609 3 0 
C 3 -0.795609 2.683901 -1.55874 2.12132 -2.12132 
C 1.55874 -2.683901 0.795609 -3 0 -3 
C -0.795609 -3 -1.55874 -2.683901 -2.12132 -2.12132 
C -2.683901 -1.55874 -3 -0.795609 -3 0 
C -3 0.795609 -2.683901 1.55874 -2.12132 2.12132 
C -1.55874 2.683901 -0.795609 3 0 3 
z
" style="stroke: #00b945"/>
    </defs>
    <g clip-path="url(#p8bfc8f149a)">
     <use xlink:href="#mee180ffcfb" x="72.747869" y="38.582076" style="fill: #00b945; stroke: #00b945"/>
     <use xlink:href="#mee180ffcfb" x="107.030634" y="42.055413" style="fill: #00b945; stroke: #00b945"/>
     <use xlink:href="#mee180ffcfb" x="141.3134" y="49.981587" style="fill: #00b945; stroke: #00b945"/>
     <use xlink:href="#mee180ffcfb" x="175.596165" y="66.567166" style="fill: #00b945; stroke: #00b945"/>
     <use xlink:href="#mee180ffcfb" x="209.87893" y="82.276752" style="fill: #00b945; stroke: #00b945"/>
     <use xlink:href="#mee180ffcfb" x="244.161695" y="118.790747" style="fill: #00b945; stroke: #00b945"/>
     <use xlink:href="#mee180ffcfb" x="278.44446" y="152.403912" style="fill: #00b945; stroke: #00b945"/>
     <use xlink:href="#mee180ffcfb" x="312.727225" y="170.280633" style="fill: #00b945; stroke: #00b945"/>
     <use xlink:href="#mee180ffcfb" x="347.009991" y="172.893573" style="fill: #00b945; stroke: #00b945"/>
     <use xlink:href="#mee180ffcfb" x="381.292756" y="174.384183" style="fill: #00b945; stroke: #00b945"/>
    </g>
   </g>
   <g id="line2d_71">
    <path d="M 72.747869 34.175833 
L 107.030634 35.970985 
L 141.3134 57.534583 
L 175.596165 80.015919 
L 209.87893 122.029057 
L 244.161695 182.916913 
L 278.44446 198.859019 
L 312.727225 204.560724 
L 347.009991 204.994799 
L 381.292756 204.983109 
" clip-path="url(#p8bfc8f149a)" style="fill: none; stroke: #ff9500; stroke-width: 2; stroke-linecap: square"/>
    <defs>
     <path id="m71c501ce5b" d="M 0 3 
C 0.795609 3 1.55874 2.683901 2.12132 2.12132 
C 2.683901 1.55874 3 0.795609 3 0 
C 3 -0.795609 2.683901 -1.55874 2.12132 -2.12132 
C 1.55874 -2.683901 0.795609 -3 0 -3 
C -0.795609 -3 -1.55874 -2.683901 -2.12132 -2.12132 
C -2.683901 -1.55874 -3 -0.795609 -3 0 
C -3 0.795609 -2.683901 1.55874 -2.12132 2.12132 
C -1.55874 2.683901 -0.795609 3 0 3 
z
" style="stroke: #ff9500"/>
    </defs>
    <g clip-path="url(#p8bfc8f149a)">
     <use xlink:href="#m71c501ce5b" x="72.747869" y="34.175833" style="fill: #ff9500; stroke: #ff9500"/>
     <use xlink:href="#m71c501ce5b" x="107.030634" y="35.970985" style="fill: #ff9500; stroke: #ff9500"/>
     <use xlink:href="#m71c501ce5b" x="141.3134" y="57.534583" style="fill: #ff9500; stroke: #ff9500"/>
     <use xlink:href="#m71c501ce5b" x="175.596165" y="80.015919" style="fill: #ff9500; stroke: #ff9500"/>
     <use xlink:href="#m71c501ce5b" x="209.87893" y="122.029057" style="fill: #ff9500; stroke: #ff9500"/>
     <use xlink:href="#m71c501ce5b" x="244.161695" y="182.916913" style="fill: #ff9500; stroke: #ff9500"/>
     <use xlink:href="#m71c501ce5b" x="278.44446" y="198.859019" style="fill: #ff9500; stroke: #ff9500"/>
     <use xlink:href="#m71c501ce5b" x="312.727225" y="204.560724" style="fill: #ff9500; stroke: #ff9500"/>
     <use xlink:href="#m71c501ce5b" x="347.009991" y="204.994799" style="fill: #ff9500; stroke: #ff9500"/>
     <use xlink:href="#m71c501ce5b" x="381.292756" y="204.983109" style="fill: #ff9500; stroke: #ff9500"/>
    </g>
   </g>
   <g id="line2d_72">
    <path d="M 72.747869 33.071415 
L 107.030634 45.846673 
L 141.3134 67.134333 
L 175.596165 125.218963 
L 209.87893 175.75983 
L 244.161695 209.272983 
L 278.44446 217.561997 
L 312.727225 218.213078 
L 347.009991 218.303778 
L 381.292756 218.303778 
" clip-path="url(#p8bfc8f149a)" style="fill: none; stroke: #ff2c00; stroke-width: 2; stroke-linecap: square"/>
    <defs>
     <path id="m22909aade9" d="M 0 3 
C 0.795609 3 1.55874 2.683901 2.12132 2.12132 
C 2.683901 1.55874 3 0.795609 3 0 
C 3 -0.795609 2.683901 -1.55874 2.12132 -2.12132 
C 1.55874 -2.683901 0.795609 -3 0 -3 
C -0.795609 -3 -1.55874 -2.683901 -2.12132 -2.12132 
C -2.683901 -1.55874 -3 -0.795609 -3 0 
C -3 0.795609 -2.683901 1.55874 -2.12132 2.12132 
C -1.55874 2.683901 -0.795609 3 0 3 
z
" style="stroke: #ff2c00"/>
    </defs>
    <g clip-path="url(#p8bfc8f149a)">
     <use xlink:href="#m22909aade9" x="72.747869" y="33.071415" style="fill: #ff2c00; stroke: #ff2c00"/>
     <use xlink:href="#m22909aade9" x="107.030634" y="45.846673" style="fill: #ff2c00; stroke: #ff2c00"/>
     <use xlink:href="#m22909aade9" x="141.3134" y="67.134333" style="fill: #ff2c00; stroke: #ff2c00"/>
     <use xlink:href="#m22909aade9" x="175.596165" y="125.218963" style="fill: #ff2c00; stroke: #ff2c00"/>
     <use xlink:href="#m22909aade9" x="209.87893" y="175.75983" style="fill: #ff2c00; stroke: #ff2c00"/>
     <use xlink:href="#m22909aade9" x="244.161695" y="209.272983" style="fill: #ff2c00; stroke: #ff2c00"/>
     <use xlink:href="#m22909aade9" x="278.44446" y="217.561997" style="fill: #ff2c00; stroke: #ff2c00"/>
     <use xlink:href="#m22909aade9" x="312.727225" y="218.213078" style="fill: #ff2c00; stroke: #ff2c00"/>
     <use xlink:href="#m22909aade9" x="347.009991" y="218.303778" style="fill: #ff2c00; stroke: #ff2c00"/>
     <use xlink:href="#m22909aade9" x="381.292756" y="218.303778" style="fill: #ff2c00; stroke: #ff2c00"/>
    </g>
   </g>
   <g id="line2d_73">
    <path d="M 72.747869 33.161599 
L 107.030634 46.886123 
L 141.3134 79.607455 
L 175.596165 133.439493 
L 209.87893 196.435938 
L 244.161695 215.33797 
L 278.44446 225.641115 
L 312.727225 225.668576 
L 347.009991 225.668576 
L 381.292756 225.668576 
" clip-path="url(#p8bfc8f149a)" style="fill: none; stroke: #845b97; stroke-width: 2; stroke-linecap: square"/>
    <defs>
     <path id="m25dcc8b216" d="M 0 3 
C 0.795609 3 1.55874 2.683901 2.12132 2.12132 
C 2.683901 1.55874 3 0.795609 3 0 
C 3 -0.795609 2.683901 -1.55874 2.12132 -2.12132 
C 1.55874 -2.683901 0.795609 -3 0 -3 
C -0.795609 -3 -1.55874 -2.683901 -2.12132 -2.12132 
C -2.683901 -1.55874 -3 -0.795609 -3 0 
C -3 0.795609 -2.683901 1.55874 -2.12132 2.12132 
C -1.55874 2.683901 -0.795609 3 0 3 
z
" style="stroke: #845b97"/>
    </defs>
    <g clip-path="url(#p8bfc8f149a)">
     <use xlink:href="#m25dcc8b216" x="72.747869" y="33.161599" style="fill: #845b97; stroke: #845b97"/>
     <use xlink:href="#m25dcc8b216" x="107.030634" y="46.886123" style="fill: #845b97; stroke: #845b97"/>
     <use xlink:href="#m25dcc8b216" x="141.3134" y="79.607455" style="fill: #845b97; stroke: #845b97"/>
     <use xlink:href="#m25dcc8b216" x="175.596165" y="133.439493" style="fill: #845b97; stroke: #845b97"/>
     <use xlink:href="#m25dcc8b216" x="209.87893" y="196.435938" style="fill: #845b97; stroke: #845b97"/>
     <use xlink:href="#m25dcc8b216" x="244.161695" y="215.33797" style="fill: #845b97; stroke: #845b97"/>
     <use xlink:href="#m25dcc8b216" x="278.44446" y="225.641115" style="fill: #845b97; stroke: #845b97"/>
     <use xlink:href="#m25dcc8b216" x="312.727225" y="225.668576" style="fill: #845b97; stroke: #845b97"/>
     <use xlink:href="#m25dcc8b216" x="347.009991" y="225.668576" style="fill: #845b97; stroke: #845b97"/>
     <use xlink:href="#m25dcc8b216" x="381.292756" y="225.668576" style="fill: #845b97; stroke: #845b97"/>
    </g>
   </g>
   <g id="line2d_74">
    <path d="M 72.747869 39.824409 
L 107.030634 38.602794 
L 141.3134 84.038775 
L 175.596165 152.762348 
L 209.87893 220.080958 
L 244.161695 234.419846 
L 278.44446 235.234261 
L 312.727225 235.234261 
L 347.009991 235.234261 
L 381.292756 235.234261 
" clip-path="url(#p8bfc8f149a)" style="fill: none; stroke: #474747; stroke-width: 2; stroke-linecap: square"/>
    <defs>
     <path id="mf2a87b77b7" d="M 0 3 
C 0.795609 3 1.55874 2.683901 2.12132 2.12132 
C 2.683901 1.55874 3 0.795609 3 0 
C 3 -0.795609 2.683901 -1.55874 2.12132 -2.12132 
C 1.55874 -2.683901 0.795609 -3 0 -3 
C -0.795609 -3 -1.55874 -2.683901 -2.12132 -2.12132 
C -2.683901 -1.55874 -3 -0.795609 -3 0 
C -3 0.795609 -2.683901 1.55874 -2.12132 2.12132 
C -1.55874 2.683901 -0.795609 3 0 3 
z
" style="stroke: #474747"/>
    </defs>
    <g clip-path="url(#p8bfc8f149a)">
     <use xlink:href="#mf2a87b77b7" x="72.747869" y="39.824409" style="fill: #474747; stroke: #474747"/>
     <use xlink:href="#mf2a87b77b7" x="107.030634" y="38.602794" style="fill: #474747; stroke: #474747"/>
     <use xlink:href="#mf2a87b77b7" x="141.3134" y="84.038775" style="fill: #474747; stroke: #474747"/>
     <use xlink:href="#mf2a87b77b7" x="175.596165" y="152.762348" style="fill: #474747; stroke: #474747"/>
     <use xlink:href="#mf2a87b77b7" x="209.87893" y="220.080958" style="fill: #474747; stroke: #474747"/>
     <use xlink:href="#mf2a87b77b7" x="244.161695" y="234.419846" style="fill: #474747; stroke: #474747"/>
     <use xlink:href="#mf2a87b77b7" x="278.44446" y="235.234261" style="fill: #474747; stroke: #474747"/>
     <use xlink:href="#mf2a87b77b7" x="312.727225" y="235.234261" style="fill: #474747; stroke: #474747"/>
     <use xlink:href="#mf2a87b77b7" x="347.009991" y="235.234261" style="fill: #474747; stroke: #474747"/>
     <use xlink:href="#mf2a87b77b7" x="381.292756" y="235.234261" style="fill: #474747; stroke: #474747"/>
    </g>
   </g>
   <g id="patch_3">
    <path d="M 57.320625 246.37875 
L 57.320625 3.6 
" style="fill: none; stroke: #000000; stroke-width: 0.5; stroke-linejoin: miter; stroke-linecap: square"/>
   </g>
   <g id="patch_4">
    <path d="M 396.72 246.37875 
L 396.72 3.6 
" style="fill: none; stroke: #000000; stroke-width: 0.5; stroke-linejoin: miter; stroke-linecap: square"/>
   </g>
   <g id="patch_5">
    <path d="M 57.320625 246.37875 
L 396.72 246.37875 
" style="fill: none; stroke: #000000; stroke-width: 0.5; stroke-linejoin: miter; stroke-linecap: square"/>
   </g>
   <g id="patch_6">
    <path d="M 57.320625 3.6 
L 396.72 3.6 
" style="fill: none; stroke: #000000; stroke-width: 0.5; stroke-linejoin: miter; stroke-linecap: square"/>
   </g>
   <g id="legend_1">
    <g id="line2d_75">
     <path d="M 251.161875 19.318125 
L 263.161875 19.318125 
L 275.161875 19.318125 
" style="fill: none; stroke: #0c5da5; stroke-width: 2; stroke-linecap: square"/>
     <g>
      <use xlink:href="#m76046cadb0" x="263.161875" y="19.318125" style="fill: #0c5da5; stroke: #0c5da5"/>
     </g>
    </g>
    <g id="text_10">
     <!-- False Edges: 0 -->
     <g transform="translate(284.761875 23.518125) scale(0.12 -0.12)">
      <defs>
       <path id="DejaVuSans-46" d="M 628 4666 
L 3309 4666 
L 3309 4134 
L 1259 4134 
L 1259 2759 
L 3109 2759 
L 3109 2228 
L 1259 2228 
L 1259 0 
L 628 0 
L 628 4666 
z
" transform="scale(0.015625)"/>
       <path id="DejaVuSans-45" d="M 628 4666 
L 3578 4666 
L 3578 4134 
L 1259 4134 
L 1259 2753 
L 3481 2753 
L 3481 2222 
L 1259 2222 
L 1259 531 
L 3634 531 
L 3634 0 
L 628 0 
L 628 4666 
z
" transform="scale(0.015625)"/>
       <path id="DejaVuSans-64" d="M 2906 2969 
L 2906 4863 
L 3481 4863 
L 3481 0 
L 2906 0 
L 2906 525 
Q 2725 213 2448 61 
Q 2172 -91 1784 -91 
Q 1150 -91 751 415 
Q 353 922 353 1747 
Q 353 2572 751 3078 
Q 1150 3584 1784 3584 
Q 2172 3584 2448 3432 
Q 2725 3281 2906 2969 
z
M 947 1747 
Q 947 1113 1208 752 
Q 1469 391 1925 391 
Q 2381 391 2643 752 
Q 2906 1113 2906 1747 
Q 2906 2381 2643 2742 
Q 2381 3103 1925 3103 
Q 1469 3103 1208 2742 
Q 947 2381 947 1747 
z
" transform="scale(0.015625)"/>
       <path id="DejaVuSans-67" d="M 2906 1791 
Q 2906 2416 2648 2759 
Q 2391 3103 1925 3103 
Q 1463 3103 1205 2759 
Q 947 2416 947 1791 
Q 947 1169 1205 825 
Q 1463 481 1925 481 
Q 2391 481 2648 825 
Q 2906 1169 2906 1791 
z
M 3481 434 
Q 3481 -459 3084 -895 
Q 2688 -1331 1869 -1331 
Q 1566 -1331 1297 -1286 
Q 1028 -1241 775 -1147 
L 775 -588 
Q 1028 -725 1275 -790 
Q 1522 -856 1778 -856 
Q 2344 -856 2625 -561 
Q 2906 -266 2906 331 
L 2906 616 
Q 2728 306 2450 153 
Q 2172 0 1784 0 
Q 1141 0 747 490 
Q 353 981 353 1791 
Q 353 2603 747 3093 
Q 1141 3584 1784 3584 
Q 2172 3584 2450 3431 
Q 2728 3278 2906 2969 
L 2906 3500 
L 3481 3500 
L 3481 434 
z
" transform="scale(0.015625)"/>
       <path id="DejaVuSans-3a" d="M 750 794 
L 1409 794 
L 1409 0 
L 750 0 
L 750 794 
z
M 750 3309 
L 1409 3309 
L 1409 2516 
L 750 2516 
L 750 3309 
z
" transform="scale(0.015625)"/>
      </defs>
      <use xlink:href="#DejaVuSans-46"/>
      <use xlink:href="#DejaVuSans-61" x="48.394531"/>
      <use xlink:href="#DejaVuSans-6c" x="109.673828"/>
      <use xlink:href="#DejaVuSans-73" x="137.457031"/>
      <use xlink:href="#DejaVuSans-65" x="189.556641"/>
      <use xlink:href="#DejaVuSans-20" x="251.080078"/>
      <use xlink:href="#DejaVuSans-45" x="282.867188"/>
      <use xlink:href="#DejaVuSans-64" x="346.050781"/>
      <use xlink:href="#DejaVuSans-67" x="409.527344"/>
      <use xlink:href="#DejaVuSans-65" x="473.003906"/>
      <use xlink:href="#DejaVuSans-73" x="534.527344"/>
      <use xlink:href="#DejaVuSans-3a" x="586.626953"/>
      <use xlink:href="#DejaVuSans-20" x="620.318359"/>
      <use xlink:href="#DejaVuSans-30" x="652.105469"/>
     </g>
    </g>
    <g id="line2d_76">
     <path d="M 251.161875 36.931875 
L 263.161875 36.931875 
L 275.161875 36.931875 
" style="fill: none; stroke: #00b945; stroke-width: 2; stroke-linecap: square"/>
     <g>
      <use xlink:href="#mee180ffcfb" x="263.161875" y="36.931875" style="fill: #00b945; stroke: #00b945"/>
     </g>
    </g>
    <g id="text_11">
     <!-- False Edges: 20 -->
     <g transform="translate(284.761875 41.131875) scale(0.12 -0.12)">
      <use xlink:href="#DejaVuSans-46"/>
      <use xlink:href="#DejaVuSans-61" x="48.394531"/>
      <use xlink:href="#DejaVuSans-6c" x="109.673828"/>
      <use xlink:href="#DejaVuSans-73" x="137.457031"/>
      <use xlink:href="#DejaVuSans-65" x="189.556641"/>
      <use xlink:href="#DejaVuSans-20" x="251.080078"/>
      <use xlink:href="#DejaVuSans-45" x="282.867188"/>
      <use xlink:href="#DejaVuSans-64" x="346.050781"/>
      <use xlink:href="#DejaVuSans-67" x="409.527344"/>
      <use xlink:href="#DejaVuSans-65" x="473.003906"/>
      <use xlink:href="#DejaVuSans-73" x="534.527344"/>
      <use xlink:href="#DejaVuSans-3a" x="586.626953"/>
      <use xlink:href="#DejaVuSans-20" x="620.318359"/>
      <use xlink:href="#DejaVuSans-32" x="652.105469"/>
      <use xlink:href="#DejaVuSans-30" x="715.728516"/>
     </g>
    </g>
    <g id="line2d_77">
     <path d="M 251.161875 54.545625 
L 263.161875 54.545625 
L 275.161875 54.545625 
" style="fill: none; stroke: #ff9500; stroke-width: 2; stroke-linecap: square"/>
     <g>
      <use xlink:href="#m71c501ce5b" x="263.161875" y="54.545625" style="fill: #ff9500; stroke: #ff9500"/>
     </g>
    </g>
    <g id="text_12">
     <!-- False Edges: 40 -->
     <g transform="translate(284.761875 58.745625) scale(0.12 -0.12)">
      <defs>
       <path id="DejaVuSans-34" d="M 2419 4116 
L 825 1625 
L 2419 1625 
L 2419 4116 
z
M 2253 4666 
L 3047 4666 
L 3047 1625 
L 3713 1625 
L 3713 1100 
L 3047 1100 
L 3047 0 
L 2419 0 
L 2419 1100 
L 313 1100 
L 313 1709 
L 2253 4666 
z
" transform="scale(0.015625)"/>
      </defs>
      <use xlink:href="#DejaVuSans-46"/>
      <use xlink:href="#DejaVuSans-61" x="48.394531"/>
      <use xlink:href="#DejaVuSans-6c" x="109.673828"/>
      <use xlink:href="#DejaVuSans-73" x="137.457031"/>
      <use xlink:href="#DejaVuSans-65" x="189.556641"/>
      <use xlink:href="#DejaVuSans-20" x="251.080078"/>
      <use xlink:href="#DejaVuSans-45" x="282.867188"/>
      <use xlink:href="#DejaVuSans-64" x="346.050781"/>
      <use xlink:href="#DejaVuSans-67" x="409.527344"/>
      <use xlink:href="#DejaVuSans-65" x="473.003906"/>
      <use xlink:href="#DejaVuSans-73" x="534.527344"/>
      <use xlink:href="#DejaVuSans-3a" x="586.626953"/>
      <use xlink:href="#DejaVuSans-20" x="620.318359"/>
      <use xlink:href="#DejaVuSans-34" x="652.105469"/>
      <use xlink:href="#DejaVuSans-30" x="715.728516"/>
     </g>
    </g>
    <g id="line2d_78">
     <path d="M 251.161875 72.159375 
L 263.161875 72.159375 
L 275.161875 72.159375 
" style="fill: none; stroke: #ff2c00; stroke-width: 2; stroke-linecap: square"/>
     <g>
      <use xlink:href="#m22909aade9" x="263.161875" y="72.159375" style="fill: #ff2c00; stroke: #ff2c00"/>
     </g>
    </g>
    <g id="text_13">
     <!-- False Edges: 60 -->
     <g transform="translate(284.761875 76.359375) scale(0.12 -0.12)">
      <use xlink:href="#DejaVuSans-46"/>
      <use xlink:href="#DejaVuSans-61" x="48.394531"/>
      <use xlink:href="#DejaVuSans-6c" x="109.673828"/>
      <use xlink:href="#DejaVuSans-73" x="137.457031"/>
      <use xlink:href="#DejaVuSans-65" x="189.556641"/>
      <use xlink:href="#DejaVuSans-20" x="251.080078"/>
      <use xlink:href="#DejaVuSans-45" x="282.867188"/>
      <use xlink:href="#DejaVuSans-64" x="346.050781"/>
      <use xlink:href="#DejaVuSans-67" x="409.527344"/>
      <use xlink:href="#DejaVuSans-65" x="473.003906"/>
      <use xlink:href="#DejaVuSans-73" x="534.527344"/>
      <use xlink:href="#DejaVuSans-3a" x="586.626953"/>
      <use xlink:href="#DejaVuSans-20" x="620.318359"/>
      <use xlink:href="#DejaVuSans-36" x="652.105469"/>
      <use xlink:href="#DejaVuSans-30" x="715.728516"/>
     </g>
    </g>
    <g id="line2d_79">
     <path d="M 251.161875 89.773125 
L 263.161875 89.773125 
L 275.161875 89.773125 
" style="fill: none; stroke: #845b97; stroke-width: 2; stroke-linecap: square"/>
     <g>
      <use xlink:href="#m25dcc8b216" x="263.161875" y="89.773125" style="fill: #845b97; stroke: #845b97"/>
     </g>
    </g>
    <g id="text_14">
     <!-- False Edges: 80 -->
     <g transform="translate(284.761875 93.973125) scale(0.12 -0.12)">
      <use xlink:href="#DejaVuSans-46"/>
      <use xlink:href="#DejaVuSans-61" x="48.394531"/>
      <use xlink:href="#DejaVuSans-6c" x="109.673828"/>
      <use xlink:href="#DejaVuSans-73" x="137.457031"/>
      <use xlink:href="#DejaVuSans-65" x="189.556641"/>
      <use xlink:href="#DejaVuSans-20" x="251.080078"/>
      <use xlink:href="#DejaVuSans-45" x="282.867188"/>
      <use xlink:href="#DejaVuSans-64" x="346.050781"/>
      <use xlink:href="#DejaVuSans-67" x="409.527344"/>
      <use xlink:href="#DejaVuSans-65" x="473.003906"/>
      <use xlink:href="#DejaVuSans-73" x="534.527344"/>
      <use xlink:href="#DejaVuSans-3a" x="586.626953"/>
      <use xlink:href="#DejaVuSans-20" x="620.318359"/>
      <use xlink:href="#DejaVuSans-38" x="652.105469"/>
      <use xlink:href="#DejaVuSans-30" x="715.728516"/>
     </g>
    </g>
    <g id="line2d_80">
     <path d="M 251.161875 107.386875 
L 263.161875 107.386875 
L 275.161875 107.386875 
" style="fill: none; stroke: #474747; stroke-width: 2; stroke-linecap: square"/>
     <g>
      <use xlink:href="#mf2a87b77b7" x="263.161875" y="107.386875" style="fill: #474747; stroke: #474747"/>
     </g>
    </g>
    <g id="text_15">
     <!-- False Edges: 100 -->
     <g transform="translate(284.761875 111.586875) scale(0.12 -0.12)">
      <use xlink:href="#DejaVuSans-46"/>
      <use xlink:href="#DejaVuSans-61" x="48.394531"/>
      <use xlink:href="#DejaVuSans-6c" x="109.673828"/>
      <use xlink:href="#DejaVuSans-73" x="137.457031"/>
      <use xlink:href="#DejaVuSans-65" x="189.556641"/>
      <use xlink:href="#DejaVuSans-20" x="251.080078"/>
      <use xlink:href="#DejaVuSans-45" x="282.867188"/>
      <use xlink:href="#DejaVuSans-64" x="346.050781"/>
      <use xlink:href="#DejaVuSans-67" x="409.527344"/>
      <use xlink:href="#DejaVuSans-65" x="473.003906"/>
      <use xlink:href="#DejaVuSans-73" x="534.527344"/>
      <use xlink:href="#DejaVuSans-3a" x="586.626953"/>
      <use xlink:href="#DejaVuSans-20" x="620.318359"/>
      <use xlink:href="#DejaVuSans-31" x="652.105469"/>
      <use xlink:href="#DejaVuSans-30" x="715.728516"/>
      <use xlink:href="#DejaVuSans-30" x="779.351562"/>
     </g>
    </g>
   </g>
  </g>
 </g>
 <defs>
  <clipPath id="p8bfc8f149a">
   <rect x="57.320625" y="3.6" width="339.399375" height="242.77875"/>
  </clipPath>
 </defs>
</svg>
