<?xml version="1.0" encoding="utf-8" standalone="no"?>
<!DOCTYPE svg PUBLIC "-//W3C//DTD SVG 1.1//EN"
  "http://www.w3.org/Graphics/SVG/1.1/DTD/svg11.dtd">
<svg xmlns:xlink="http://www.w3.org/1999/xlink" width="740.789438pt" height="265.280625pt" viewBox="0 0 740.789438 265.280625" xmlns="http://www.w3.org/2000/svg" version="1.1">
 <metadata>
  <rdf:RDF xmlns:dc="http://purl.org/dc/elements/1.1/" xmlns:cc="http://creativecommons.org/ns#" xmlns:rdf="http://www.w3.org/1999/02/22-rdf-syntax-ns#">
   <cc:Work>
    <dc:type rdf:resource="http://purl.org/dc/dcmitype/StillImage"/>
    <dc:date>2024-08-20T14:54:02.107901</dc:date>
    <dc:format>image/svg+xml</dc:format>
    <dc:creator>
     <cc:Agent>
      <dc:title>Matplotlib v3.8.0, https://matplotlib.org/</dc:title>
     </cc:Agent>
    </dc:creator>
   </cc:Work>
  </rdf:RDF>
 </metadata>
 <defs>
  <style type="text/css">*{stroke-linejoin: round; stroke-linecap: butt}</style>
 </defs>
 <g id="figure_1">
  <g id="patch_1">
   <path d="M 0 265.280625 
L 740.789438 265.280625 
L 740.789438 0 
L 0 0 
z
" style="fill: #ffffff"/>
  </g>
  <g id="axes_1">
   <g id="patch_2">
    <path d="M 51.560625 219.3 
L 417.471046 219.3 
L 417.471046 3.6 
L 51.560625 3.6 
z
" style="fill: #ffffff"/>
   </g>
   <g id="PolyCollection_1">
    <defs>
     <path id="ma31560a236" d="M 68.192917 -46.39505 
L 68.192917 -45.980625 
L 69.864504 -45.980625 
L 71.536091 -45.980625 
L 73.207678 -45.980625 
L 74.879265 -45.980625 
L 76.550852 -45.980625 
L 78.22244 -45.980625 
L 79.894027 -45.980625 
L 81.565614 -45.980625 
L 83.237201 -45.980625 
L 84.908788 -45.980625 
L 86.580375 -45.980625 
L 88.251962 -45.980625 
L 89.923549 -45.980625 
L 91.595137 -45.980625 
L 93.266724 -45.980625 
L 94.938311 -45.980625 
L 96.609898 -45.980625 
L 98.281485 -45.980625 
L 99.953072 -45.980625 
L 101.624659 -45.980625 
L 103.296246 -45.980625 
L 104.967834 -45.980625 
L 106.639421 -45.980625 
L 108.311008 -45.980625 
L 109.982595 -45.980625 
L 111.654182 -45.980625 
L 113.325769 -45.980625 
L 114.997356 -45.980625 
L 116.668943 -45.980625 
L 118.34053 -45.980625 
L 120.012118 -45.980625 
L 121.683705 -45.980625 
L 123.355292 -45.980625 
L 125.026879 -45.980625 
L 126.698466 -45.980625 
L 128.370053 -45.980625 
L 130.04164 -45.980625 
L 131.713227 -45.980625 
L 133.384815 -45.980625 
L 135.056402 -45.980625 
L 136.727989 -45.980625 
L 138.399576 -45.980625 
L 140.071163 -45.980625 
L 141.74275 -45.980625 
L 143.414337 -45.980625 
L 145.085924 -45.980625 
L 146.757512 -45.980625 
L 148.429099 -45.980625 
L 150.100686 -45.980625 
L 151.772273 -45.980625 
L 153.44386 -45.980625 
L 155.115447 -45.980625 
L 156.787034 -45.980625 
L 158.458621 -45.980625 
L 160.130209 -45.980625 
L 161.801796 -45.980625 
L 163.473383 -45.980625 
L 165.14497 -45.980625 
L 166.816557 -45.980625 
L 168.488144 -45.980625 
L 170.159731 -45.980625 
L 171.831318 -45.980625 
L 173.502905 -45.980625 
L 175.174493 -45.980625 
L 176.84608 -45.980625 
L 178.517667 -45.980625 
L 180.189254 -45.980625 
L 181.860841 -45.980625 
L 183.532428 -45.980625 
L 185.204015 -45.980625 
L 186.875602 -45.980625 
L 188.54719 -45.980625 
L 190.218777 -45.980625 
L 191.890364 -45.980625 
L 193.561951 -45.980625 
L 195.233538 -45.980625 
L 196.905125 -45.980625 
L 198.576712 -45.980625 
L 200.248299 -45.980625 
L 201.919887 -45.980625 
L 203.591474 -45.980625 
L 205.263061 -45.980625 
L 206.934648 -45.980625 
L 208.606235 -45.980625 
L 210.277822 -45.980625 
L 211.949409 -45.980625 
L 213.620996 -45.980625 
L 215.292584 -45.980625 
L 216.964171 -45.980625 
L 218.635758 -45.980625 
L 220.307345 -45.980625 
L 221.978932 -45.980625 
L 223.650519 -45.980625 
L 225.322106 -45.980625 
L 226.993693 -45.980625 
L 228.66528 -45.980625 
L 230.336868 -45.980625 
L 232.008455 -45.980625 
L 233.680042 -45.980625 
L 235.351629 -45.980625 
L 237.023216 -45.980625 
L 238.694803 -45.980625 
L 240.36639 -45.980625 
L 242.037977 -45.980625 
L 243.709565 -45.980625 
L 245.381152 -45.980625 
L 247.052739 -45.980625 
L 248.724326 -45.980625 
L 250.395913 -45.980625 
L 252.0675 -45.980625 
L 253.739087 -45.980625 
L 255.410674 -45.980625 
L 257.082262 -45.980625 
L 258.753849 -45.980625 
L 260.425436 -45.980625 
L 262.097023 -45.980625 
L 263.76861 -45.980625 
L 265.440197 -45.980625 
L 267.111784 -45.980625 
L 268.783371 -45.980625 
L 270.454959 -45.980625 
L 272.126546 -45.980625 
L 273.798133 -45.980625 
L 275.46972 -45.980625 
L 277.141307 -45.980625 
L 278.812894 -45.980625 
L 280.484481 -45.980625 
L 282.156068 -45.980625 
L 283.827655 -45.980625 
L 285.499243 -45.980625 
L 287.17083 -45.980625 
L 288.842417 -45.980625 
L 290.514004 -45.980625 
L 292.185591 -45.980625 
L 293.857178 -45.980625 
L 295.528765 -45.980625 
L 297.200352 -45.980625 
L 298.87194 -45.980625 
L 300.543527 -45.980625 
L 302.215114 -45.980625 
L 303.886701 -45.980625 
L 305.558288 -45.980625 
L 307.229875 -45.980625 
L 308.901462 -45.980625 
L 310.573049 -45.980625 
L 312.244637 -45.980625 
L 313.916224 -45.980625 
L 315.587811 -45.980625 
L 317.259398 -45.980625 
L 318.930985 -45.980625 
L 320.602572 -45.980625 
L 322.274159 -45.980625 
L 323.945746 -45.980625 
L 325.617334 -45.980625 
L 327.288921 -45.980625 
L 328.960508 -45.980625 
L 330.632095 -45.980625 
L 332.303682 -45.980625 
L 333.975269 -45.980625 
L 335.646856 -45.980625 
L 337.318443 -45.980625 
L 338.99003 -45.980625 
L 340.661618 -45.980625 
L 342.333205 -45.980625 
L 344.004792 -45.980625 
L 345.676379 -45.980625 
L 347.347966 -45.980625 
L 349.019553 -45.980625 
L 350.69114 -45.980625 
L 352.362727 -45.980625 
L 354.034315 -45.980625 
L 355.705902 -45.980625 
L 357.377489 -45.980625 
L 359.049076 -45.980625 
L 360.720663 -45.980625 
L 362.39225 -45.980625 
L 364.063837 -45.980625 
L 365.735424 -45.980625 
L 367.407012 -45.980625 
L 369.078599 -45.980625 
L 370.750186 -45.980625 
L 372.421773 -45.980625 
L 374.09336 -45.980625 
L 375.764947 -45.980625 
L 377.436534 -45.980625 
L 379.108121 -45.980625 
L 380.779709 -45.980625 
L 382.451296 -45.980625 
L 384.122883 -45.980625 
L 385.79447 -45.980625 
L 387.466057 -45.980625 
L 389.137644 -45.980625 
L 390.809231 -45.980625 
L 392.480818 -45.980625 
L 394.152405 -45.980625 
L 395.823993 -45.980625 
L 397.49558 -45.980625 
L 399.167167 -45.980625 
L 400.838754 -45.980625 
L 400.838754 -46.912137 
L 400.838754 -46.912137 
L 399.167167 -47.15292 
L 397.49558 -47.448093 
L 395.823993 -47.807831 
L 394.152405 -48.243695 
L 392.480818 -48.768703 
L 390.809231 -49.397371 
L 389.137644 -50.145736 
L 387.466057 -51.03133 
L 385.79447 -52.073111 
L 384.122883 -53.291348 
L 382.451296 -54.70744 
L 380.779709 -56.343674 
L 379.108121 -58.222923 
L 377.436534 -60.368264 
L 375.764947 -62.802539 
L 374.09336 -65.547846 
L 372.421773 -68.624978 
L 370.750186 -72.052805 
L 369.078599 -75.847635 
L 367.407012 -80.022546 
L 365.735424 -84.586722 
L 364.063837 -89.544811 
L 362.39225 -94.896331 
L 360.720663 -100.635134 
L 359.049076 -106.748979 
L 357.377489 -113.219204 
L 355.705902 -120.020542 
L 354.034315 -127.121089 
L 352.362727 -134.482436 
L 350.69114 -142.059976 
L 349.019553 -149.803383 
L 347.347966 -157.657266 
L 345.676379 -165.561981 
L 344.004792 -173.454582 
L 342.333205 -181.269895 
L 340.661618 -188.941678 
L 338.99003 -196.403837 
L 337.318443 -203.591668 
L 335.646856 -210.44307 
L 333.975269 -216.899714 
L 332.303682 -222.908115 
L 330.632095 -228.420572 
L 328.960508 -233.39597 
L 327.288921 -237.80039 
L 325.617334 -241.607533 
L 323.945746 -244.798943 
L 322.274159 -247.364023 
L 320.602572 -249.299857 
L 318.930985 -250.610846 
L 317.259398 -251.308185 
L 315.587811 -251.409196 
L 313.916224 -250.936561 
L 312.244637 -249.917468 
L 310.573049 -248.382731 
L 308.901462 -246.365888 
L 307.229875 -243.902336 
L 305.558288 -241.028518 
L 303.886701 -237.781185 
L 302.215114 -234.196771 
L 300.543527 -230.310875 
L 298.87194 -226.15787 
L 297.200352 -221.770647 
L 295.528765 -217.18047 
L 293.857178 -212.416957 
L 292.185591 -207.508151 
L 290.514004 -202.480679 
L 288.842417 -197.359956 
L 287.17083 -192.170442 
L 285.499243 -186.935883 
L 283.827655 -181.679562 
L 282.156068 -176.424491 
L 280.484481 -171.193556 
L 278.812894 -166.009589 
L 277.141307 -160.895354 
L 275.46972 -155.873449 
L 273.798133 -150.966114 
L 272.126546 -146.194966 
L 270.454959 -141.580657 
L 268.783371 -137.142481 
L 267.111784 -132.897948 
L 265.440197 -128.862347 
L 263.76861 -125.048311 
L 262.097023 -121.465439 
L 260.425436 -118.119955 
L 258.753849 -115.01447 
L 257.082262 -112.147825 
L 255.410674 -109.515056 
L 253.739087 -107.107479 
L 252.0675 -104.912898 
L 250.395913 -102.915928 
L 248.724326 -101.098442 
L 247.052739 -99.440104 
L 245.381152 -97.918993 
L 243.709565 -96.512281 
L 242.037977 -95.196947 
L 240.36639 -93.950504 
L 238.694803 -92.751705 
L 237.023216 -91.581208 
L 235.351629 -90.422187 
L 233.680042 -89.26084 
L 232.008455 -88.086819 
L 230.336868 -86.893528 
L 228.66528 -85.678313 
L 226.993693 -84.442524 
L 225.322106 -83.19146 
L 223.650519 -81.934191 
L 221.978932 -80.683278 
L 220.307345 -79.454399 
L 218.635758 -78.265896 
L 216.964171 -77.138251 
L 215.292584 -76.093523 
L 213.620996 -75.154751 
L 211.949409 -74.345339 
L 210.277822 -73.688452 
L 208.606235 -73.206416 
L 206.934648 -72.920148 
L 205.263061 -72.848629 
L 203.591474 -73.008416 
L 201.919887 -73.413215 
L 200.248299 -74.073504 
L 198.576712 -74.996229 
L 196.905125 -76.184564 
L 195.233538 -77.637739 
L 193.561951 -79.35094 
L 191.890364 -81.315288 
L 190.218777 -83.517878 
L 188.54719 -85.9419 
L 186.875602 -88.566825 
L 185.204015 -91.368663 
L 183.532428 -94.320279 
L 181.860841 -97.39177 
L 180.189254 -100.550897 
L 178.517667 -103.763559 
L 176.84608 -106.994304 
L 175.174493 -110.206864 
L 173.502905 -113.364713 
L 171.831318 -116.431616 
L 170.159731 -119.372184 
L 168.488144 -122.1524 
L 166.816557 -124.74012 
L 165.14497 -127.105533 
L 163.473383 -129.221567 
L 161.801796 -131.06425 
L 160.130209 -132.613 
L 158.458621 -133.850851 
L 156.787034 -134.764616 
L 155.115447 -135.344982 
L 153.44386 -135.586539 
L 151.772273 -135.48775 
L 150.100686 -135.050862 
L 148.429099 -134.281766 
L 146.757512 -133.18981 
L 145.085924 -131.787576 
L 143.414337 -130.090618 
L 141.74275 -128.117175 
L 140.071163 -125.88786 
L 138.399576 -123.425331 
L 136.727989 -120.75395 
L 135.056402 -117.899433 
L 133.384815 -114.888489 
L 131.713227 -111.748468 
L 130.04164 -108.507004 
L 128.370053 -105.191664 
L 126.698466 -101.829614 
L 125.026879 -98.447288 
L 123.355292 -95.070087 
L 121.683705 -91.722091 
L 120.012118 -88.425808 
L 118.34053 -85.201945 
L 116.668943 -82.069219 
L 114.997356 -79.044206 
L 113.325769 -76.141229 
L 111.654182 -73.372291 
L 109.982595 -70.747044 
L 108.311008 -68.272812 
L 106.639421 -65.954646 
L 104.967834 -63.795412 
L 103.296246 -61.795932 
L 101.624659 -59.95513 
L 99.953072 -58.270222 
L 98.281485 -56.736913 
L 96.609898 -55.349612 
L 94.938311 -54.10165 
L 93.266724 -52.985496 
L 91.595137 -51.992979 
L 89.923549 -51.115486 
L 88.251962 -50.344152 
L 86.580375 -49.670042 
L 84.908788 -49.084294 
L 83.237201 -48.57826 
L 81.565614 -48.143612 
L 79.894027 -47.772432 
L 78.22244 -47.457281 
L 76.550852 -47.191247 
L 74.879265 -46.967969 
L 73.207678 -46.781658 
L 71.536091 -46.627092 
L 69.864504 -46.499601 
L 68.192917 -46.39505 
z
" style="stroke: #009ade"/>
    </defs>
    <g clip-path="url(#p4fae4d623c)">
     <use xlink:href="#ma31560a236" x="0" y="265.280625" style="fill: #009ade; fill-opacity: 0.7; stroke: #009ade"/>
    </g>
   </g>
   <g id="matplotlib.axis_1">
    <g id="xtick_1">
     <g id="line2d_1">
      <defs>
       <path id="mc3c19c38bd" d="M 0 0 
L 0 -3 
" style="stroke: #000000; stroke-width: 0.5"/>
      </defs>
      <g>
       <use xlink:href="#mc3c19c38bd" x="126.625148" y="219.3" style="stroke: #000000; stroke-width: 0.5"/>
      </g>
     </g>
     <g id="line2d_2">
      <defs>
       <path id="m24975b7554" d="M 0 0 
L 0 3 
" style="stroke: #000000; stroke-width: 0.5"/>
      </defs>
      <g>
       <use xlink:href="#m24975b7554" x="126.625148" y="3.6" style="stroke: #000000; stroke-width: 0.5"/>
      </g>
     </g>
     <g id="text_1">
      <!-- $\mathdefault{1.90}$ -->
      <g transform="translate(106.555148 236.477187) scale(0.18 -0.18)">
       <defs>
        <path id="DejaVuSans-31" d="M 794 531 
L 1825 531 
L 1825 4091 
L 703 3866 
L 703 4441 
L 1819 4666 
L 2450 4666 
L 2450 531 
L 3481 531 
L 3481 0 
L 794 0 
L 794 531 
z
" transform="scale(0.015625)"/>
        <path id="DejaVuSans-2e" d="M 684 794 
L 1344 794 
L 1344 0 
L 684 0 
L 684 794 
z
" transform="scale(0.015625)"/>
        <path id="DejaVuSans-39" d="M 703 97 
L 703 672 
Q 941 559 1184 500 
Q 1428 441 1663 441 
Q 2288 441 2617 861 
Q 2947 1281 2994 2138 
Q 2813 1869 2534 1725 
Q 2256 1581 1919 1581 
Q 1219 1581 811 2004 
Q 403 2428 403 3163 
Q 403 3881 828 4315 
Q 1253 4750 1959 4750 
Q 2769 4750 3195 4129 
Q 3622 3509 3622 2328 
Q 3622 1225 3098 567 
Q 2575 -91 1691 -91 
Q 1453 -91 1209 -44 
Q 966 3 703 97 
z
M 1959 2075 
Q 2384 2075 2632 2365 
Q 2881 2656 2881 3163 
Q 2881 3666 2632 3958 
Q 2384 4250 1959 4250 
Q 1534 4250 1286 3958 
Q 1038 3666 1038 3163 
Q 1038 2656 1286 2365 
Q 1534 2075 1959 2075 
z
" transform="scale(0.015625)"/>
        <path id="DejaVuSans-30" d="M 2034 4250 
Q 1547 4250 1301 3770 
Q 1056 3291 1056 2328 
Q 1056 1369 1301 889 
Q 1547 409 2034 409 
Q 2525 409 2770 889 
Q 3016 1369 3016 2328 
Q 3016 3291 2770 3770 
Q 2525 4250 2034 4250 
z
M 2034 4750 
Q 2819 4750 3233 4129 
Q 3647 3509 3647 2328 
Q 3647 1150 3233 529 
Q 2819 -91 2034 -91 
Q 1250 -91 836 529 
Q 422 1150 422 2328 
Q 422 3509 836 4129 
Q 1250 4750 2034 4750 
z
" transform="scale(0.015625)"/>
       </defs>
       <use xlink:href="#DejaVuSans-31" transform="translate(0 0.78125)"/>
       <use xlink:href="#DejaVuSans-2e" transform="translate(63.623047 0.78125)"/>
       <use xlink:href="#DejaVuSans-39" transform="translate(95.410156 0.78125)"/>
       <use xlink:href="#DejaVuSans-30" transform="translate(159.033203 0.78125)"/>
      </g>
     </g>
    </g>
    <g id="xtick_2">
     <g id="line2d_3">
      <g>
       <use xlink:href="#mc3c19c38bd" x="203.530577" y="219.3" style="stroke: #000000; stroke-width: 0.5"/>
      </g>
     </g>
     <g id="line2d_4">
      <g>
       <use xlink:href="#m24975b7554" x="203.530577" y="3.6" style="stroke: #000000; stroke-width: 0.5"/>
      </g>
     </g>
     <g id="text_2">
      <!-- $\mathdefault{1.95}$ -->
      <g transform="translate(183.460577 236.477187) scale(0.18 -0.18)">
       <defs>
        <path id="DejaVuSans-35" d="M 691 4666 
L 3169 4666 
L 3169 4134 
L 1269 4134 
L 1269 2991 
Q 1406 3038 1543 3061 
Q 1681 3084 1819 3084 
Q 2600 3084 3056 2656 
Q 3513 2228 3513 1497 
Q 3513 744 3044 326 
Q 2575 -91 1722 -91 
Q 1428 -91 1123 -41 
Q 819 9 494 109 
L 494 744 
Q 775 591 1075 516 
Q 1375 441 1709 441 
Q 2250 441 2565 725 
Q 2881 1009 2881 1497 
Q 2881 1984 2565 2268 
Q 2250 2553 1709 2553 
Q 1456 2553 1204 2497 
Q 953 2441 691 2322 
L 691 4666 
z
" transform="scale(0.015625)"/>
       </defs>
       <use xlink:href="#DejaVuSans-31" transform="translate(0 0.78125)"/>
       <use xlink:href="#DejaVuSans-2e" transform="translate(63.623047 0.78125)"/>
       <use xlink:href="#DejaVuSans-39" transform="translate(95.410156 0.78125)"/>
       <use xlink:href="#DejaVuSans-35" transform="translate(159.033203 0.78125)"/>
      </g>
     </g>
    </g>
    <g id="xtick_3">
     <g id="line2d_5">
      <g>
       <use xlink:href="#mc3c19c38bd" x="280.436006" y="219.3" style="stroke: #000000; stroke-width: 0.5"/>
      </g>
     </g>
     <g id="line2d_6">
      <g>
       <use xlink:href="#m24975b7554" x="280.436006" y="3.6" style="stroke: #000000; stroke-width: 0.5"/>
      </g>
     </g>
     <g id="text_3">
      <!-- $\mathdefault{2.00}$ -->
      <g transform="translate(260.366006 236.477187) scale(0.18 -0.18)">
       <defs>
        <path id="DejaVuSans-32" d="M 1228 531 
L 3431 531 
L 3431 0 
L 469 0 
L 469 531 
Q 828 903 1448 1529 
Q 2069 2156 2228 2338 
Q 2531 2678 2651 2914 
Q 2772 3150 2772 3378 
Q 2772 3750 2511 3984 
Q 2250 4219 1831 4219 
Q 1534 4219 1204 4116 
Q 875 4013 500 3803 
L 500 4441 
Q 881 4594 1212 4672 
Q 1544 4750 1819 4750 
Q 2544 4750 2975 4387 
Q 3406 4025 3406 3419 
Q 3406 3131 3298 2873 
Q 3191 2616 2906 2266 
Q 2828 2175 2409 1742 
Q 1991 1309 1228 531 
z
" transform="scale(0.015625)"/>
       </defs>
       <use xlink:href="#DejaVuSans-32" transform="translate(0 0.78125)"/>
       <use xlink:href="#DejaVuSans-2e" transform="translate(63.623047 0.78125)"/>
       <use xlink:href="#DejaVuSans-30" transform="translate(95.410156 0.78125)"/>
       <use xlink:href="#DejaVuSans-30" transform="translate(159.033203 0.78125)"/>
      </g>
     </g>
    </g>
    <g id="xtick_4">
     <g id="line2d_7">
      <g>
       <use xlink:href="#mc3c19c38bd" x="357.341435" y="219.3" style="stroke: #000000; stroke-width: 0.5"/>
      </g>
     </g>
     <g id="line2d_8">
      <g>
       <use xlink:href="#m24975b7554" x="357.341435" y="3.6" style="stroke: #000000; stroke-width: 0.5"/>
      </g>
     </g>
     <g id="text_4">
      <!-- $\mathdefault{2.05}$ -->
      <g transform="translate(337.271435 236.477187) scale(0.18 -0.18)">
       <use xlink:href="#DejaVuSans-32" transform="translate(0 0.78125)"/>
       <use xlink:href="#DejaVuSans-2e" transform="translate(63.623047 0.78125)"/>
       <use xlink:href="#DejaVuSans-30" transform="translate(95.410156 0.78125)"/>
       <use xlink:href="#DejaVuSans-35" transform="translate(159.033203 0.78125)"/>
      </g>
     </g>
    </g>
    <g id="xtick_5">
     <g id="line2d_9">
      <defs>
       <path id="mef42494d3e" d="M 0 0 
L 0 -1.5 
" style="stroke: #000000; stroke-width: 0.5"/>
      </defs>
      <g>
       <use xlink:href="#mef42494d3e" x="65.100805" y="219.3" style="stroke: #000000; stroke-width: 0.5"/>
      </g>
     </g>
     <g id="line2d_10">
      <defs>
       <path id="m82895e5bad" d="M 0 0 
L 0 1.5 
" style="stroke: #000000; stroke-width: 0.5"/>
      </defs>
      <g>
       <use xlink:href="#m82895e5bad" x="65.100805" y="3.6" style="stroke: #000000; stroke-width: 0.5"/>
      </g>
     </g>
    </g>
    <g id="xtick_6">
     <g id="line2d_11">
      <g>
       <use xlink:href="#mef42494d3e" x="80.481891" y="219.3" style="stroke: #000000; stroke-width: 0.5"/>
      </g>
     </g>
     <g id="line2d_12">
      <g>
       <use xlink:href="#m82895e5bad" x="80.481891" y="3.6" style="stroke: #000000; stroke-width: 0.5"/>
      </g>
     </g>
    </g>
    <g id="xtick_7">
     <g id="line2d_13">
      <g>
       <use xlink:href="#mef42494d3e" x="95.862976" y="219.3" style="stroke: #000000; stroke-width: 0.5"/>
      </g>
     </g>
     <g id="line2d_14">
      <g>
       <use xlink:href="#m82895e5bad" x="95.862976" y="3.6" style="stroke: #000000; stroke-width: 0.5"/>
      </g>
     </g>
    </g>
    <g id="xtick_8">
     <g id="line2d_15">
      <g>
       <use xlink:href="#mef42494d3e" x="111.244062" y="219.3" style="stroke: #000000; stroke-width: 0.5"/>
      </g>
     </g>
     <g id="line2d_16">
      <g>
       <use xlink:href="#m82895e5bad" x="111.244062" y="3.6" style="stroke: #000000; stroke-width: 0.5"/>
      </g>
     </g>
    </g>
    <g id="xtick_9">
     <g id="line2d_17">
      <g>
       <use xlink:href="#mef42494d3e" x="142.006234" y="219.3" style="stroke: #000000; stroke-width: 0.5"/>
      </g>
     </g>
     <g id="line2d_18">
      <g>
       <use xlink:href="#m82895e5bad" x="142.006234" y="3.6" style="stroke: #000000; stroke-width: 0.5"/>
      </g>
     </g>
    </g>
    <g id="xtick_10">
     <g id="line2d_19">
      <g>
       <use xlink:href="#mef42494d3e" x="157.387319" y="219.3" style="stroke: #000000; stroke-width: 0.5"/>
      </g>
     </g>
     <g id="line2d_20">
      <g>
       <use xlink:href="#m82895e5bad" x="157.387319" y="3.6" style="stroke: #000000; stroke-width: 0.5"/>
      </g>
     </g>
    </g>
    <g id="xtick_11">
     <g id="line2d_21">
      <g>
       <use xlink:href="#mef42494d3e" x="172.768405" y="219.3" style="stroke: #000000; stroke-width: 0.5"/>
      </g>
     </g>
     <g id="line2d_22">
      <g>
       <use xlink:href="#m82895e5bad" x="172.768405" y="3.6" style="stroke: #000000; stroke-width: 0.5"/>
      </g>
     </g>
    </g>
    <g id="xtick_12">
     <g id="line2d_23">
      <g>
       <use xlink:href="#mef42494d3e" x="188.149491" y="219.3" style="stroke: #000000; stroke-width: 0.5"/>
      </g>
     </g>
     <g id="line2d_24">
      <g>
       <use xlink:href="#m82895e5bad" x="188.149491" y="3.6" style="stroke: #000000; stroke-width: 0.5"/>
      </g>
     </g>
    </g>
    <g id="xtick_13">
     <g id="line2d_25">
      <g>
       <use xlink:href="#mef42494d3e" x="218.911663" y="219.3" style="stroke: #000000; stroke-width: 0.5"/>
      </g>
     </g>
     <g id="line2d_26">
      <g>
       <use xlink:href="#m82895e5bad" x="218.911663" y="3.6" style="stroke: #000000; stroke-width: 0.5"/>
      </g>
     </g>
    </g>
    <g id="xtick_14">
     <g id="line2d_27">
      <g>
       <use xlink:href="#mef42494d3e" x="234.292748" y="219.3" style="stroke: #000000; stroke-width: 0.5"/>
      </g>
     </g>
     <g id="line2d_28">
      <g>
       <use xlink:href="#m82895e5bad" x="234.292748" y="3.6" style="stroke: #000000; stroke-width: 0.5"/>
      </g>
     </g>
    </g>
    <g id="xtick_15">
     <g id="line2d_29">
      <g>
       <use xlink:href="#mef42494d3e" x="249.673834" y="219.3" style="stroke: #000000; stroke-width: 0.5"/>
      </g>
     </g>
     <g id="line2d_30">
      <g>
       <use xlink:href="#m82895e5bad" x="249.673834" y="3.6" style="stroke: #000000; stroke-width: 0.5"/>
      </g>
     </g>
    </g>
    <g id="xtick_16">
     <g id="line2d_31">
      <g>
       <use xlink:href="#mef42494d3e" x="265.05492" y="219.3" style="stroke: #000000; stroke-width: 0.5"/>
      </g>
     </g>
     <g id="line2d_32">
      <g>
       <use xlink:href="#m82895e5bad" x="265.05492" y="3.6" style="stroke: #000000; stroke-width: 0.5"/>
      </g>
     </g>
    </g>
    <g id="xtick_17">
     <g id="line2d_33">
      <g>
       <use xlink:href="#mef42494d3e" x="295.817091" y="219.3" style="stroke: #000000; stroke-width: 0.5"/>
      </g>
     </g>
     <g id="line2d_34">
      <g>
       <use xlink:href="#m82895e5bad" x="295.817091" y="3.6" style="stroke: #000000; stroke-width: 0.5"/>
      </g>
     </g>
    </g>
    <g id="xtick_18">
     <g id="line2d_35">
      <g>
       <use xlink:href="#mef42494d3e" x="311.198177" y="219.3" style="stroke: #000000; stroke-width: 0.5"/>
      </g>
     </g>
     <g id="line2d_36">
      <g>
       <use xlink:href="#m82895e5bad" x="311.198177" y="3.6" style="stroke: #000000; stroke-width: 0.5"/>
      </g>
     </g>
    </g>
    <g id="xtick_19">
     <g id="line2d_37">
      <g>
       <use xlink:href="#mef42494d3e" x="326.579263" y="219.3" style="stroke: #000000; stroke-width: 0.5"/>
      </g>
     </g>
     <g id="line2d_38">
      <g>
       <use xlink:href="#m82895e5bad" x="326.579263" y="3.6" style="stroke: #000000; stroke-width: 0.5"/>
      </g>
     </g>
    </g>
    <g id="xtick_20">
     <g id="line2d_39">
      <g>
       <use xlink:href="#mef42494d3e" x="341.960349" y="219.3" style="stroke: #000000; stroke-width: 0.5"/>
      </g>
     </g>
     <g id="line2d_40">
      <g>
       <use xlink:href="#m82895e5bad" x="341.960349" y="3.6" style="stroke: #000000; stroke-width: 0.5"/>
      </g>
     </g>
    </g>
    <g id="xtick_21">
     <g id="line2d_41">
      <g>
       <use xlink:href="#mef42494d3e" x="372.72252" y="219.3" style="stroke: #000000; stroke-width: 0.5"/>
      </g>
     </g>
     <g id="line2d_42">
      <g>
       <use xlink:href="#m82895e5bad" x="372.72252" y="3.6" style="stroke: #000000; stroke-width: 0.5"/>
      </g>
     </g>
    </g>
    <g id="xtick_22">
     <g id="line2d_43">
      <g>
       <use xlink:href="#mef42494d3e" x="388.103606" y="219.3" style="stroke: #000000; stroke-width: 0.5"/>
      </g>
     </g>
     <g id="line2d_44">
      <g>
       <use xlink:href="#m82895e5bad" x="388.103606" y="3.6" style="stroke: #000000; stroke-width: 0.5"/>
      </g>
     </g>
    </g>
    <g id="xtick_23">
     <g id="line2d_45">
      <g>
       <use xlink:href="#mef42494d3e" x="403.484692" y="219.3" style="stroke: #000000; stroke-width: 0.5"/>
      </g>
     </g>
     <g id="line2d_46">
      <g>
       <use xlink:href="#m82895e5bad" x="403.484692" y="3.6" style="stroke: #000000; stroke-width: 0.5"/>
      </g>
     </g>
    </g>
    <g id="text_5">
     <!-- Predicted Dimension -->
     <g transform="translate(141.571148 257.897812) scale(0.18 -0.18)">
      <defs>
       <path id="DejaVuSans-50" d="M 1259 4147 
L 1259 2394 
L 2053 2394 
Q 2494 2394 2734 2622 
Q 2975 2850 2975 3272 
Q 2975 3691 2734 3919 
Q 2494 4147 2053 4147 
L 1259 4147 
z
M 628 4666 
L 2053 4666 
Q 2838 4666 3239 4311 
Q 3641 3956 3641 3272 
Q 3641 2581 3239 2228 
Q 2838 1875 2053 1875 
L 1259 1875 
L 1259 0 
L 628 0 
L 628 4666 
z
" transform="scale(0.015625)"/>
       <path id="DejaVuSans-72" d="M 2631 2963 
Q 2534 3019 2420 3045 
Q 2306 3072 2169 3072 
Q 1681 3072 1420 2755 
Q 1159 2438 1159 1844 
L 1159 0 
L 581 0 
L 581 3500 
L 1159 3500 
L 1159 2956 
Q 1341 3275 1631 3429 
Q 1922 3584 2338 3584 
Q 2397 3584 2469 3576 
Q 2541 3569 2628 3553 
L 2631 2963 
z
" transform="scale(0.015625)"/>
       <path id="DejaVuSans-65" d="M 3597 1894 
L 3597 1613 
L 953 1613 
Q 991 1019 1311 708 
Q 1631 397 2203 397 
Q 2534 397 2845 478 
Q 3156 559 3463 722 
L 3463 178 
Q 3153 47 2828 -22 
Q 2503 -91 2169 -91 
Q 1331 -91 842 396 
Q 353 884 353 1716 
Q 353 2575 817 3079 
Q 1281 3584 2069 3584 
Q 2775 3584 3186 3129 
Q 3597 2675 3597 1894 
z
M 3022 2063 
Q 3016 2534 2758 2815 
Q 2500 3097 2075 3097 
Q 1594 3097 1305 2825 
Q 1016 2553 972 2059 
L 3022 2063 
z
" transform="scale(0.015625)"/>
       <path id="DejaVuSans-64" d="M 2906 2969 
L 2906 4863 
L 3481 4863 
L 3481 0 
L 2906 0 
L 2906 525 
Q 2725 213 2448 61 
Q 2172 -91 1784 -91 
Q 1150 -91 751 415 
Q 353 922 353 1747 
Q 353 2572 751 3078 
Q 1150 3584 1784 3584 
Q 2172 3584 2448 3432 
Q 2725 3281 2906 2969 
z
M 947 1747 
Q 947 1113 1208 752 
Q 1469 391 1925 391 
Q 2381 391 2643 752 
Q 2906 1113 2906 1747 
Q 2906 2381 2643 2742 
Q 2381 3103 1925 3103 
Q 1469 3103 1208 2742 
Q 947 2381 947 1747 
z
" transform="scale(0.015625)"/>
       <path id="DejaVuSans-69" d="M 603 3500 
L 1178 3500 
L 1178 0 
L 603 0 
L 603 3500 
z
M 603 4863 
L 1178 4863 
L 1178 4134 
L 603 4134 
L 603 4863 
z
" transform="scale(0.015625)"/>
       <path id="DejaVuSans-63" d="M 3122 3366 
L 3122 2828 
Q 2878 2963 2633 3030 
Q 2388 3097 2138 3097 
Q 1578 3097 1268 2742 
Q 959 2388 959 1747 
Q 959 1106 1268 751 
Q 1578 397 2138 397 
Q 2388 397 2633 464 
Q 2878 531 3122 666 
L 3122 134 
Q 2881 22 2623 -34 
Q 2366 -91 2075 -91 
Q 1284 -91 818 406 
Q 353 903 353 1747 
Q 353 2603 823 3093 
Q 1294 3584 2113 3584 
Q 2378 3584 2631 3529 
Q 2884 3475 3122 3366 
z
" transform="scale(0.015625)"/>
       <path id="DejaVuSans-74" d="M 1172 4494 
L 1172 3500 
L 2356 3500 
L 2356 3053 
L 1172 3053 
L 1172 1153 
Q 1172 725 1289 603 
Q 1406 481 1766 481 
L 2356 481 
L 2356 0 
L 1766 0 
Q 1100 0 847 248 
Q 594 497 594 1153 
L 594 3053 
L 172 3053 
L 172 3500 
L 594 3500 
L 594 4494 
L 1172 4494 
z
" transform="scale(0.015625)"/>
       <path id="DejaVuSans-20" transform="scale(0.015625)"/>
       <path id="DejaVuSans-44" d="M 1259 4147 
L 1259 519 
L 2022 519 
Q 2988 519 3436 956 
Q 3884 1394 3884 2338 
Q 3884 3275 3436 3711 
Q 2988 4147 2022 4147 
L 1259 4147 
z
M 628 4666 
L 1925 4666 
Q 3281 4666 3915 4102 
Q 4550 3538 4550 2338 
Q 4550 1131 3912 565 
Q 3275 0 1925 0 
L 628 0 
L 628 4666 
z
" transform="scale(0.015625)"/>
       <path id="DejaVuSans-6d" d="M 3328 2828 
Q 3544 3216 3844 3400 
Q 4144 3584 4550 3584 
Q 5097 3584 5394 3201 
Q 5691 2819 5691 2113 
L 5691 0 
L 5113 0 
L 5113 2094 
Q 5113 2597 4934 2840 
Q 4756 3084 4391 3084 
Q 3944 3084 3684 2787 
Q 3425 2491 3425 1978 
L 3425 0 
L 2847 0 
L 2847 2094 
Q 2847 2600 2669 2842 
Q 2491 3084 2119 3084 
Q 1678 3084 1418 2786 
Q 1159 2488 1159 1978 
L 1159 0 
L 581 0 
L 581 3500 
L 1159 3500 
L 1159 2956 
Q 1356 3278 1631 3431 
Q 1906 3584 2284 3584 
Q 2666 3584 2933 3390 
Q 3200 3197 3328 2828 
z
" transform="scale(0.015625)"/>
       <path id="DejaVuSans-6e" d="M 3513 2113 
L 3513 0 
L 2938 0 
L 2938 2094 
Q 2938 2591 2744 2837 
Q 2550 3084 2163 3084 
Q 1697 3084 1428 2787 
Q 1159 2491 1159 1978 
L 1159 0 
L 581 0 
L 581 3500 
L 1159 3500 
L 1159 2956 
Q 1366 3272 1645 3428 
Q 1925 3584 2291 3584 
Q 2894 3584 3203 3211 
Q 3513 2838 3513 2113 
z
" transform="scale(0.015625)"/>
       <path id="DejaVuSans-73" d="M 2834 3397 
L 2834 2853 
Q 2591 2978 2328 3040 
Q 2066 3103 1784 3103 
Q 1356 3103 1142 2972 
Q 928 2841 928 2578 
Q 928 2378 1081 2264 
Q 1234 2150 1697 2047 
L 1894 2003 
Q 2506 1872 2764 1633 
Q 3022 1394 3022 966 
Q 3022 478 2636 193 
Q 2250 -91 1575 -91 
Q 1294 -91 989 -36 
Q 684 19 347 128 
L 347 722 
Q 666 556 975 473 
Q 1284 391 1588 391 
Q 1994 391 2212 530 
Q 2431 669 2431 922 
Q 2431 1156 2273 1281 
Q 2116 1406 1581 1522 
L 1381 1569 
Q 847 1681 609 1914 
Q 372 2147 372 2553 
Q 372 3047 722 3315 
Q 1072 3584 1716 3584 
Q 2034 3584 2315 3537 
Q 2597 3491 2834 3397 
z
" transform="scale(0.015625)"/>
       <path id="DejaVuSans-6f" d="M 1959 3097 
Q 1497 3097 1228 2736 
Q 959 2375 959 1747 
Q 959 1119 1226 758 
Q 1494 397 1959 397 
Q 2419 397 2687 759 
Q 2956 1122 2956 1747 
Q 2956 2369 2687 2733 
Q 2419 3097 1959 3097 
z
M 1959 3584 
Q 2709 3584 3137 3096 
Q 3566 2609 3566 1747 
Q 3566 888 3137 398 
Q 2709 -91 1959 -91 
Q 1206 -91 779 398 
Q 353 888 353 1747 
Q 353 2609 779 3096 
Q 1206 3584 1959 3584 
z
" transform="scale(0.015625)"/>
      </defs>
      <use xlink:href="#DejaVuSans-50"/>
      <use xlink:href="#DejaVuSans-72" x="58.552734"/>
      <use xlink:href="#DejaVuSans-65" x="97.416016"/>
      <use xlink:href="#DejaVuSans-64" x="158.939453"/>
      <use xlink:href="#DejaVuSans-69" x="222.416016"/>
      <use xlink:href="#DejaVuSans-63" x="250.199219"/>
      <use xlink:href="#DejaVuSans-74" x="305.179688"/>
      <use xlink:href="#DejaVuSans-65" x="344.388672"/>
      <use xlink:href="#DejaVuSans-64" x="405.912109"/>
      <use xlink:href="#DejaVuSans-20" x="469.388672"/>
      <use xlink:href="#DejaVuSans-44" x="501.175781"/>
      <use xlink:href="#DejaVuSans-69" x="578.177734"/>
      <use xlink:href="#DejaVuSans-6d" x="605.960938"/>
      <use xlink:href="#DejaVuSans-65" x="703.373047"/>
      <use xlink:href="#DejaVuSans-6e" x="764.896484"/>
      <use xlink:href="#DejaVuSans-73" x="828.275391"/>
      <use xlink:href="#DejaVuSans-69" x="880.375"/>
      <use xlink:href="#DejaVuSans-6f" x="908.158203"/>
      <use xlink:href="#DejaVuSans-6e" x="969.339844"/>
     </g>
    </g>
   </g>
   <g id="matplotlib.axis_2">
    <g id="ytick_1">
     <g id="line2d_47">
      <defs>
       <path id="md43ec53aae" d="M 0 0 
L 3 0 
" style="stroke: #000000; stroke-width: 0.5"/>
      </defs>
      <g>
       <use xlink:href="#md43ec53aae" x="51.560625" y="219.3" style="stroke: #000000; stroke-width: 0.5"/>
      </g>
     </g>
     <g id="line2d_48">
      <defs>
       <path id="m5cd6d49efa" d="M 0 0 
L -3 0 
" style="stroke: #000000; stroke-width: 0.5"/>
      </defs>
      <g>
       <use xlink:href="#m5cd6d49efa" x="417.471046" y="219.3" style="stroke: #000000; stroke-width: 0.5"/>
      </g>
     </g>
     <g id="text_6">
      <!-- $\mathdefault{0}$ -->
      <g transform="translate(36.540625 226.138594) scale(0.18 -0.18)">
       <use xlink:href="#DejaVuSans-30" transform="translate(0 0.78125)"/>
      </g>
     </g>
    </g>
    <g id="ytick_2">
     <g id="line2d_49">
      <g>
       <use xlink:href="#md43ec53aae" x="51.560625" y="142.274224" style="stroke: #000000; stroke-width: 0.5"/>
      </g>
     </g>
     <g id="line2d_50">
      <g>
       <use xlink:href="#m5cd6d49efa" x="417.471046" y="142.274224" style="stroke: #000000; stroke-width: 0.5"/>
      </g>
     </g>
     <g id="text_7">
      <!-- $\mathdefault{5}$ -->
      <g transform="translate(36.540625 149.112818) scale(0.18 -0.18)">
       <use xlink:href="#DejaVuSans-35" transform="translate(0 0.09375)"/>
      </g>
     </g>
    </g>
    <g id="ytick_3">
     <g id="line2d_51">
      <g>
       <use xlink:href="#md43ec53aae" x="51.560625" y="65.248449" style="stroke: #000000; stroke-width: 0.5"/>
      </g>
     </g>
     <g id="line2d_52">
      <g>
       <use xlink:href="#m5cd6d49efa" x="417.471046" y="65.248449" style="stroke: #000000; stroke-width: 0.5"/>
      </g>
     </g>
     <g id="text_8">
      <!-- $\mathdefault{10}$ -->
      <g transform="translate(25.020625 72.087043) scale(0.18 -0.18)">
       <use xlink:href="#DejaVuSans-31" transform="translate(0 0.78125)"/>
       <use xlink:href="#DejaVuSans-30" transform="translate(63.623047 0.78125)"/>
      </g>
     </g>
    </g>
    <g id="ytick_4">
     <g id="line2d_53">
      <defs>
       <path id="m8b3c10829f" d="M 0 0 
L 1.5 0 
" style="stroke: #000000; stroke-width: 0.5"/>
      </defs>
      <g>
       <use xlink:href="#m8b3c10829f" x="51.560625" y="203.894845" style="stroke: #000000; stroke-width: 0.5"/>
      </g>
     </g>
     <g id="line2d_54">
      <defs>
       <path id="mce701dce51" d="M 0 0 
L -1.5 0 
" style="stroke: #000000; stroke-width: 0.5"/>
      </defs>
      <g>
       <use xlink:href="#mce701dce51" x="417.471046" y="203.894845" style="stroke: #000000; stroke-width: 0.5"/>
      </g>
     </g>
    </g>
    <g id="ytick_5">
     <g id="line2d_55">
      <g>
       <use xlink:href="#m8b3c10829f" x="51.560625" y="188.48969" style="stroke: #000000; stroke-width: 0.5"/>
      </g>
     </g>
     <g id="line2d_56">
      <g>
       <use xlink:href="#mce701dce51" x="417.471046" y="188.48969" style="stroke: #000000; stroke-width: 0.5"/>
      </g>
     </g>
    </g>
    <g id="ytick_6">
     <g id="line2d_57">
      <g>
       <use xlink:href="#m8b3c10829f" x="51.560625" y="173.084535" style="stroke: #000000; stroke-width: 0.5"/>
      </g>
     </g>
     <g id="line2d_58">
      <g>
       <use xlink:href="#mce701dce51" x="417.471046" y="173.084535" style="stroke: #000000; stroke-width: 0.5"/>
      </g>
     </g>
    </g>
    <g id="ytick_7">
     <g id="line2d_59">
      <g>
       <use xlink:href="#m8b3c10829f" x="51.560625" y="157.67938" style="stroke: #000000; stroke-width: 0.5"/>
      </g>
     </g>
     <g id="line2d_60">
      <g>
       <use xlink:href="#mce701dce51" x="417.471046" y="157.67938" style="stroke: #000000; stroke-width: 0.5"/>
      </g>
     </g>
    </g>
    <g id="ytick_8">
     <g id="line2d_61">
      <g>
       <use xlink:href="#m8b3c10829f" x="51.560625" y="126.869069" style="stroke: #000000; stroke-width: 0.5"/>
      </g>
     </g>
     <g id="line2d_62">
      <g>
       <use xlink:href="#mce701dce51" x="417.471046" y="126.869069" style="stroke: #000000; stroke-width: 0.5"/>
      </g>
     </g>
    </g>
    <g id="ytick_9">
     <g id="line2d_63">
      <g>
       <use xlink:href="#m8b3c10829f" x="51.560625" y="111.463914" style="stroke: #000000; stroke-width: 0.5"/>
      </g>
     </g>
     <g id="line2d_64">
      <g>
       <use xlink:href="#mce701dce51" x="417.471046" y="111.463914" style="stroke: #000000; stroke-width: 0.5"/>
      </g>
     </g>
    </g>
    <g id="ytick_10">
     <g id="line2d_65">
      <g>
       <use xlink:href="#m8b3c10829f" x="51.560625" y="96.058759" style="stroke: #000000; stroke-width: 0.5"/>
      </g>
     </g>
     <g id="line2d_66">
      <g>
       <use xlink:href="#mce701dce51" x="417.471046" y="96.058759" style="stroke: #000000; stroke-width: 0.5"/>
      </g>
     </g>
    </g>
    <g id="ytick_11">
     <g id="line2d_67">
      <g>
       <use xlink:href="#m8b3c10829f" x="51.560625" y="80.653604" style="stroke: #000000; stroke-width: 0.5"/>
      </g>
     </g>
     <g id="line2d_68">
      <g>
       <use xlink:href="#mce701dce51" x="417.471046" y="80.653604" style="stroke: #000000; stroke-width: 0.5"/>
      </g>
     </g>
    </g>
    <g id="ytick_12">
     <g id="line2d_69">
      <g>
       <use xlink:href="#m8b3c10829f" x="51.560625" y="49.843294" style="stroke: #000000; stroke-width: 0.5"/>
      </g>
     </g>
     <g id="line2d_70">
      <g>
       <use xlink:href="#mce701dce51" x="417.471046" y="49.843294" style="stroke: #000000; stroke-width: 0.5"/>
      </g>
     </g>
    </g>
    <g id="ytick_13">
     <g id="line2d_71">
      <g>
       <use xlink:href="#m8b3c10829f" x="51.560625" y="34.438139" style="stroke: #000000; stroke-width: 0.5"/>
      </g>
     </g>
     <g id="line2d_72">
      <g>
       <use xlink:href="#mce701dce51" x="417.471046" y="34.438139" style="stroke: #000000; stroke-width: 0.5"/>
      </g>
     </g>
    </g>
    <g id="ytick_14">
     <g id="line2d_73">
      <g>
       <use xlink:href="#m8b3c10829f" x="51.560625" y="19.032983" style="stroke: #000000; stroke-width: 0.5"/>
      </g>
     </g>
     <g id="line2d_74">
      <g>
       <use xlink:href="#mce701dce51" x="417.471046" y="19.032983" style="stroke: #000000; stroke-width: 0.5"/>
      </g>
     </g>
    </g>
    <g id="ytick_15">
     <g id="line2d_75">
      <g>
       <use xlink:href="#m8b3c10829f" x="51.560625" y="3.627828" style="stroke: #000000; stroke-width: 0.5"/>
      </g>
     </g>
     <g id="line2d_76">
      <g>
       <use xlink:href="#mce701dce51" x="417.471046" y="3.627828" style="stroke: #000000; stroke-width: 0.5"/>
      </g>
     </g>
    </g>
    <g id="text_9">
     <!-- Density -->
     <g transform="translate(17.277188 145.665469) rotate(-90) scale(0.18 -0.18)">
      <defs>
       <path id="DejaVuSans-79" d="M 2059 -325 
Q 1816 -950 1584 -1140 
Q 1353 -1331 966 -1331 
L 506 -1331 
L 506 -850 
L 844 -850 
Q 1081 -850 1212 -737 
Q 1344 -625 1503 -206 
L 1606 56 
L 191 3500 
L 800 3500 
L 1894 763 
L 2988 3500 
L 3597 3500 
L 2059 -325 
z
" transform="scale(0.015625)"/>
      </defs>
      <use xlink:href="#DejaVuSans-44"/>
      <use xlink:href="#DejaVuSans-65" x="77.001953"/>
      <use xlink:href="#DejaVuSans-6e" x="138.525391"/>
      <use xlink:href="#DejaVuSans-73" x="201.904297"/>
      <use xlink:href="#DejaVuSans-69" x="254.003906"/>
      <use xlink:href="#DejaVuSans-74" x="281.787109"/>
      <use xlink:href="#DejaVuSans-79" x="320.996094"/>
     </g>
    </g>
   </g>
   <g id="patch_3">
    <path d="M 51.560625 219.3 
L 51.560625 3.6 
" style="fill: none; stroke: #000000; stroke-width: 0.5; stroke-linejoin: miter; stroke-linecap: square"/>
   </g>
   <g id="patch_4">
    <path d="M 417.471046 219.3 
L 417.471046 3.6 
" style="fill: none; stroke: #000000; stroke-width: 0.5; stroke-linejoin: miter; stroke-linecap: square"/>
   </g>
   <g id="patch_5">
    <path d="M 51.560625 219.3 
L 417.471046 219.3 
" style="fill: none; stroke: #000000; stroke-width: 0.5; stroke-linejoin: miter; stroke-linecap: square"/>
   </g>
   <g id="patch_6">
    <path d="M 51.560625 3.6 
L 417.471046 3.6 
" style="fill: none; stroke: #000000; stroke-width: 0.5; stroke-linejoin: miter; stroke-linecap: square"/>
   </g>
   <g id="PathCollection_1">
    <defs>
     <path id="mf8c7604e4e" d="M 0 2.236068 
C 0.593012 2.236068 1.161816 2.000462 1.581139 1.581139 
C 2.000462 1.161816 2.236068 0.593012 2.236068 0 
C 2.236068 -0.593012 2.000462 -1.161816 1.581139 -1.581139 
C 1.161816 -2.000462 0.593012 -2.236068 0 -2.236068 
C -0.593012 -2.236068 -1.161816 -2.000462 -1.581139 -1.581139 
C -2.000462 -1.161816 -2.236068 -0.593012 -2.236068 0 
C -2.236068 0.593012 -2.000462 1.161816 -1.581139 1.581139 
C -1.161816 2.000462 -0.593012 2.236068 0 2.236068 
z
" style="stroke: #000000; stroke-opacity: 0.5"/>
    </defs>
    <g>
     <use xlink:href="#mf8c7604e4e" x="154.278744" y="219.3" style="fill: #1e90ff; fill-opacity: 0.5; stroke: #000000; stroke-opacity: 0.5"/>
     <use xlink:href="#mf8c7604e4e" x="326.235396" y="219.3" style="fill: #1e90ff; fill-opacity: 0.5; stroke: #000000; stroke-opacity: 0.5"/>
     <use xlink:href="#mf8c7604e4e" x="307.312136" y="219.3" style="fill: #1e90ff; fill-opacity: 0.5; stroke: #000000; stroke-opacity: 0.5"/>
     <use xlink:href="#mf8c7604e4e" x="321.002386" y="219.3" style="fill: #1e90ff; fill-opacity: 0.5; stroke: #000000; stroke-opacity: 0.5"/>
     <use xlink:href="#mf8c7604e4e" x="286.256853" y="219.3" style="fill: #1e90ff; fill-opacity: 0.5; stroke: #000000; stroke-opacity: 0.5"/>
     <use xlink:href="#mf8c7604e4e" x="135.416777" y="219.3" style="fill: #1e90ff; fill-opacity: 0.5; stroke: #000000; stroke-opacity: 0.5"/>
     <use xlink:href="#mf8c7604e4e" x="234.156696" y="219.3" style="fill: #1e90ff; fill-opacity: 0.5; stroke: #000000; stroke-opacity: 0.5"/>
     <use xlink:href="#mf8c7604e4e" x="333.614893" y="219.3" style="fill: #1e90ff; fill-opacity: 0.5; stroke: #000000; stroke-opacity: 0.5"/>
     <use xlink:href="#mf8c7604e4e" x="332.41169" y="219.3" style="fill: #1e90ff; fill-opacity: 0.5; stroke: #000000; stroke-opacity: 0.5"/>
     <use xlink:href="#mf8c7604e4e" x="277.986211" y="219.3" style="fill: #1e90ff; fill-opacity: 0.5; stroke: #000000; stroke-opacity: 0.5"/>
     <use xlink:href="#mf8c7604e4e" x="167.362264" y="219.3" style="fill: #1e90ff; fill-opacity: 0.5; stroke: #000000; stroke-opacity: 0.5"/>
     <use xlink:href="#mf8c7604e4e" x="305.116319" y="219.3" style="fill: #1e90ff; fill-opacity: 0.5; stroke: #000000; stroke-opacity: 0.5"/>
    </g>
   </g>
  </g>
  <g id="axes_2">
   <g id="patch_7">
    <path d="M 521.489438 219.3 
L 737.189438 219.3 
L 737.189438 3.6 
L 521.489438 3.6 
z
" style="fill: #ffffff"/>
   </g>
   <g id="PathCollection_2">
    <defs>
     <path id="md7006eb5bf" d="M 0 3 
C 0.795609 3 1.55874 2.683901 2.12132 2.12132 
C 2.683901 1.55874 3 0.795609 3 0 
C 3 -0.795609 2.683901 -1.55874 2.12132 -2.12132 
C 1.55874 -2.683901 0.795609 -3 0 -3 
C -0.795609 -3 -1.55874 -2.683901 -2.12132 -2.12132 
C -2.683901 -1.55874 -3 -0.795609 -3 0 
C -3 0.795609 -2.683901 1.55874 -2.12132 2.12132 
C -1.55874 2.683901 -0.795609 3 0 3 
z
" style="stroke: #009ade"/>
    </defs>
    <g clip-path="url(#p35facc6aaa)">
     <use xlink:href="#md7006eb5bf" x="531.293983" y="208.062664" style="fill: #009ade; stroke: #009ade"/>
     <use xlink:href="#md7006eb5bf" x="552.86672" y="187.574154" style="fill: #009ade; stroke: #009ade"/>
     <use xlink:href="#md7006eb5bf" x="569.599835" y="172.34704" style="fill: #009ade; stroke: #009ade"/>
     <use xlink:href="#md7006eb5bf" x="583.271785" y="158.848538" style="fill: #009ade; stroke: #009ade"/>
     <use xlink:href="#md7006eb5bf" x="594.831254" y="147.7459" style="fill: #009ade; stroke: #009ade"/>
     <use xlink:href="#md7006eb5bf" x="604.844522" y="136.119609" style="fill: #009ade; stroke: #009ade"/>
     <use xlink:href="#md7006eb5bf" x="613.67685" y="126.930633" style="fill: #009ade; stroke: #009ade"/>
     <use xlink:href="#md7006eb5bf" x="621.577637" y="118.391465" style="fill: #009ade; stroke: #009ade"/>
     <use xlink:href="#md7006eb5bf" x="628.724768" y="111.225852" style="fill: #009ade; stroke: #009ade"/>
     <use xlink:href="#md7006eb5bf" x="635.249587" y="104.697989" style="fill: #009ade; stroke: #009ade"/>
     <use xlink:href="#md7006eb5bf" x="641.251839" y="99.065413" style="fill: #009ade; stroke: #009ade"/>
     <use xlink:href="#md7006eb5bf" x="646.809056" y="93.78593" style="fill: #009ade; stroke: #009ade"/>
     <use xlink:href="#md7006eb5bf" x="651.982702" y="88.792787" style="fill: #009ade; stroke: #009ade"/>
     <use xlink:href="#md7006eb5bf" x="656.822324" y="83.822159" style="fill: #009ade; stroke: #009ade"/>
     <use xlink:href="#md7006eb5bf" x="661.36845" y="78.986717" style="fill: #009ade; stroke: #009ade"/>
     <use xlink:href="#md7006eb5bf" x="665.654652" y="75.046517" style="fill: #009ade; stroke: #009ade"/>
     <use xlink:href="#md7006eb5bf" x="669.709051" y="72.442066" style="fill: #009ade; stroke: #009ade"/>
     <use xlink:href="#md7006eb5bf" x="673.555438" y="70.985512" style="fill: #009ade; stroke: #009ade"/>
     <use xlink:href="#md7006eb5bf" x="677.214121" y="70.250061" style="fill: #009ade; stroke: #009ade"/>
     <use xlink:href="#md7006eb5bf" x="680.702569" y="70.119582" style="fill: #009ade; stroke: #009ade"/>
     <use xlink:href="#md7006eb5bf" x="684.035923" y="70.119582" style="fill: #009ade; stroke: #009ade"/>
     <use xlink:href="#md7006eb5bf" x="687.227389" y="70.119582" style="fill: #009ade; stroke: #009ade"/>
     <use xlink:href="#md7006eb5bf" x="690.288553" y="70.119582" style="fill: #009ade; stroke: #009ade"/>
     <use xlink:href="#md7006eb5bf" x="693.22964" y="70.119582" style="fill: #009ade; stroke: #009ade"/>
     <use xlink:href="#md7006eb5bf" x="696.059717" y="70.119582" style="fill: #009ade; stroke: #009ade"/>
     <use xlink:href="#md7006eb5bf" x="698.786858" y="70.119582" style="fill: #009ade; stroke: #009ade"/>
     <use xlink:href="#md7006eb5bf" x="701.41829" y="70.119582" style="fill: #009ade; stroke: #009ade"/>
     <use xlink:href="#md7006eb5bf" x="703.960503" y="70.119582" style="fill: #009ade; stroke: #009ade"/>
     <use xlink:href="#md7006eb5bf" x="706.41935" y="70.119582" style="fill: #009ade; stroke: #009ade"/>
     <use xlink:href="#md7006eb5bf" x="708.800125" y="70.119582" style="fill: #009ade; stroke: #009ade"/>
     <use xlink:href="#md7006eb5bf" x="711.107634" y="70.119582" style="fill: #009ade; stroke: #009ade"/>
     <use xlink:href="#md7006eb5bf" x="713.346252" y="70.119582" style="fill: #009ade; stroke: #009ade"/>
     <use xlink:href="#md7006eb5bf" x="715.519972" y="70.119582" style="fill: #009ade; stroke: #009ade"/>
     <use xlink:href="#md7006eb5bf" x="717.632453" y="70.119582" style="fill: #009ade; stroke: #009ade"/>
     <use xlink:href="#md7006eb5bf" x="719.687051" y="70.119582" style="fill: #009ade; stroke: #009ade"/>
     <use xlink:href="#md7006eb5bf" x="721.686853" y="70.119582" style="fill: #009ade; stroke: #009ade"/>
     <use xlink:href="#md7006eb5bf" x="723.634705" y="70.119582" style="fill: #009ade; stroke: #009ade"/>
     <use xlink:href="#md7006eb5bf" x="725.53324" y="70.119582" style="fill: #009ade; stroke: #009ade"/>
     <use xlink:href="#md7006eb5bf" x="727.384893" y="70.119582" style="fill: #009ade; stroke: #009ade"/>
    </g>
   </g>
   <g id="matplotlib.axis_3">
    <g id="xtick_24">
     <g id="line2d_77">
      <g>
       <use xlink:href="#mc3c19c38bd" x="523.899234" y="219.3" style="stroke: #000000; stroke-width: 0.5"/>
      </g>
     </g>
     <g id="line2d_78">
      <g>
       <use xlink:href="#m24975b7554" x="523.899234" y="3.6" style="stroke: #000000; stroke-width: 0.5"/>
      </g>
     </g>
     <g id="text_10">
      <!-- $\mathdefault{1}$ -->
      <g transform="translate(518.139234 236.477187) scale(0.18 -0.18)">
       <use xlink:href="#DejaVuSans-31" transform="translate(0 0.09375)"/>
      </g>
     </g>
    </g>
    <g id="xtick_25">
     <g id="line2d_79">
      <g>
       <use xlink:href="#mc3c19c38bd" x="598.88735" y="219.3" style="stroke: #000000; stroke-width: 0.5"/>
      </g>
     </g>
     <g id="line2d_80">
      <g>
       <use xlink:href="#m24975b7554" x="598.88735" y="3.6" style="stroke: #000000; stroke-width: 0.5"/>
      </g>
     </g>
     <g id="text_11">
      <!-- $\mathdefault{2}$ -->
      <g transform="translate(593.12735 236.477187) scale(0.18 -0.18)">
       <use xlink:href="#DejaVuSans-32" transform="translate(0 0.78125)"/>
      </g>
     </g>
    </g>
    <g id="xtick_26">
     <g id="line2d_81">
      <g>
       <use xlink:href="#mc3c19c38bd" x="673.875467" y="219.3" style="stroke: #000000; stroke-width: 0.5"/>
      </g>
     </g>
     <g id="line2d_82">
      <g>
       <use xlink:href="#m24975b7554" x="673.875467" y="3.6" style="stroke: #000000; stroke-width: 0.5"/>
      </g>
     </g>
     <g id="text_12">
      <!-- $\mathdefault{3}$ -->
      <g transform="translate(668.115467 236.477187) scale(0.18 -0.18)">
       <defs>
        <path id="DejaVuSans-33" d="M 2597 2516 
Q 3050 2419 3304 2112 
Q 3559 1806 3559 1356 
Q 3559 666 3084 287 
Q 2609 -91 1734 -91 
Q 1441 -91 1130 -33 
Q 819 25 488 141 
L 488 750 
Q 750 597 1062 519 
Q 1375 441 1716 441 
Q 2309 441 2620 675 
Q 2931 909 2931 1356 
Q 2931 1769 2642 2001 
Q 2353 2234 1838 2234 
L 1294 2234 
L 1294 2753 
L 1863 2753 
Q 2328 2753 2575 2939 
Q 2822 3125 2822 3475 
Q 2822 3834 2567 4026 
Q 2313 4219 1838 4219 
Q 1578 4219 1281 4162 
Q 984 4106 628 3988 
L 628 4550 
Q 988 4650 1302 4700 
Q 1616 4750 1894 4750 
Q 2613 4750 3031 4423 
Q 3450 4097 3450 3541 
Q 3450 3153 3228 2886 
Q 3006 2619 2597 2516 
z
" transform="scale(0.015625)"/>
       </defs>
       <use xlink:href="#DejaVuSans-33" transform="translate(0 0.78125)"/>
      </g>
     </g>
    </g>
    <g id="xtick_27">
     <g id="line2d_83">
      <g>
       <use xlink:href="#mef42494d3e" x="538.896857" y="219.3" style="stroke: #000000; stroke-width: 0.5"/>
      </g>
     </g>
     <g id="line2d_84">
      <g>
       <use xlink:href="#m82895e5bad" x="538.896857" y="3.6" style="stroke: #000000; stroke-width: 0.5"/>
      </g>
     </g>
    </g>
    <g id="xtick_28">
     <g id="line2d_85">
      <g>
       <use xlink:href="#mef42494d3e" x="553.89448" y="219.3" style="stroke: #000000; stroke-width: 0.5"/>
      </g>
     </g>
     <g id="line2d_86">
      <g>
       <use xlink:href="#m82895e5bad" x="553.89448" y="3.6" style="stroke: #000000; stroke-width: 0.5"/>
      </g>
     </g>
    </g>
    <g id="xtick_29">
     <g id="line2d_87">
      <g>
       <use xlink:href="#mef42494d3e" x="568.892104" y="219.3" style="stroke: #000000; stroke-width: 0.5"/>
      </g>
     </g>
     <g id="line2d_88">
      <g>
       <use xlink:href="#m82895e5bad" x="568.892104" y="3.6" style="stroke: #000000; stroke-width: 0.5"/>
      </g>
     </g>
    </g>
    <g id="xtick_30">
     <g id="line2d_89">
      <g>
       <use xlink:href="#mef42494d3e" x="583.889727" y="219.3" style="stroke: #000000; stroke-width: 0.5"/>
      </g>
     </g>
     <g id="line2d_90">
      <g>
       <use xlink:href="#m82895e5bad" x="583.889727" y="3.6" style="stroke: #000000; stroke-width: 0.5"/>
      </g>
     </g>
    </g>
    <g id="xtick_31">
     <g id="line2d_91">
      <g>
       <use xlink:href="#mef42494d3e" x="613.884974" y="219.3" style="stroke: #000000; stroke-width: 0.5"/>
      </g>
     </g>
     <g id="line2d_92">
      <g>
       <use xlink:href="#m82895e5bad" x="613.884974" y="3.6" style="stroke: #000000; stroke-width: 0.5"/>
      </g>
     </g>
    </g>
    <g id="xtick_32">
     <g id="line2d_93">
      <g>
       <use xlink:href="#mef42494d3e" x="628.882597" y="219.3" style="stroke: #000000; stroke-width: 0.5"/>
      </g>
     </g>
     <g id="line2d_94">
      <g>
       <use xlink:href="#m82895e5bad" x="628.882597" y="3.6" style="stroke: #000000; stroke-width: 0.5"/>
      </g>
     </g>
    </g>
    <g id="xtick_33">
     <g id="line2d_95">
      <g>
       <use xlink:href="#mef42494d3e" x="643.88022" y="219.3" style="stroke: #000000; stroke-width: 0.5"/>
      </g>
     </g>
     <g id="line2d_96">
      <g>
       <use xlink:href="#m82895e5bad" x="643.88022" y="3.6" style="stroke: #000000; stroke-width: 0.5"/>
      </g>
     </g>
    </g>
    <g id="xtick_34">
     <g id="line2d_97">
      <g>
       <use xlink:href="#mef42494d3e" x="658.877844" y="219.3" style="stroke: #000000; stroke-width: 0.5"/>
      </g>
     </g>
     <g id="line2d_98">
      <g>
       <use xlink:href="#m82895e5bad" x="658.877844" y="3.6" style="stroke: #000000; stroke-width: 0.5"/>
      </g>
     </g>
    </g>
    <g id="xtick_35">
     <g id="line2d_99">
      <g>
       <use xlink:href="#mef42494d3e" x="688.87309" y="219.3" style="stroke: #000000; stroke-width: 0.5"/>
      </g>
     </g>
     <g id="line2d_100">
      <g>
       <use xlink:href="#m82895e5bad" x="688.87309" y="3.6" style="stroke: #000000; stroke-width: 0.5"/>
      </g>
     </g>
    </g>
    <g id="xtick_36">
     <g id="line2d_101">
      <g>
       <use xlink:href="#mef42494d3e" x="703.870714" y="219.3" style="stroke: #000000; stroke-width: 0.5"/>
      </g>
     </g>
     <g id="line2d_102">
      <g>
       <use xlink:href="#m82895e5bad" x="703.870714" y="3.6" style="stroke: #000000; stroke-width: 0.5"/>
      </g>
     </g>
    </g>
    <g id="xtick_37">
     <g id="line2d_103">
      <g>
       <use xlink:href="#mef42494d3e" x="718.868337" y="219.3" style="stroke: #000000; stroke-width: 0.5"/>
      </g>
     </g>
     <g id="line2d_104">
      <g>
       <use xlink:href="#m82895e5bad" x="718.868337" y="3.6" style="stroke: #000000; stroke-width: 0.5"/>
      </g>
     </g>
    </g>
    <g id="xtick_38">
     <g id="line2d_105">
      <g>
       <use xlink:href="#mef42494d3e" x="733.865961" y="219.3" style="stroke: #000000; stroke-width: 0.5"/>
      </g>
     </g>
     <g id="line2d_106">
      <g>
       <use xlink:href="#m82895e5bad" x="733.865961" y="3.6" style="stroke: #000000; stroke-width: 0.5"/>
      </g>
     </g>
    </g>
    <g id="text_13">
     <!-- $\log(r)$ -->
     <g transform="translate(604.859438 257.900625) scale(0.18 -0.18)">
      <defs>
       <path id="DejaVuSans-6c" d="M 603 4863 
L 1178 4863 
L 1178 0 
L 603 0 
L 603 4863 
z
" transform="scale(0.015625)"/>
       <path id="DejaVuSans-67" d="M 2906 1791 
Q 2906 2416 2648 2759 
Q 2391 3103 1925 3103 
Q 1463 3103 1205 2759 
Q 947 2416 947 1791 
Q 947 1169 1205 825 
Q 1463 481 1925 481 
Q 2391 481 2648 825 
Q 2906 1169 2906 1791 
z
M 3481 434 
Q 3481 -459 3084 -895 
Q 2688 -1331 1869 -1331 
Q 1566 -1331 1297 -1286 
Q 1028 -1241 775 -1147 
L 775 -588 
Q 1028 -725 1275 -790 
Q 1522 -856 1778 -856 
Q 2344 -856 2625 -561 
Q 2906 -266 2906 331 
L 2906 616 
Q 2728 306 2450 153 
Q 2172 0 1784 0 
Q 1141 0 747 490 
Q 353 981 353 1791 
Q 353 2603 747 3093 
Q 1141 3584 1784 3584 
Q 2172 3584 2450 3431 
Q 2728 3278 2906 2969 
L 2906 3500 
L 3481 3500 
L 3481 434 
z
" transform="scale(0.015625)"/>
       <path id="DejaVuSans-28" d="M 1984 4856 
Q 1566 4138 1362 3434 
Q 1159 2731 1159 2009 
Q 1159 1288 1364 580 
Q 1569 -128 1984 -844 
L 1484 -844 
Q 1016 -109 783 600 
Q 550 1309 550 2009 
Q 550 2706 781 3412 
Q 1013 4119 1484 4856 
L 1984 4856 
z
" transform="scale(0.015625)"/>
       <path id="DejaVuSans-Oblique-72" d="M 2853 2969 
Q 2766 3016 2653 3041 
Q 2541 3066 2413 3066 
Q 1953 3066 1609 2717 
Q 1266 2369 1153 1784 
L 800 0 
L 225 0 
L 909 3500 
L 1484 3500 
L 1375 2956 
Q 1603 3259 1920 3421 
Q 2238 3584 2597 3584 
Q 2691 3584 2781 3573 
Q 2872 3563 2963 3538 
L 2853 2969 
z
" transform="scale(0.015625)"/>
       <path id="DejaVuSans-29" d="M 513 4856 
L 1013 4856 
Q 1481 4119 1714 3412 
Q 1947 2706 1947 2009 
Q 1947 1309 1714 600 
Q 1481 -109 1013 -844 
L 513 -844 
Q 928 -128 1133 580 
Q 1338 1288 1338 2009 
Q 1338 2731 1133 3434 
Q 928 4138 513 4856 
z
" transform="scale(0.015625)"/>
      </defs>
      <use xlink:href="#DejaVuSans-6c" transform="translate(0 0.015625)"/>
      <use xlink:href="#DejaVuSans-6f" transform="translate(27.783203 0.015625)"/>
      <use xlink:href="#DejaVuSans-67" transform="translate(88.964844 0.015625)"/>
      <use xlink:href="#DejaVuSans-28" transform="translate(152.441406 0.015625)"/>
      <use xlink:href="#DejaVuSans-Oblique-72" transform="translate(191.455078 0.015625)"/>
      <use xlink:href="#DejaVuSans-29" transform="translate(232.568359 0.015625)"/>
     </g>
    </g>
   </g>
   <g id="matplotlib.axis_4">
    <g id="ytick_16">
     <g id="line2d_107">
      <g>
       <use xlink:href="#md43ec53aae" x="521.489438" y="204.038851" style="stroke: #000000; stroke-width: 0.5"/>
      </g>
     </g>
     <g id="line2d_108">
      <g>
       <use xlink:href="#m5cd6d49efa" x="737.189438" y="204.038851" style="stroke: #000000; stroke-width: 0.5"/>
      </g>
     </g>
     <g id="text_14">
      <!-- $\mathdefault{4}$ -->
      <g transform="translate(506.469438 210.877445) scale(0.18 -0.18)">
       <defs>
        <path id="DejaVuSans-34" d="M 2419 4116 
L 825 1625 
L 2419 1625 
L 2419 4116 
z
M 2253 4666 
L 3047 4666 
L 3047 1625 
L 3713 1625 
L 3713 1100 
L 3047 1100 
L 3047 0 
L 2419 0 
L 2419 1100 
L 313 1100 
L 313 1709 
L 2253 4666 
z
" transform="scale(0.015625)"/>
       </defs>
       <use xlink:href="#DejaVuSans-34" transform="translate(0 0.09375)"/>
      </g>
     </g>
    </g>
    <g id="ytick_17">
     <g id="line2d_109">
      <g>
       <use xlink:href="#md43ec53aae" x="521.489438" y="129.647571" style="stroke: #000000; stroke-width: 0.5"/>
      </g>
     </g>
     <g id="line2d_110">
      <g>
       <use xlink:href="#m5cd6d49efa" x="737.189438" y="129.647571" style="stroke: #000000; stroke-width: 0.5"/>
      </g>
     </g>
     <g id="text_15">
      <!-- $\mathdefault{6}$ -->
      <g transform="translate(506.469438 136.486165) scale(0.18 -0.18)">
       <defs>
        <path id="DejaVuSans-36" d="M 2113 2584 
Q 1688 2584 1439 2293 
Q 1191 2003 1191 1497 
Q 1191 994 1439 701 
Q 1688 409 2113 409 
Q 2538 409 2786 701 
Q 3034 994 3034 1497 
Q 3034 2003 2786 2293 
Q 2538 2584 2113 2584 
z
M 3366 4563 
L 3366 3988 
Q 3128 4100 2886 4159 
Q 2644 4219 2406 4219 
Q 1781 4219 1451 3797 
Q 1122 3375 1075 2522 
Q 1259 2794 1537 2939 
Q 1816 3084 2150 3084 
Q 2853 3084 3261 2657 
Q 3669 2231 3669 1497 
Q 3669 778 3244 343 
Q 2819 -91 2113 -91 
Q 1303 -91 875 529 
Q 447 1150 447 2328 
Q 447 3434 972 4092 
Q 1497 4750 2381 4750 
Q 2619 4750 2861 4703 
Q 3103 4656 3366 4563 
z
" transform="scale(0.015625)"/>
       </defs>
       <use xlink:href="#DejaVuSans-36" transform="translate(0 0.78125)"/>
      </g>
     </g>
    </g>
    <g id="ytick_18">
     <g id="line2d_111">
      <g>
       <use xlink:href="#md43ec53aae" x="521.489438" y="55.256291" style="stroke: #000000; stroke-width: 0.5"/>
      </g>
     </g>
     <g id="line2d_112">
      <g>
       <use xlink:href="#m5cd6d49efa" x="737.189438" y="55.256291" style="stroke: #000000; stroke-width: 0.5"/>
      </g>
     </g>
     <g id="text_16">
      <!-- $\mathdefault{8}$ -->
      <g transform="translate(506.469438 62.094885) scale(0.18 -0.18)">
       <defs>
        <path id="DejaVuSans-38" d="M 2034 2216 
Q 1584 2216 1326 1975 
Q 1069 1734 1069 1313 
Q 1069 891 1326 650 
Q 1584 409 2034 409 
Q 2484 409 2743 651 
Q 3003 894 3003 1313 
Q 3003 1734 2745 1975 
Q 2488 2216 2034 2216 
z
M 1403 2484 
Q 997 2584 770 2862 
Q 544 3141 544 3541 
Q 544 4100 942 4425 
Q 1341 4750 2034 4750 
Q 2731 4750 3128 4425 
Q 3525 4100 3525 3541 
Q 3525 3141 3298 2862 
Q 3072 2584 2669 2484 
Q 3125 2378 3379 2068 
Q 3634 1759 3634 1313 
Q 3634 634 3220 271 
Q 2806 -91 2034 -91 
Q 1263 -91 848 271 
Q 434 634 434 1313 
Q 434 1759 690 2068 
Q 947 2378 1403 2484 
z
M 1172 3481 
Q 1172 3119 1398 2916 
Q 1625 2713 2034 2713 
Q 2441 2713 2670 2916 
Q 2900 3119 2900 3481 
Q 2900 3844 2670 4047 
Q 2441 4250 2034 4250 
Q 1625 4250 1398 4047 
Q 1172 3844 1172 3481 
z
" transform="scale(0.015625)"/>
       </defs>
       <use xlink:href="#DejaVuSans-38" transform="translate(0 0.78125)"/>
      </g>
     </g>
    </g>
    <g id="ytick_19">
     <g id="line2d_113">
      <g>
       <use xlink:href="#m8b3c10829f" x="521.489438" y="185.441031" style="stroke: #000000; stroke-width: 0.5"/>
      </g>
     </g>
     <g id="line2d_114">
      <g>
       <use xlink:href="#mce701dce51" x="737.189438" y="185.441031" style="stroke: #000000; stroke-width: 0.5"/>
      </g>
     </g>
    </g>
    <g id="ytick_20">
     <g id="line2d_115">
      <g>
       <use xlink:href="#m8b3c10829f" x="521.489438" y="166.843211" style="stroke: #000000; stroke-width: 0.5"/>
      </g>
     </g>
     <g id="line2d_116">
      <g>
       <use xlink:href="#mce701dce51" x="737.189438" y="166.843211" style="stroke: #000000; stroke-width: 0.5"/>
      </g>
     </g>
    </g>
    <g id="ytick_21">
     <g id="line2d_117">
      <g>
       <use xlink:href="#m8b3c10829f" x="521.489438" y="148.245391" style="stroke: #000000; stroke-width: 0.5"/>
      </g>
     </g>
     <g id="line2d_118">
      <g>
       <use xlink:href="#mce701dce51" x="737.189438" y="148.245391" style="stroke: #000000; stroke-width: 0.5"/>
      </g>
     </g>
    </g>
    <g id="ytick_22">
     <g id="line2d_119">
      <g>
       <use xlink:href="#m8b3c10829f" x="521.489438" y="111.049751" style="stroke: #000000; stroke-width: 0.5"/>
      </g>
     </g>
     <g id="line2d_120">
      <g>
       <use xlink:href="#mce701dce51" x="737.189438" y="111.049751" style="stroke: #000000; stroke-width: 0.5"/>
      </g>
     </g>
    </g>
    <g id="ytick_23">
     <g id="line2d_121">
      <g>
       <use xlink:href="#m8b3c10829f" x="521.489438" y="92.451931" style="stroke: #000000; stroke-width: 0.5"/>
      </g>
     </g>
     <g id="line2d_122">
      <g>
       <use xlink:href="#mce701dce51" x="737.189438" y="92.451931" style="stroke: #000000; stroke-width: 0.5"/>
      </g>
     </g>
    </g>
    <g id="ytick_24">
     <g id="line2d_123">
      <g>
       <use xlink:href="#m8b3c10829f" x="521.489438" y="73.854111" style="stroke: #000000; stroke-width: 0.5"/>
      </g>
     </g>
     <g id="line2d_124">
      <g>
       <use xlink:href="#mce701dce51" x="737.189438" y="73.854111" style="stroke: #000000; stroke-width: 0.5"/>
      </g>
     </g>
    </g>
    <g id="ytick_25">
     <g id="line2d_125">
      <g>
       <use xlink:href="#m8b3c10829f" x="521.489438" y="36.658472" style="stroke: #000000; stroke-width: 0.5"/>
      </g>
     </g>
     <g id="line2d_126">
      <g>
       <use xlink:href="#mce701dce51" x="737.189438" y="36.658472" style="stroke: #000000; stroke-width: 0.5"/>
      </g>
     </g>
    </g>
    <g id="ytick_26">
     <g id="line2d_127">
      <g>
       <use xlink:href="#m8b3c10829f" x="521.489438" y="18.060652" style="stroke: #000000; stroke-width: 0.5"/>
      </g>
     </g>
     <g id="line2d_128">
      <g>
       <use xlink:href="#mce701dce51" x="737.189438" y="18.060652" style="stroke: #000000; stroke-width: 0.5"/>
      </g>
     </g>
    </g>
    <g id="text_17">
     <!-- $\log(N_v)$ -->
     <g transform="translate(498.689438 142.95) rotate(-90) scale(0.18 -0.18)">
      <defs>
       <path id="DejaVuSans-Oblique-4e" d="M 1081 4666 
L 1931 4666 
L 3219 666 
L 4000 4666 
L 4616 4666 
L 3706 0 
L 2853 0 
L 1569 4025 
L 788 0 
L 172 0 
L 1081 4666 
z
" transform="scale(0.015625)"/>
       <path id="DejaVuSans-Oblique-76" d="M 459 3500 
L 1069 3500 
L 1581 525 
L 3256 3500 
L 3866 3500 
L 1875 0 
L 1100 0 
L 459 3500 
z
" transform="scale(0.015625)"/>
      </defs>
      <use xlink:href="#DejaVuSans-6c" transform="translate(0 0.015625)"/>
      <use xlink:href="#DejaVuSans-6f" transform="translate(27.783203 0.015625)"/>
      <use xlink:href="#DejaVuSans-67" transform="translate(88.964844 0.015625)"/>
      <use xlink:href="#DejaVuSans-28" transform="translate(152.441406 0.015625)"/>
      <use xlink:href="#DejaVuSans-Oblique-4e" transform="translate(191.455078 0.015625)"/>
      <use xlink:href="#DejaVuSans-Oblique-76" transform="translate(266.259766 -16.390625) scale(0.7)"/>
      <use xlink:href="#DejaVuSans-29" transform="translate(310.419922 0.015625)"/>
     </g>
    </g>
   </g>
   <g id="line2d_129">
    <path d="M 531.293983 209.495455 
L 552.86672 187.922718 
L 569.599835 171.189603 
L 583.271785 157.517653 
L 594.831254 145.958184 
L 604.844522 135.944916 
L 613.67685 127.112588 
L 621.577637 119.211801 
L 628.724768 112.06467 
L 635.249587 105.539851 
L 641.251839 99.537599 
L 646.809056 93.980382 
L 651.982702 88.806736 
L 656.822324 83.967114 
L 661.36845 79.420988 
L 665.654652 75.134786 
L 669.709051 71.080387 
L 673.555438 67.234 
L 677.214121 63.575317 
L 680.702569 60.086869 
L 684.035923 56.753515 
L 687.227389 53.562049 
L 690.288553 50.500885 
L 693.22964 47.559798 
L 696.059717 44.729721 
L 698.786858 42.00258 
L 701.41829 39.371148 
L 703.960503 36.828935 
L 706.41935 34.370088 
L 708.800125 31.989313 
L 711.107634 29.681804 
L 713.346252 27.443186 
L 715.519972 25.269466 
L 717.632453 23.156985 
L 719.687051 21.102387 
L 721.686853 19.102586 
L 723.634705 17.154733 
L 725.53324 15.256198 
L 727.384893 13.404545 
" clip-path="url(#p35facc6aaa)" style="fill: none; stroke-dasharray: 7.4,3.2; stroke-dashoffset: 0; stroke: #ff0000; stroke-width: 2"/>
   </g>
   <g id="patch_8">
    <path d="M 521.489438 219.3 
L 521.489438 3.6 
" style="fill: none; stroke: #000000; stroke-width: 0.5; stroke-linejoin: miter; stroke-linecap: square"/>
   </g>
   <g id="patch_9">
    <path d="M 737.189438 219.3 
L 737.189438 3.6 
" style="fill: none; stroke: #000000; stroke-width: 0.5; stroke-linejoin: miter; stroke-linecap: square"/>
   </g>
   <g id="patch_10">
    <path d="M 521.489438 219.3 
L 737.189438 219.3 
" style="fill: none; stroke: #000000; stroke-width: 0.5; stroke-linejoin: miter; stroke-linecap: square"/>
   </g>
   <g id="patch_11">
    <path d="M 521.489438 3.6 
L 737.189438 3.6 
" style="fill: none; stroke: #000000; stroke-width: 0.5; stroke-linejoin: miter; stroke-linecap: square"/>
   </g>
   <g id="legend_1">
    <g id="line2d_130">
     <path d="M 535.889438 24.5575 
L 551.889438 24.5575 
L 567.889438 24.5575 
" style="fill: none; stroke-dasharray: 7.4,3.2; stroke-dashoffset: 0; stroke: #ff0000; stroke-width: 2"/>
    </g>
    <g id="text_18">
     <!-- Fit: dim=2.02 -->
     <g transform="translate(580.689438 30.1575) scale(0.16 -0.16)">
      <defs>
       <path id="DejaVuSans-46" d="M 628 4666 
L 3309 4666 
L 3309 4134 
L 1259 4134 
L 1259 2759 
L 3109 2759 
L 3109 2228 
L 1259 2228 
L 1259 0 
L 628 0 
L 628 4666 
z
" transform="scale(0.015625)"/>
       <path id="DejaVuSans-3a" d="M 750 794 
L 1409 794 
L 1409 0 
L 750 0 
L 750 794 
z
M 750 3309 
L 1409 3309 
L 1409 2516 
L 750 2516 
L 750 3309 
z
" transform="scale(0.015625)"/>
       <path id="DejaVuSans-3d" d="M 678 2906 
L 4684 2906 
L 4684 2381 
L 678 2381 
L 678 2906 
z
M 678 1631 
L 4684 1631 
L 4684 1100 
L 678 1100 
L 678 1631 
z
" transform="scale(0.015625)"/>
      </defs>
      <use xlink:href="#DejaVuSans-46"/>
      <use xlink:href="#DejaVuSans-69" x="50.269531"/>
      <use xlink:href="#DejaVuSans-74" x="78.052734"/>
      <use xlink:href="#DejaVuSans-3a" x="117.261719"/>
      <use xlink:href="#DejaVuSans-20" x="150.953125"/>
      <use xlink:href="#DejaVuSans-64" x="182.740234"/>
      <use xlink:href="#DejaVuSans-69" x="246.216797"/>
      <use xlink:href="#DejaVuSans-6d" x="274"/>
      <use xlink:href="#DejaVuSans-3d" x="371.412109"/>
      <use xlink:href="#DejaVuSans-32" x="455.201172"/>
      <use xlink:href="#DejaVuSans-2e" x="518.824219"/>
      <use xlink:href="#DejaVuSans-30" x="550.611328"/>
      <use xlink:href="#DejaVuSans-32" x="614.234375"/>
     </g>
    </g>
   </g>
  </g>
 </g>
 <defs>
  <clipPath id="p4fae4d623c">
   <rect x="51.560625" y="3.6" width="365.910421" height="215.7"/>
  </clipPath>
  <clipPath id="p35facc6aaa">
   <rect x="521.489438" y="3.6" width="215.7" height="215.7"/>
  </clipPath>
 </defs>
</svg>
