<?xml version="1.0" encoding="utf-8" standalone="no"?>
<!DOCTYPE svg PUBLIC "-//W3C//DTD SVG 1.1//EN"
  "http://www.w3.org/Graphics/SVG/1.1/DTD/svg11.dtd">
<svg xmlns:xlink="http://www.w3.org/1999/xlink" width="757.952836pt" height="265.280625pt" viewBox="0 0 757.952836 265.280625" xmlns="http://www.w3.org/2000/svg" version="1.1">
 <metadata>
  <rdf:RDF xmlns:dc="http://purl.org/dc/elements/1.1/" xmlns:cc="http://creativecommons.org/ns#" xmlns:rdf="http://www.w3.org/1999/02/22-rdf-syntax-ns#">
   <cc:Work>
    <dc:type rdf:resource="http://purl.org/dc/dcmitype/StillImage"/>
    <dc:date>2024-08-20T14:52:24.945617</dc:date>
    <dc:format>image/svg+xml</dc:format>
    <dc:creator>
     <cc:Agent>
      <dc:title>Matplotlib v3.8.0, https://matplotlib.org/</dc:title>
     </cc:Agent>
    </dc:creator>
   </cc:Work>
  </rdf:RDF>
 </metadata>
 <defs>
  <style type="text/css">*{stroke-linejoin: round; stroke-linecap: butt}</style>
 </defs>
 <g id="figure_1">
  <g id="patch_1">
   <path d="M -0 265.280625 
L 757.952836 265.280625 
L 757.952836 0 
L -0 0 
z
" style="fill: #ffffff"/>
  </g>
  <g id="axes_1">
   <g id="patch_2">
    <path d="M 57.320625 219.3 
L 423.328546 219.3 
L 423.328546 3.6 
L 57.320625 3.6 
z
" style="fill: #ffffff"/>
   </g>
   <g id="PolyCollection_1">
    <defs>
     <path id="med88c7e2c6" d="M 73.957349 -46.500146 
L 73.957349 -45.980625 
L 75.629381 -45.980625 
L 77.301414 -45.980625 
L 78.973446 -45.980625 
L 80.645479 -45.980625 
L 82.317511 -45.980625 
L 83.989544 -45.980625 
L 85.661576 -45.980625 
L 87.333609 -45.980625 
L 89.005641 -45.980625 
L 90.677674 -45.980625 
L 92.349707 -45.980625 
L 94.021739 -45.980625 
L 95.693772 -45.980625 
L 97.365804 -45.980625 
L 99.037837 -45.980625 
L 100.709869 -45.980625 
L 102.381902 -45.980625 
L 104.053934 -45.980625 
L 105.725967 -45.980625 
L 107.397999 -45.980625 
L 109.070032 -45.980625 
L 110.742064 -45.980625 
L 112.414097 -45.980625 
L 114.086129 -45.980625 
L 115.758162 -45.980625 
L 117.430194 -45.980625 
L 119.102227 -45.980625 
L 120.77426 -45.980625 
L 122.446292 -45.980625 
L 124.118325 -45.980625 
L 125.790357 -45.980625 
L 127.46239 -45.980625 
L 129.134422 -45.980625 
L 130.806455 -45.980625 
L 132.478487 -45.980625 
L 134.15052 -45.980625 
L 135.822552 -45.980625 
L 137.494585 -45.980625 
L 139.166617 -45.980625 
L 140.83865 -45.980625 
L 142.510682 -45.980625 
L 144.182715 -45.980625 
L 145.854747 -45.980625 
L 147.52678 -45.980625 
L 149.198813 -45.980625 
L 150.870845 -45.980625 
L 152.542878 -45.980625 
L 154.21491 -45.980625 
L 155.886943 -45.980625 
L 157.558975 -45.980625 
L 159.231008 -45.980625 
L 160.90304 -45.980625 
L 162.575073 -45.980625 
L 164.247105 -45.980625 
L 165.919138 -45.980625 
L 167.59117 -45.980625 
L 169.263203 -45.980625 
L 170.935235 -45.980625 
L 172.607268 -45.980625 
L 174.2793 -45.980625 
L 175.951333 -45.980625 
L 177.623366 -45.980625 
L 179.295398 -45.980625 
L 180.967431 -45.980625 
L 182.639463 -45.980625 
L 184.311496 -45.980625 
L 185.983528 -45.980625 
L 187.655561 -45.980625 
L 189.327593 -45.980625 
L 190.999626 -45.980625 
L 192.671658 -45.980625 
L 194.343691 -45.980625 
L 196.015723 -45.980625 
L 197.687756 -45.980625 
L 199.359788 -45.980625 
L 201.031821 -45.980625 
L 202.703853 -45.980625 
L 204.375886 -45.980625 
L 206.047919 -45.980625 
L 207.719951 -45.980625 
L 209.391984 -45.980625 
L 211.064016 -45.980625 
L 212.736049 -45.980625 
L 214.408081 -45.980625 
L 216.080114 -45.980625 
L 217.752146 -45.980625 
L 219.424179 -45.980625 
L 221.096211 -45.980625 
L 222.768244 -45.980625 
L 224.440276 -45.980625 
L 226.112309 -45.980625 
L 227.784341 -45.980625 
L 229.456374 -45.980625 
L 231.128406 -45.980625 
L 232.800439 -45.980625 
L 234.472472 -45.980625 
L 236.144504 -45.980625 
L 237.816537 -45.980625 
L 239.488569 -45.980625 
L 241.160602 -45.980625 
L 242.832634 -45.980625 
L 244.504667 -45.980625 
L 246.176699 -45.980625 
L 247.848732 -45.980625 
L 249.520764 -45.980625 
L 251.192797 -45.980625 
L 252.864829 -45.980625 
L 254.536862 -45.980625 
L 256.208894 -45.980625 
L 257.880927 -45.980625 
L 259.552959 -45.980625 
L 261.224992 -45.980625 
L 262.897025 -45.980625 
L 264.569057 -45.980625 
L 266.24109 -45.980625 
L 267.913122 -45.980625 
L 269.585155 -45.980625 
L 271.257187 -45.980625 
L 272.92922 -45.980625 
L 274.601252 -45.980625 
L 276.273285 -45.980625 
L 277.945317 -45.980625 
L 279.61735 -45.980625 
L 281.289382 -45.980625 
L 282.961415 -45.980625 
L 284.633447 -45.980625 
L 286.30548 -45.980625 
L 287.977513 -45.980625 
L 289.649545 -45.980625 
L 291.321578 -45.980625 
L 292.99361 -45.980625 
L 294.665643 -45.980625 
L 296.337675 -45.980625 
L 298.009708 -45.980625 
L 299.68174 -45.980625 
L 301.353773 -45.980625 
L 303.025805 -45.980625 
L 304.697838 -45.980625 
L 306.36987 -45.980625 
L 308.041903 -45.980625 
L 309.713935 -45.980625 
L 311.385968 -45.980625 
L 313.058 -45.980625 
L 314.730033 -45.980625 
L 316.402066 -45.980625 
L 318.074098 -45.980625 
L 319.746131 -45.980625 
L 321.418163 -45.980625 
L 323.090196 -45.980625 
L 324.762228 -45.980625 
L 326.434261 -45.980625 
L 328.106293 -45.980625 
L 329.778326 -45.980625 
L 331.450358 -45.980625 
L 333.122391 -45.980625 
L 334.794423 -45.980625 
L 336.466456 -45.980625 
L 338.138488 -45.980625 
L 339.810521 -45.980625 
L 341.482553 -45.980625 
L 343.154586 -45.980625 
L 344.826619 -45.980625 
L 346.498651 -45.980625 
L 348.170684 -45.980625 
L 349.842716 -45.980625 
L 351.514749 -45.980625 
L 353.186781 -45.980625 
L 354.858814 -45.980625 
L 356.530846 -45.980625 
L 358.202879 -45.980625 
L 359.874911 -45.980625 
L 361.546944 -45.980625 
L 363.218976 -45.980625 
L 364.891009 -45.980625 
L 366.563041 -45.980625 
L 368.235074 -45.980625 
L 369.907106 -45.980625 
L 371.579139 -45.980625 
L 373.251172 -45.980625 
L 374.923204 -45.980625 
L 376.595237 -45.980625 
L 378.267269 -45.980625 
L 379.939302 -45.980625 
L 381.611334 -45.980625 
L 383.283367 -45.980625 
L 384.955399 -45.980625 
L 386.627432 -45.980625 
L 388.299464 -45.980625 
L 389.971497 -45.980625 
L 391.643529 -45.980625 
L 393.315562 -45.980625 
L 394.987594 -45.980625 
L 396.659627 -45.980625 
L 398.331659 -45.980625 
L 400.003692 -45.980625 
L 401.675725 -45.980625 
L 403.347757 -45.980625 
L 405.01979 -45.980625 
L 406.691822 -45.980625 
L 406.691822 -46.497162 
L 406.691822 -46.497162 
L 405.01979 -46.656783 
L 403.347757 -46.858407 
L 401.675725 -47.110727 
L 400.003692 -47.423541 
L 398.331659 -47.8077 
L 396.659627 -48.274997 
L 394.987594 -48.837975 
L 393.315562 -49.509656 
L 391.643529 -50.30317 
L 389.971497 -51.231308 
L 388.299464 -52.30597 
L 386.627432 -53.537546 
L 384.955399 -54.934226 
L 383.283367 -56.501279 
L 381.611334 -58.240328 
L 379.939302 -60.148652 
L 378.267269 -62.218566 
L 376.595237 -64.43693 
L 374.923204 -66.784811 
L 373.251172 -69.23737 
L 371.579139 -71.763974 
L 369.907106 -74.328595 
L 368.235074 -76.890471 
L 366.563041 -79.405053 
L 364.891009 -81.825202 
L 363.218976 -84.102593 
L 361.546944 -86.189289 
L 359.874911 -88.039399 
L 358.202879 -89.610746 
L 356.530846 -90.866469 
L 354.858814 -91.776465 
L 353.186781 -92.318599 
L 351.514749 -92.479616 
L 349.842716 -92.255698 
L 348.170684 -91.652645 
L 346.498651 -90.685664 
L 344.826619 -89.378788 
L 343.154586 -87.763944 
L 341.482553 -85.879755 
L 339.810521 -83.770116 
L 338.138488 -81.482643 
L 336.466456 -79.067078 
L 334.794423 -76.573728 
L 333.122391 -74.052025 
L 331.450358 -71.549266 
L 329.778326 -69.109592 
L 328.106293 -66.773228 
L 326.434261 -64.576018 
L 324.762228 -62.549235 
L 323.090196 -60.719655 
L 321.418163 -59.10986 
L 319.746131 -57.738731 
L 318.074098 -56.622059 
L 316.402066 -55.773242 
L 314.730033 -55.203997 
L 313.058 -54.925032 
L 311.385968 -54.946642 
L 309.713935 -55.279174 
L 308.041903 -55.933349 
L 306.36987 -56.920405 
L 304.697838 -58.25207 
L 303.025805 -59.940347 
L 301.353773 -61.997152 
L 299.68174 -64.433791 
L 298.009708 -67.260335 
L 296.337675 -70.484906 
L 294.665643 -74.112915 
L 292.99361 -78.146279 
L 291.321578 -82.582672 
L 289.649545 -87.414815 
L 287.977513 -92.629853 
L 286.30548 -98.20883 
L 284.633447 -104.126293 
L 282.961415 -110.350032 
L 281.289382 -116.840962 
L 279.61735 -123.553175 
L 277.945317 -130.434153 
L 276.273285 -137.425147 
L 274.601252 -144.461748 
L 272.92922 -151.474629 
L 271.257187 -158.39048 
L 269.585155 -165.133141 
L 267.913122 -171.624909 
L 266.24109 -177.788038 
L 264.569057 -183.546396 
L 262.897025 -188.827262 
L 261.224992 -193.563214 
L 259.552959 -197.69407 
L 257.880927 -201.168799 
L 256.208894 -203.947355 
L 254.536862 -206.002321 
L 252.864829 -207.320307 
L 251.192797 -207.903012 
L 249.520764 -207.767878 
L 247.848732 -206.948278 
L 246.176699 -205.493213 
L 244.504667 -203.466489 
L 242.832634 -200.945401 
L 241.160602 -198.018958 
L 239.488569 -194.785712 
L 237.816537 -191.351277 
L 236.144504 -187.825642 
L 234.472472 -184.32038 
L 232.800439 -180.945863 
L 231.128406 -177.808591 
L 229.456374 -175.008712 
L 227.784341 -172.637808 
L 226.112309 -170.776992 
L 224.440276 -169.495332 
L 222.768244 -168.848612 
L 221.096211 -168.878396 
L 219.424179 -169.611378 
L 217.752146 -171.058971 
L 216.080114 -173.217099 
L 214.408081 -176.066169 
L 212.736049 -179.571202 
L 211.064016 -183.682125 
L 209.391984 -188.334257 
L 207.719951 -193.449006 
L 206.047919 -198.934841 
L 204.375886 -204.688586 
L 202.703853 -210.597081 
L 201.031821 -216.53925 
L 199.359788 -222.388587 
L 197.687756 -228.01604 
L 196.015723 -233.293241 
L 194.343691 -238.095998 
L 192.671658 -242.307914 
L 190.999626 -245.824001 
L 189.327593 -248.554092 
L 187.655561 -250.425894 
L 185.983528 -251.387498 
L 184.311496 -251.409196 
L 182.639463 -250.48449 
L 180.967431 -248.6302 
L 179.295398 -245.885676 
L 177.623366 -242.311105 
L 175.951333 -237.985031 
L 174.2793 -233.00119 
L 172.607268 -227.464836 
L 170.935235 -221.48876 
L 169.263203 -215.18918 
L 167.59117 -208.681734 
L 165.919138 -202.077733 
L 164.247105 -195.48084 
L 162.575073 -188.984304 
L 160.90304 -182.668807 
L 159.231008 -176.600975 
L 157.558975 -170.832551 
L 155.886943 -165.400178 
L 154.21491 -160.325744 
L 152.542878 -155.617202 
L 150.870845 -151.269762 
L 149.198813 -147.267385 
L 147.52678 -143.584469 
L 145.854747 -140.187665 
L 144.182715 -137.037747 
L 142.510682 -134.091482 
L 140.83865 -131.30346 
L 139.166617 -128.627845 
L 137.494585 -126.020016 
L 135.822552 -123.438073 
L 134.15052 -120.844177 
L 132.478487 -118.205703 
L 130.806455 -115.496171 
L 129.134422 -112.695944 
L 127.46239 -109.792657 
L 125.790357 -106.781371 
L 124.118325 -103.664448 
L 122.446292 -100.451148 
L 120.77426 -97.156968 
L 119.102227 -93.802755 
L 117.430194 -90.413639 
L 115.758162 -87.017833 
L 114.086129 -83.645359 
L 112.414097 -80.326777 
L 110.742064 -77.091951 
L 109.070032 -73.968939 
L 107.397999 -70.983028 
L 105.725967 -68.155962 
L 104.053934 -65.50539 
L 102.381902 -63.044529 
L 100.709869 -60.782047 
L 99.037837 -58.72215 
L 97.365804 -56.864845 
L 95.693772 -55.206341 
L 94.021739 -53.739562 
L 92.349707 -52.454726 
L 90.677674 -51.339953 
L 89.005641 -50.381872 
L 87.333609 -49.566201 
L 85.661576 -48.878269 
L 83.989544 -48.303474 
L 82.317511 -47.827661 
L 80.645479 -47.437417 
L 78.973446 -47.120295 
L 77.301414 -46.86495 
L 75.629381 -46.66122 
L 73.957349 -46.500146 
z
" style="stroke: #009ade"/>
    </defs>
    <g clip-path="url(#p8218da0fdc)">
     <use xlink:href="#med88c7e2c6" x="0" y="265.280625" style="fill: #009ade; fill-opacity: 0.7; stroke: #009ade"/>
    </g>
   </g>
   <g id="matplotlib.axis_1">
    <g id="xtick_1">
     <g id="line2d_1">
      <defs>
       <path id="mf809bd6ca7" d="M 0 0 
L 0 -3 
" style="stroke: #000000; stroke-width: 0.5"/>
      </defs>
      <g>
       <use xlink:href="#mf809bd6ca7" x="95.095882" y="219.3" style="stroke: #000000; stroke-width: 0.5"/>
      </g>
     </g>
     <g id="line2d_2">
      <defs>
       <path id="m3237215ded" d="M 0 0 
L 0 3 
" style="stroke: #000000; stroke-width: 0.5"/>
      </defs>
      <g>
       <use xlink:href="#m3237215ded" x="95.095882" y="3.6" style="stroke: #000000; stroke-width: 0.5"/>
      </g>
     </g>
     <g id="text_1">
      <!-- $\mathdefault{2.50}$ -->
      <g transform="translate(75.025882 236.477187) scale(0.18 -0.18)">
       <defs>
        <path id="DejaVuSans-32" d="M 1228 531 
L 3431 531 
L 3431 0 
L 469 0 
L 469 531 
Q 828 903 1448 1529 
Q 2069 2156 2228 2338 
Q 2531 2678 2651 2914 
Q 2772 3150 2772 3378 
Q 2772 3750 2511 3984 
Q 2250 4219 1831 4219 
Q 1534 4219 1204 4116 
Q 875 4013 500 3803 
L 500 4441 
Q 881 4594 1212 4672 
Q 1544 4750 1819 4750 
Q 2544 4750 2975 4387 
Q 3406 4025 3406 3419 
Q 3406 3131 3298 2873 
Q 3191 2616 2906 2266 
Q 2828 2175 2409 1742 
Q 1991 1309 1228 531 
z
" transform="scale(0.015625)"/>
        <path id="DejaVuSans-2e" d="M 684 794 
L 1344 794 
L 1344 0 
L 684 0 
L 684 794 
z
" transform="scale(0.015625)"/>
        <path id="DejaVuSans-35" d="M 691 4666 
L 3169 4666 
L 3169 4134 
L 1269 4134 
L 1269 2991 
Q 1406 3038 1543 3061 
Q 1681 3084 1819 3084 
Q 2600 3084 3056 2656 
Q 3513 2228 3513 1497 
Q 3513 744 3044 326 
Q 2575 -91 1722 -91 
Q 1428 -91 1123 -41 
Q 819 9 494 109 
L 494 744 
Q 775 591 1075 516 
Q 1375 441 1709 441 
Q 2250 441 2565 725 
Q 2881 1009 2881 1497 
Q 2881 1984 2565 2268 
Q 2250 2553 1709 2553 
Q 1456 2553 1204 2497 
Q 953 2441 691 2322 
L 691 4666 
z
" transform="scale(0.015625)"/>
        <path id="DejaVuSans-30" d="M 2034 4250 
Q 1547 4250 1301 3770 
Q 1056 3291 1056 2328 
Q 1056 1369 1301 889 
Q 1547 409 2034 409 
Q 2525 409 2770 889 
Q 3016 1369 3016 2328 
Q 3016 3291 2770 3770 
Q 2525 4250 2034 4250 
z
M 2034 4750 
Q 2819 4750 3233 4129 
Q 3647 3509 3647 2328 
Q 3647 1150 3233 529 
Q 2819 -91 2034 -91 
Q 1250 -91 836 529 
Q 422 1150 422 2328 
Q 422 3509 836 4129 
Q 1250 4750 2034 4750 
z
" transform="scale(0.015625)"/>
       </defs>
       <use xlink:href="#DejaVuSans-32" transform="translate(0 0.78125)"/>
       <use xlink:href="#DejaVuSans-2e" transform="translate(63.623047 0.78125)"/>
       <use xlink:href="#DejaVuSans-35" transform="translate(95.410156 0.78125)"/>
       <use xlink:href="#DejaVuSans-30" transform="translate(159.033203 0.78125)"/>
      </g>
     </g>
    </g>
    <g id="xtick_2">
     <g id="line2d_3">
      <g>
       <use xlink:href="#mf809bd6ca7" x="166.353736" y="219.3" style="stroke: #000000; stroke-width: 0.5"/>
      </g>
     </g>
     <g id="line2d_4">
      <g>
       <use xlink:href="#m3237215ded" x="166.353736" y="3.6" style="stroke: #000000; stroke-width: 0.5"/>
      </g>
     </g>
     <g id="text_2">
      <!-- $\mathdefault{2.75}$ -->
      <g transform="translate(147.003736 236.477187) scale(0.18 -0.18)">
       <defs>
        <path id="DejaVuSans-37" d="M 525 4666 
L 3525 4666 
L 3525 4397 
L 1831 0 
L 1172 0 
L 2766 4134 
L 525 4134 
L 525 4666 
z
" transform="scale(0.015625)"/>
       </defs>
       <use xlink:href="#DejaVuSans-32" transform="translate(0 0.78125)"/>
       <use xlink:href="#DejaVuSans-2e" transform="translate(63.623047 0.78125)"/>
       <use xlink:href="#DejaVuSans-37" transform="translate(87.660156 0.78125)"/>
       <use xlink:href="#DejaVuSans-35" transform="translate(151.283203 0.78125)"/>
      </g>
     </g>
    </g>
    <g id="xtick_3">
     <g id="line2d_5">
      <g>
       <use xlink:href="#mf809bd6ca7" x="237.611589" y="219.3" style="stroke: #000000; stroke-width: 0.5"/>
      </g>
     </g>
     <g id="line2d_6">
      <g>
       <use xlink:href="#m3237215ded" x="237.611589" y="3.6" style="stroke: #000000; stroke-width: 0.5"/>
      </g>
     </g>
     <g id="text_3">
      <!-- $\mathdefault{3.00}$ -->
      <g transform="translate(217.541589 236.477187) scale(0.18 -0.18)">
       <defs>
        <path id="DejaVuSans-33" d="M 2597 2516 
Q 3050 2419 3304 2112 
Q 3559 1806 3559 1356 
Q 3559 666 3084 287 
Q 2609 -91 1734 -91 
Q 1441 -91 1130 -33 
Q 819 25 488 141 
L 488 750 
Q 750 597 1062 519 
Q 1375 441 1716 441 
Q 2309 441 2620 675 
Q 2931 909 2931 1356 
Q 2931 1769 2642 2001 
Q 2353 2234 1838 2234 
L 1294 2234 
L 1294 2753 
L 1863 2753 
Q 2328 2753 2575 2939 
Q 2822 3125 2822 3475 
Q 2822 3834 2567 4026 
Q 2313 4219 1838 4219 
Q 1578 4219 1281 4162 
Q 984 4106 628 3988 
L 628 4550 
Q 988 4650 1302 4700 
Q 1616 4750 1894 4750 
Q 2613 4750 3031 4423 
Q 3450 4097 3450 3541 
Q 3450 3153 3228 2886 
Q 3006 2619 2597 2516 
z
" transform="scale(0.015625)"/>
       </defs>
       <use xlink:href="#DejaVuSans-33" transform="translate(0 0.78125)"/>
       <use xlink:href="#DejaVuSans-2e" transform="translate(63.623047 0.78125)"/>
       <use xlink:href="#DejaVuSans-30" transform="translate(95.410156 0.78125)"/>
       <use xlink:href="#DejaVuSans-30" transform="translate(159.033203 0.78125)"/>
      </g>
     </g>
    </g>
    <g id="xtick_4">
     <g id="line2d_7">
      <g>
       <use xlink:href="#mf809bd6ca7" x="308.869443" y="219.3" style="stroke: #000000; stroke-width: 0.5"/>
      </g>
     </g>
     <g id="line2d_8">
      <g>
       <use xlink:href="#m3237215ded" x="308.869443" y="3.6" style="stroke: #000000; stroke-width: 0.5"/>
      </g>
     </g>
     <g id="text_4">
      <!-- $\mathdefault{3.25}$ -->
      <g transform="translate(289.249443 236.477187) scale(0.18 -0.18)">
       <use xlink:href="#DejaVuSans-33" transform="translate(0 0.78125)"/>
       <use xlink:href="#DejaVuSans-2e" transform="translate(63.623047 0.78125)"/>
       <use xlink:href="#DejaVuSans-32" transform="translate(89.910156 0.78125)"/>
       <use xlink:href="#DejaVuSans-35" transform="translate(153.533203 0.78125)"/>
      </g>
     </g>
    </g>
    <g id="xtick_5">
     <g id="line2d_9">
      <g>
       <use xlink:href="#mf809bd6ca7" x="380.127297" y="219.3" style="stroke: #000000; stroke-width: 0.5"/>
      </g>
     </g>
     <g id="line2d_10">
      <g>
       <use xlink:href="#m3237215ded" x="380.127297" y="3.6" style="stroke: #000000; stroke-width: 0.5"/>
      </g>
     </g>
     <g id="text_5">
      <!-- $\mathdefault{3.50}$ -->
      <g transform="translate(360.057297 236.477187) scale(0.18 -0.18)">
       <use xlink:href="#DejaVuSans-33" transform="translate(0 0.78125)"/>
       <use xlink:href="#DejaVuSans-2e" transform="translate(63.623047 0.78125)"/>
       <use xlink:href="#DejaVuSans-35" transform="translate(95.410156 0.78125)"/>
       <use xlink:href="#DejaVuSans-30" transform="translate(159.033203 0.78125)"/>
      </g>
     </g>
    </g>
    <g id="xtick_6">
     <g id="line2d_11">
      <defs>
       <path id="m215366c03e" d="M 0 0 
L 0 -1.5 
" style="stroke: #000000; stroke-width: 0.5"/>
      </defs>
      <g>
       <use xlink:href="#m215366c03e" x="66.59274" y="219.3" style="stroke: #000000; stroke-width: 0.5"/>
      </g>
     </g>
     <g id="line2d_12">
      <defs>
       <path id="m9511cacb55" d="M 0 0 
L 0 1.5 
" style="stroke: #000000; stroke-width: 0.5"/>
      </defs>
      <g>
       <use xlink:href="#m9511cacb55" x="66.59274" y="3.6" style="stroke: #000000; stroke-width: 0.5"/>
      </g>
     </g>
    </g>
    <g id="xtick_7">
     <g id="line2d_13">
      <g>
       <use xlink:href="#m215366c03e" x="80.844311" y="219.3" style="stroke: #000000; stroke-width: 0.5"/>
      </g>
     </g>
     <g id="line2d_14">
      <g>
       <use xlink:href="#m9511cacb55" x="80.844311" y="3.6" style="stroke: #000000; stroke-width: 0.5"/>
      </g>
     </g>
    </g>
    <g id="xtick_8">
     <g id="line2d_15">
      <g>
       <use xlink:href="#m215366c03e" x="109.347452" y="219.3" style="stroke: #000000; stroke-width: 0.5"/>
      </g>
     </g>
     <g id="line2d_16">
      <g>
       <use xlink:href="#m9511cacb55" x="109.347452" y="3.6" style="stroke: #000000; stroke-width: 0.5"/>
      </g>
     </g>
    </g>
    <g id="xtick_9">
     <g id="line2d_17">
      <g>
       <use xlink:href="#m215366c03e" x="123.599023" y="219.3" style="stroke: #000000; stroke-width: 0.5"/>
      </g>
     </g>
     <g id="line2d_18">
      <g>
       <use xlink:href="#m9511cacb55" x="123.599023" y="3.6" style="stroke: #000000; stroke-width: 0.5"/>
      </g>
     </g>
    </g>
    <g id="xtick_10">
     <g id="line2d_19">
      <g>
       <use xlink:href="#m215366c03e" x="137.850594" y="219.3" style="stroke: #000000; stroke-width: 0.5"/>
      </g>
     </g>
     <g id="line2d_20">
      <g>
       <use xlink:href="#m9511cacb55" x="137.850594" y="3.6" style="stroke: #000000; stroke-width: 0.5"/>
      </g>
     </g>
    </g>
    <g id="xtick_11">
     <g id="line2d_21">
      <g>
       <use xlink:href="#m215366c03e" x="152.102165" y="219.3" style="stroke: #000000; stroke-width: 0.5"/>
      </g>
     </g>
     <g id="line2d_22">
      <g>
       <use xlink:href="#m9511cacb55" x="152.102165" y="3.6" style="stroke: #000000; stroke-width: 0.5"/>
      </g>
     </g>
    </g>
    <g id="xtick_12">
     <g id="line2d_23">
      <g>
       <use xlink:href="#m215366c03e" x="180.605306" y="219.3" style="stroke: #000000; stroke-width: 0.5"/>
      </g>
     </g>
     <g id="line2d_24">
      <g>
       <use xlink:href="#m9511cacb55" x="180.605306" y="3.6" style="stroke: #000000; stroke-width: 0.5"/>
      </g>
     </g>
    </g>
    <g id="xtick_13">
     <g id="line2d_25">
      <g>
       <use xlink:href="#m215366c03e" x="194.856877" y="219.3" style="stroke: #000000; stroke-width: 0.5"/>
      </g>
     </g>
     <g id="line2d_26">
      <g>
       <use xlink:href="#m9511cacb55" x="194.856877" y="3.6" style="stroke: #000000; stroke-width: 0.5"/>
      </g>
     </g>
    </g>
    <g id="xtick_14">
     <g id="line2d_27">
      <g>
       <use xlink:href="#m215366c03e" x="209.108448" y="219.3" style="stroke: #000000; stroke-width: 0.5"/>
      </g>
     </g>
     <g id="line2d_28">
      <g>
       <use xlink:href="#m9511cacb55" x="209.108448" y="3.6" style="stroke: #000000; stroke-width: 0.5"/>
      </g>
     </g>
    </g>
    <g id="xtick_15">
     <g id="line2d_29">
      <g>
       <use xlink:href="#m215366c03e" x="223.360019" y="219.3" style="stroke: #000000; stroke-width: 0.5"/>
      </g>
     </g>
     <g id="line2d_30">
      <g>
       <use xlink:href="#m9511cacb55" x="223.360019" y="3.6" style="stroke: #000000; stroke-width: 0.5"/>
      </g>
     </g>
    </g>
    <g id="xtick_16">
     <g id="line2d_31">
      <g>
       <use xlink:href="#m215366c03e" x="251.86316" y="219.3" style="stroke: #000000; stroke-width: 0.5"/>
      </g>
     </g>
     <g id="line2d_32">
      <g>
       <use xlink:href="#m9511cacb55" x="251.86316" y="3.6" style="stroke: #000000; stroke-width: 0.5"/>
      </g>
     </g>
    </g>
    <g id="xtick_17">
     <g id="line2d_33">
      <g>
       <use xlink:href="#m215366c03e" x="266.114731" y="219.3" style="stroke: #000000; stroke-width: 0.5"/>
      </g>
     </g>
     <g id="line2d_34">
      <g>
       <use xlink:href="#m9511cacb55" x="266.114731" y="3.6" style="stroke: #000000; stroke-width: 0.5"/>
      </g>
     </g>
    </g>
    <g id="xtick_18">
     <g id="line2d_35">
      <g>
       <use xlink:href="#m215366c03e" x="280.366302" y="219.3" style="stroke: #000000; stroke-width: 0.5"/>
      </g>
     </g>
     <g id="line2d_36">
      <g>
       <use xlink:href="#m9511cacb55" x="280.366302" y="3.6" style="stroke: #000000; stroke-width: 0.5"/>
      </g>
     </g>
    </g>
    <g id="xtick_19">
     <g id="line2d_37">
      <g>
       <use xlink:href="#m215366c03e" x="294.617872" y="219.3" style="stroke: #000000; stroke-width: 0.5"/>
      </g>
     </g>
     <g id="line2d_38">
      <g>
       <use xlink:href="#m9511cacb55" x="294.617872" y="3.6" style="stroke: #000000; stroke-width: 0.5"/>
      </g>
     </g>
    </g>
    <g id="xtick_20">
     <g id="line2d_39">
      <g>
       <use xlink:href="#m215366c03e" x="323.121014" y="219.3" style="stroke: #000000; stroke-width: 0.5"/>
      </g>
     </g>
     <g id="line2d_40">
      <g>
       <use xlink:href="#m9511cacb55" x="323.121014" y="3.6" style="stroke: #000000; stroke-width: 0.5"/>
      </g>
     </g>
    </g>
    <g id="xtick_21">
     <g id="line2d_41">
      <g>
       <use xlink:href="#m215366c03e" x="337.372585" y="219.3" style="stroke: #000000; stroke-width: 0.5"/>
      </g>
     </g>
     <g id="line2d_42">
      <g>
       <use xlink:href="#m9511cacb55" x="337.372585" y="3.6" style="stroke: #000000; stroke-width: 0.5"/>
      </g>
     </g>
    </g>
    <g id="xtick_22">
     <g id="line2d_43">
      <g>
       <use xlink:href="#m215366c03e" x="351.624155" y="219.3" style="stroke: #000000; stroke-width: 0.5"/>
      </g>
     </g>
     <g id="line2d_44">
      <g>
       <use xlink:href="#m9511cacb55" x="351.624155" y="3.6" style="stroke: #000000; stroke-width: 0.5"/>
      </g>
     </g>
    </g>
    <g id="xtick_23">
     <g id="line2d_45">
      <g>
       <use xlink:href="#m215366c03e" x="365.875726" y="219.3" style="stroke: #000000; stroke-width: 0.5"/>
      </g>
     </g>
     <g id="line2d_46">
      <g>
       <use xlink:href="#m9511cacb55" x="365.875726" y="3.6" style="stroke: #000000; stroke-width: 0.5"/>
      </g>
     </g>
    </g>
    <g id="xtick_24">
     <g id="line2d_47">
      <g>
       <use xlink:href="#m215366c03e" x="394.378868" y="219.3" style="stroke: #000000; stroke-width: 0.5"/>
      </g>
     </g>
     <g id="line2d_48">
      <g>
       <use xlink:href="#m9511cacb55" x="394.378868" y="3.6" style="stroke: #000000; stroke-width: 0.5"/>
      </g>
     </g>
    </g>
    <g id="xtick_25">
     <g id="line2d_49">
      <g>
       <use xlink:href="#m215366c03e" x="408.630439" y="219.3" style="stroke: #000000; stroke-width: 0.5"/>
      </g>
     </g>
     <g id="line2d_50">
      <g>
       <use xlink:href="#m9511cacb55" x="408.630439" y="3.6" style="stroke: #000000; stroke-width: 0.5"/>
      </g>
     </g>
    </g>
    <g id="xtick_26">
     <g id="line2d_51">
      <g>
       <use xlink:href="#m215366c03e" x="422.882009" y="219.3" style="stroke: #000000; stroke-width: 0.5"/>
      </g>
     </g>
     <g id="line2d_52">
      <g>
       <use xlink:href="#m9511cacb55" x="422.882009" y="3.6" style="stroke: #000000; stroke-width: 0.5"/>
      </g>
     </g>
    </g>
    <g id="text_6">
     <!-- Predicted Dimension -->
     <g transform="translate(147.379898 257.897812) scale(0.18 -0.18)">
      <defs>
       <path id="DejaVuSans-50" d="M 1259 4147 
L 1259 2394 
L 2053 2394 
Q 2494 2394 2734 2622 
Q 2975 2850 2975 3272 
Q 2975 3691 2734 3919 
Q 2494 4147 2053 4147 
L 1259 4147 
z
M 628 4666 
L 2053 4666 
Q 2838 4666 3239 4311 
Q 3641 3956 3641 3272 
Q 3641 2581 3239 2228 
Q 2838 1875 2053 1875 
L 1259 1875 
L 1259 0 
L 628 0 
L 628 4666 
z
" transform="scale(0.015625)"/>
       <path id="DejaVuSans-72" d="M 2631 2963 
Q 2534 3019 2420 3045 
Q 2306 3072 2169 3072 
Q 1681 3072 1420 2755 
Q 1159 2438 1159 1844 
L 1159 0 
L 581 0 
L 581 3500 
L 1159 3500 
L 1159 2956 
Q 1341 3275 1631 3429 
Q 1922 3584 2338 3584 
Q 2397 3584 2469 3576 
Q 2541 3569 2628 3553 
L 2631 2963 
z
" transform="scale(0.015625)"/>
       <path id="DejaVuSans-65" d="M 3597 1894 
L 3597 1613 
L 953 1613 
Q 991 1019 1311 708 
Q 1631 397 2203 397 
Q 2534 397 2845 478 
Q 3156 559 3463 722 
L 3463 178 
Q 3153 47 2828 -22 
Q 2503 -91 2169 -91 
Q 1331 -91 842 396 
Q 353 884 353 1716 
Q 353 2575 817 3079 
Q 1281 3584 2069 3584 
Q 2775 3584 3186 3129 
Q 3597 2675 3597 1894 
z
M 3022 2063 
Q 3016 2534 2758 2815 
Q 2500 3097 2075 3097 
Q 1594 3097 1305 2825 
Q 1016 2553 972 2059 
L 3022 2063 
z
" transform="scale(0.015625)"/>
       <path id="DejaVuSans-64" d="M 2906 2969 
L 2906 4863 
L 3481 4863 
L 3481 0 
L 2906 0 
L 2906 525 
Q 2725 213 2448 61 
Q 2172 -91 1784 -91 
Q 1150 -91 751 415 
Q 353 922 353 1747 
Q 353 2572 751 3078 
Q 1150 3584 1784 3584 
Q 2172 3584 2448 3432 
Q 2725 3281 2906 2969 
z
M 947 1747 
Q 947 1113 1208 752 
Q 1469 391 1925 391 
Q 2381 391 2643 752 
Q 2906 1113 2906 1747 
Q 2906 2381 2643 2742 
Q 2381 3103 1925 3103 
Q 1469 3103 1208 2742 
Q 947 2381 947 1747 
z
" transform="scale(0.015625)"/>
       <path id="DejaVuSans-69" d="M 603 3500 
L 1178 3500 
L 1178 0 
L 603 0 
L 603 3500 
z
M 603 4863 
L 1178 4863 
L 1178 4134 
L 603 4134 
L 603 4863 
z
" transform="scale(0.015625)"/>
       <path id="DejaVuSans-63" d="M 3122 3366 
L 3122 2828 
Q 2878 2963 2633 3030 
Q 2388 3097 2138 3097 
Q 1578 3097 1268 2742 
Q 959 2388 959 1747 
Q 959 1106 1268 751 
Q 1578 397 2138 397 
Q 2388 397 2633 464 
Q 2878 531 3122 666 
L 3122 134 
Q 2881 22 2623 -34 
Q 2366 -91 2075 -91 
Q 1284 -91 818 406 
Q 353 903 353 1747 
Q 353 2603 823 3093 
Q 1294 3584 2113 3584 
Q 2378 3584 2631 3529 
Q 2884 3475 3122 3366 
z
" transform="scale(0.015625)"/>
       <path id="DejaVuSans-74" d="M 1172 4494 
L 1172 3500 
L 2356 3500 
L 2356 3053 
L 1172 3053 
L 1172 1153 
Q 1172 725 1289 603 
Q 1406 481 1766 481 
L 2356 481 
L 2356 0 
L 1766 0 
Q 1100 0 847 248 
Q 594 497 594 1153 
L 594 3053 
L 172 3053 
L 172 3500 
L 594 3500 
L 594 4494 
L 1172 4494 
z
" transform="scale(0.015625)"/>
       <path id="DejaVuSans-20" transform="scale(0.015625)"/>
       <path id="DejaVuSans-44" d="M 1259 4147 
L 1259 519 
L 2022 519 
Q 2988 519 3436 956 
Q 3884 1394 3884 2338 
Q 3884 3275 3436 3711 
Q 2988 4147 2022 4147 
L 1259 4147 
z
M 628 4666 
L 1925 4666 
Q 3281 4666 3915 4102 
Q 4550 3538 4550 2338 
Q 4550 1131 3912 565 
Q 3275 0 1925 0 
L 628 0 
L 628 4666 
z
" transform="scale(0.015625)"/>
       <path id="DejaVuSans-6d" d="M 3328 2828 
Q 3544 3216 3844 3400 
Q 4144 3584 4550 3584 
Q 5097 3584 5394 3201 
Q 5691 2819 5691 2113 
L 5691 0 
L 5113 0 
L 5113 2094 
Q 5113 2597 4934 2840 
Q 4756 3084 4391 3084 
Q 3944 3084 3684 2787 
Q 3425 2491 3425 1978 
L 3425 0 
L 2847 0 
L 2847 2094 
Q 2847 2600 2669 2842 
Q 2491 3084 2119 3084 
Q 1678 3084 1418 2786 
Q 1159 2488 1159 1978 
L 1159 0 
L 581 0 
L 581 3500 
L 1159 3500 
L 1159 2956 
Q 1356 3278 1631 3431 
Q 1906 3584 2284 3584 
Q 2666 3584 2933 3390 
Q 3200 3197 3328 2828 
z
" transform="scale(0.015625)"/>
       <path id="DejaVuSans-6e" d="M 3513 2113 
L 3513 0 
L 2938 0 
L 2938 2094 
Q 2938 2591 2744 2837 
Q 2550 3084 2163 3084 
Q 1697 3084 1428 2787 
Q 1159 2491 1159 1978 
L 1159 0 
L 581 0 
L 581 3500 
L 1159 3500 
L 1159 2956 
Q 1366 3272 1645 3428 
Q 1925 3584 2291 3584 
Q 2894 3584 3203 3211 
Q 3513 2838 3513 2113 
z
" transform="scale(0.015625)"/>
       <path id="DejaVuSans-73" d="M 2834 3397 
L 2834 2853 
Q 2591 2978 2328 3040 
Q 2066 3103 1784 3103 
Q 1356 3103 1142 2972 
Q 928 2841 928 2578 
Q 928 2378 1081 2264 
Q 1234 2150 1697 2047 
L 1894 2003 
Q 2506 1872 2764 1633 
Q 3022 1394 3022 966 
Q 3022 478 2636 193 
Q 2250 -91 1575 -91 
Q 1294 -91 989 -36 
Q 684 19 347 128 
L 347 722 
Q 666 556 975 473 
Q 1284 391 1588 391 
Q 1994 391 2212 530 
Q 2431 669 2431 922 
Q 2431 1156 2273 1281 
Q 2116 1406 1581 1522 
L 1381 1569 
Q 847 1681 609 1914 
Q 372 2147 372 2553 
Q 372 3047 722 3315 
Q 1072 3584 1716 3584 
Q 2034 3584 2315 3537 
Q 2597 3491 2834 3397 
z
" transform="scale(0.015625)"/>
       <path id="DejaVuSans-6f" d="M 1959 3097 
Q 1497 3097 1228 2736 
Q 959 2375 959 1747 
Q 959 1119 1226 758 
Q 1494 397 1959 397 
Q 2419 397 2687 759 
Q 2956 1122 2956 1747 
Q 2956 2369 2687 2733 
Q 2419 3097 1959 3097 
z
M 1959 3584 
Q 2709 3584 3137 3096 
Q 3566 2609 3566 1747 
Q 3566 888 3137 398 
Q 2709 -91 1959 -91 
Q 1206 -91 779 398 
Q 353 888 353 1747 
Q 353 2609 779 3096 
Q 1206 3584 1959 3584 
z
" transform="scale(0.015625)"/>
      </defs>
      <use xlink:href="#DejaVuSans-50"/>
      <use xlink:href="#DejaVuSans-72" x="58.552734"/>
      <use xlink:href="#DejaVuSans-65" x="97.416016"/>
      <use xlink:href="#DejaVuSans-64" x="158.939453"/>
      <use xlink:href="#DejaVuSans-69" x="222.416016"/>
      <use xlink:href="#DejaVuSans-63" x="250.199219"/>
      <use xlink:href="#DejaVuSans-74" x="305.179688"/>
      <use xlink:href="#DejaVuSans-65" x="344.388672"/>
      <use xlink:href="#DejaVuSans-64" x="405.912109"/>
      <use xlink:href="#DejaVuSans-20" x="469.388672"/>
      <use xlink:href="#DejaVuSans-44" x="501.175781"/>
      <use xlink:href="#DejaVuSans-69" x="578.177734"/>
      <use xlink:href="#DejaVuSans-6d" x="605.960938"/>
      <use xlink:href="#DejaVuSans-65" x="703.373047"/>
      <use xlink:href="#DejaVuSans-6e" x="764.896484"/>
      <use xlink:href="#DejaVuSans-73" x="828.275391"/>
      <use xlink:href="#DejaVuSans-69" x="880.375"/>
      <use xlink:href="#DejaVuSans-6f" x="908.158203"/>
      <use xlink:href="#DejaVuSans-6e" x="969.339844"/>
     </g>
    </g>
   </g>
   <g id="matplotlib.axis_2">
    <g id="ytick_1">
     <g id="line2d_53">
      <defs>
       <path id="md91375b934" d="M 0 0 
L 3 0 
" style="stroke: #000000; stroke-width: 0.5"/>
      </defs>
      <g>
       <use xlink:href="#md91375b934" x="57.320625" y="219.3" style="stroke: #000000; stroke-width: 0.5"/>
      </g>
     </g>
     <g id="line2d_54">
      <defs>
       <path id="mf02ad436d0" d="M 0 0 
L -3 0 
" style="stroke: #000000; stroke-width: 0.5"/>
      </defs>
      <g>
       <use xlink:href="#mf02ad436d0" x="423.328546" y="219.3" style="stroke: #000000; stroke-width: 0.5"/>
      </g>
     </g>
     <g id="text_7">
      <!-- $\mathdefault{0.0}$ -->
      <g transform="translate(25.020625 226.138594) scale(0.18 -0.18)">
       <use xlink:href="#DejaVuSans-30" transform="translate(0 0.78125)"/>
       <use xlink:href="#DejaVuSans-2e" transform="translate(63.623047 0.78125)"/>
       <use xlink:href="#DejaVuSans-30" transform="translate(95.410156 0.78125)"/>
      </g>
     </g>
    </g>
    <g id="ytick_2">
     <g id="line2d_55">
      <g>
       <use xlink:href="#md91375b934" x="57.320625" y="174.291983" style="stroke: #000000; stroke-width: 0.5"/>
      </g>
     </g>
     <g id="line2d_56">
      <g>
       <use xlink:href="#mf02ad436d0" x="423.328546" y="174.291983" style="stroke: #000000; stroke-width: 0.5"/>
      </g>
     </g>
     <g id="text_8">
      <!-- $\mathdefault{0.5}$ -->
      <g transform="translate(25.020625 181.130577) scale(0.18 -0.18)">
       <use xlink:href="#DejaVuSans-30" transform="translate(0 0.78125)"/>
       <use xlink:href="#DejaVuSans-2e" transform="translate(63.623047 0.78125)"/>
       <use xlink:href="#DejaVuSans-35" transform="translate(95.410156 0.78125)"/>
      </g>
     </g>
    </g>
    <g id="ytick_3">
     <g id="line2d_57">
      <g>
       <use xlink:href="#md91375b934" x="57.320625" y="129.283966" style="stroke: #000000; stroke-width: 0.5"/>
      </g>
     </g>
     <g id="line2d_58">
      <g>
       <use xlink:href="#mf02ad436d0" x="423.328546" y="129.283966" style="stroke: #000000; stroke-width: 0.5"/>
      </g>
     </g>
     <g id="text_9">
      <!-- $\mathdefault{1.0}$ -->
      <g transform="translate(25.020625 136.12256) scale(0.18 -0.18)">
       <defs>
        <path id="DejaVuSans-31" d="M 794 531 
L 1825 531 
L 1825 4091 
L 703 3866 
L 703 4441 
L 1819 4666 
L 2450 4666 
L 2450 531 
L 3481 531 
L 3481 0 
L 794 0 
L 794 531 
z
" transform="scale(0.015625)"/>
       </defs>
       <use xlink:href="#DejaVuSans-31" transform="translate(0 0.78125)"/>
       <use xlink:href="#DejaVuSans-2e" transform="translate(63.623047 0.78125)"/>
       <use xlink:href="#DejaVuSans-30" transform="translate(95.410156 0.78125)"/>
      </g>
     </g>
    </g>
    <g id="ytick_4">
     <g id="line2d_59">
      <g>
       <use xlink:href="#md91375b934" x="57.320625" y="84.275949" style="stroke: #000000; stroke-width: 0.5"/>
      </g>
     </g>
     <g id="line2d_60">
      <g>
       <use xlink:href="#mf02ad436d0" x="423.328546" y="84.275949" style="stroke: #000000; stroke-width: 0.5"/>
      </g>
     </g>
     <g id="text_10">
      <!-- $\mathdefault{1.5}$ -->
      <g transform="translate(25.020625 91.114543) scale(0.18 -0.18)">
       <use xlink:href="#DejaVuSans-31" transform="translate(0 0.09375)"/>
       <use xlink:href="#DejaVuSans-2e" transform="translate(63.623047 0.09375)"/>
       <use xlink:href="#DejaVuSans-35" transform="translate(95.410156 0.09375)"/>
      </g>
     </g>
    </g>
    <g id="ytick_5">
     <g id="line2d_61">
      <g>
       <use xlink:href="#md91375b934" x="57.320625" y="39.267932" style="stroke: #000000; stroke-width: 0.5"/>
      </g>
     </g>
     <g id="line2d_62">
      <g>
       <use xlink:href="#mf02ad436d0" x="423.328546" y="39.267932" style="stroke: #000000; stroke-width: 0.5"/>
      </g>
     </g>
     <g id="text_11">
      <!-- $\mathdefault{2.0}$ -->
      <g transform="translate(25.020625 46.106526) scale(0.18 -0.18)">
       <use xlink:href="#DejaVuSans-32" transform="translate(0 0.78125)"/>
       <use xlink:href="#DejaVuSans-2e" transform="translate(63.623047 0.78125)"/>
       <use xlink:href="#DejaVuSans-30" transform="translate(95.410156 0.78125)"/>
      </g>
     </g>
    </g>
    <g id="ytick_6">
     <g id="line2d_63">
      <defs>
       <path id="mf388abed3c" d="M 0 0 
L 1.5 0 
" style="stroke: #000000; stroke-width: 0.5"/>
      </defs>
      <g>
       <use xlink:href="#mf388abed3c" x="57.320625" y="210.298397" style="stroke: #000000; stroke-width: 0.5"/>
      </g>
     </g>
     <g id="line2d_64">
      <defs>
       <path id="ma23d251772" d="M 0 0 
L -1.5 0 
" style="stroke: #000000; stroke-width: 0.5"/>
      </defs>
      <g>
       <use xlink:href="#ma23d251772" x="423.328546" y="210.298397" style="stroke: #000000; stroke-width: 0.5"/>
      </g>
     </g>
    </g>
    <g id="ytick_7">
     <g id="line2d_65">
      <g>
       <use xlink:href="#mf388abed3c" x="57.320625" y="201.296793" style="stroke: #000000; stroke-width: 0.5"/>
      </g>
     </g>
     <g id="line2d_66">
      <g>
       <use xlink:href="#ma23d251772" x="423.328546" y="201.296793" style="stroke: #000000; stroke-width: 0.5"/>
      </g>
     </g>
    </g>
    <g id="ytick_8">
     <g id="line2d_67">
      <g>
       <use xlink:href="#mf388abed3c" x="57.320625" y="192.29519" style="stroke: #000000; stroke-width: 0.5"/>
      </g>
     </g>
     <g id="line2d_68">
      <g>
       <use xlink:href="#ma23d251772" x="423.328546" y="192.29519" style="stroke: #000000; stroke-width: 0.5"/>
      </g>
     </g>
    </g>
    <g id="ytick_9">
     <g id="line2d_69">
      <g>
       <use xlink:href="#mf388abed3c" x="57.320625" y="183.293586" style="stroke: #000000; stroke-width: 0.5"/>
      </g>
     </g>
     <g id="line2d_70">
      <g>
       <use xlink:href="#ma23d251772" x="423.328546" y="183.293586" style="stroke: #000000; stroke-width: 0.5"/>
      </g>
     </g>
    </g>
    <g id="ytick_10">
     <g id="line2d_71">
      <g>
       <use xlink:href="#mf388abed3c" x="57.320625" y="165.29038" style="stroke: #000000; stroke-width: 0.5"/>
      </g>
     </g>
     <g id="line2d_72">
      <g>
       <use xlink:href="#ma23d251772" x="423.328546" y="165.29038" style="stroke: #000000; stroke-width: 0.5"/>
      </g>
     </g>
    </g>
    <g id="ytick_11">
     <g id="line2d_73">
      <g>
       <use xlink:href="#mf388abed3c" x="57.320625" y="156.288776" style="stroke: #000000; stroke-width: 0.5"/>
      </g>
     </g>
     <g id="line2d_74">
      <g>
       <use xlink:href="#ma23d251772" x="423.328546" y="156.288776" style="stroke: #000000; stroke-width: 0.5"/>
      </g>
     </g>
    </g>
    <g id="ytick_12">
     <g id="line2d_75">
      <g>
       <use xlink:href="#mf388abed3c" x="57.320625" y="147.287173" style="stroke: #000000; stroke-width: 0.5"/>
      </g>
     </g>
     <g id="line2d_76">
      <g>
       <use xlink:href="#ma23d251772" x="423.328546" y="147.287173" style="stroke: #000000; stroke-width: 0.5"/>
      </g>
     </g>
    </g>
    <g id="ytick_13">
     <g id="line2d_77">
      <g>
       <use xlink:href="#mf388abed3c" x="57.320625" y="138.28557" style="stroke: #000000; stroke-width: 0.5"/>
      </g>
     </g>
     <g id="line2d_78">
      <g>
       <use xlink:href="#ma23d251772" x="423.328546" y="138.28557" style="stroke: #000000; stroke-width: 0.5"/>
      </g>
     </g>
    </g>
    <g id="ytick_14">
     <g id="line2d_79">
      <g>
       <use xlink:href="#mf388abed3c" x="57.320625" y="120.282363" style="stroke: #000000; stroke-width: 0.5"/>
      </g>
     </g>
     <g id="line2d_80">
      <g>
       <use xlink:href="#ma23d251772" x="423.328546" y="120.282363" style="stroke: #000000; stroke-width: 0.5"/>
      </g>
     </g>
    </g>
    <g id="ytick_15">
     <g id="line2d_81">
      <g>
       <use xlink:href="#mf388abed3c" x="57.320625" y="111.280759" style="stroke: #000000; stroke-width: 0.5"/>
      </g>
     </g>
     <g id="line2d_82">
      <g>
       <use xlink:href="#ma23d251772" x="423.328546" y="111.280759" style="stroke: #000000; stroke-width: 0.5"/>
      </g>
     </g>
    </g>
    <g id="ytick_16">
     <g id="line2d_83">
      <g>
       <use xlink:href="#mf388abed3c" x="57.320625" y="102.279156" style="stroke: #000000; stroke-width: 0.5"/>
      </g>
     </g>
     <g id="line2d_84">
      <g>
       <use xlink:href="#ma23d251772" x="423.328546" y="102.279156" style="stroke: #000000; stroke-width: 0.5"/>
      </g>
     </g>
    </g>
    <g id="ytick_17">
     <g id="line2d_85">
      <g>
       <use xlink:href="#mf388abed3c" x="57.320625" y="93.277553" style="stroke: #000000; stroke-width: 0.5"/>
      </g>
     </g>
     <g id="line2d_86">
      <g>
       <use xlink:href="#ma23d251772" x="423.328546" y="93.277553" style="stroke: #000000; stroke-width: 0.5"/>
      </g>
     </g>
    </g>
    <g id="ytick_18">
     <g id="line2d_87">
      <g>
       <use xlink:href="#mf388abed3c" x="57.320625" y="75.274346" style="stroke: #000000; stroke-width: 0.5"/>
      </g>
     </g>
     <g id="line2d_88">
      <g>
       <use xlink:href="#ma23d251772" x="423.328546" y="75.274346" style="stroke: #000000; stroke-width: 0.5"/>
      </g>
     </g>
    </g>
    <g id="ytick_19">
     <g id="line2d_89">
      <g>
       <use xlink:href="#mf388abed3c" x="57.320625" y="66.272742" style="stroke: #000000; stroke-width: 0.5"/>
      </g>
     </g>
     <g id="line2d_90">
      <g>
       <use xlink:href="#ma23d251772" x="423.328546" y="66.272742" style="stroke: #000000; stroke-width: 0.5"/>
      </g>
     </g>
    </g>
    <g id="ytick_20">
     <g id="line2d_91">
      <g>
       <use xlink:href="#mf388abed3c" x="57.320625" y="57.271139" style="stroke: #000000; stroke-width: 0.5"/>
      </g>
     </g>
     <g id="line2d_92">
      <g>
       <use xlink:href="#ma23d251772" x="423.328546" y="57.271139" style="stroke: #000000; stroke-width: 0.5"/>
      </g>
     </g>
    </g>
    <g id="ytick_21">
     <g id="line2d_93">
      <g>
       <use xlink:href="#mf388abed3c" x="57.320625" y="48.269536" style="stroke: #000000; stroke-width: 0.5"/>
      </g>
     </g>
     <g id="line2d_94">
      <g>
       <use xlink:href="#ma23d251772" x="423.328546" y="48.269536" style="stroke: #000000; stroke-width: 0.5"/>
      </g>
     </g>
    </g>
    <g id="ytick_22">
     <g id="line2d_95">
      <g>
       <use xlink:href="#mf388abed3c" x="57.320625" y="30.266329" style="stroke: #000000; stroke-width: 0.5"/>
      </g>
     </g>
     <g id="line2d_96">
      <g>
       <use xlink:href="#ma23d251772" x="423.328546" y="30.266329" style="stroke: #000000; stroke-width: 0.5"/>
      </g>
     </g>
    </g>
    <g id="ytick_23">
     <g id="line2d_97">
      <g>
       <use xlink:href="#mf388abed3c" x="57.320625" y="21.264725" style="stroke: #000000; stroke-width: 0.5"/>
      </g>
     </g>
     <g id="line2d_98">
      <g>
       <use xlink:href="#ma23d251772" x="423.328546" y="21.264725" style="stroke: #000000; stroke-width: 0.5"/>
      </g>
     </g>
    </g>
    <g id="ytick_24">
     <g id="line2d_99">
      <g>
       <use xlink:href="#mf388abed3c" x="57.320625" y="12.263122" style="stroke: #000000; stroke-width: 0.5"/>
      </g>
     </g>
     <g id="line2d_100">
      <g>
       <use xlink:href="#ma23d251772" x="423.328546" y="12.263122" style="stroke: #000000; stroke-width: 0.5"/>
      </g>
     </g>
    </g>
    <g id="text_12">
     <!-- Density -->
     <g transform="translate(17.277187 145.665469) rotate(-90) scale(0.18 -0.18)">
      <defs>
       <path id="DejaVuSans-79" d="M 2059 -325 
Q 1816 -950 1584 -1140 
Q 1353 -1331 966 -1331 
L 506 -1331 
L 506 -850 
L 844 -850 
Q 1081 -850 1212 -737 
Q 1344 -625 1503 -206 
L 1606 56 
L 191 3500 
L 800 3500 
L 1894 763 
L 2988 3500 
L 3597 3500 
L 2059 -325 
z
" transform="scale(0.015625)"/>
      </defs>
      <use xlink:href="#DejaVuSans-44"/>
      <use xlink:href="#DejaVuSans-65" x="77.001953"/>
      <use xlink:href="#DejaVuSans-6e" x="138.525391"/>
      <use xlink:href="#DejaVuSans-73" x="201.904297"/>
      <use xlink:href="#DejaVuSans-69" x="254.003906"/>
      <use xlink:href="#DejaVuSans-74" x="281.787109"/>
      <use xlink:href="#DejaVuSans-79" x="320.996094"/>
     </g>
    </g>
   </g>
   <g id="patch_3">
    <path d="M 57.320625 219.3 
L 57.320625 3.6 
" style="fill: none; stroke: #000000; stroke-width: 0.5; stroke-linejoin: miter; stroke-linecap: square"/>
   </g>
   <g id="patch_4">
    <path d="M 423.328546 219.3 
L 423.328546 3.6 
" style="fill: none; stroke: #000000; stroke-width: 0.5; stroke-linejoin: miter; stroke-linecap: square"/>
   </g>
   <g id="patch_5">
    <path d="M 57.320625 219.3 
L 423.328546 219.3 
" style="fill: none; stroke: #000000; stroke-width: 0.5; stroke-linejoin: miter; stroke-linecap: square"/>
   </g>
   <g id="patch_6">
    <path d="M 57.320625 3.6 
L 423.328546 3.6 
" style="fill: none; stroke: #000000; stroke-width: 0.5; stroke-linejoin: miter; stroke-linecap: square"/>
   </g>
   <g id="PathCollection_1">
    <defs>
     <path id="m925153687b" d="M 0 2.236068 
C 0.593012 2.236068 1.161816 2.000462 1.581139 1.581139 
C 2.000462 1.161816 2.236068 0.593012 2.236068 0 
C 2.236068 -0.593012 2.000462 -1.161816 1.581139 -1.581139 
C 1.161816 -2.000462 0.593012 -2.236068 0 -2.236068 
C -0.593012 -2.236068 -1.161816 -2.000462 -1.581139 -1.581139 
C -2.000462 -1.161816 -2.236068 -0.593012 -2.236068 0 
C -2.236068 0.593012 -2.000462 1.161816 -1.581139 1.581139 
C -1.161816 2.000462 -0.593012 2.236068 0 2.236068 
z
" style="stroke: #000000; stroke-opacity: 0.5"/>
    </defs>
    <g>
     <use xlink:href="#m925153687b" x="250.19775" y="219.3" style="fill: #1e90ff; fill-opacity: 0.5; stroke: #000000; stroke-opacity: 0.5"/>
     <use xlink:href="#m925153687b" x="128.991983" y="219.3" style="fill: #1e90ff; fill-opacity: 0.5; stroke: #000000; stroke-opacity: 0.5"/>
     <use xlink:href="#m925153687b" x="254.680571" y="219.3" style="fill: #1e90ff; fill-opacity: 0.5; stroke: #000000; stroke-opacity: 0.5"/>
     <use xlink:href="#m925153687b" x="271.148818" y="219.3" style="fill: #1e90ff; fill-opacity: 0.5; stroke: #000000; stroke-opacity: 0.5"/>
     <use xlink:href="#m925153687b" x="178.84723" y="219.3" style="fill: #1e90ff; fill-opacity: 0.5; stroke: #000000; stroke-opacity: 0.5"/>
     <use xlink:href="#m925153687b" x="239.739641" y="219.3" style="fill: #1e90ff; fill-opacity: 0.5; stroke: #000000; stroke-opacity: 0.5"/>
     <use xlink:href="#m925153687b" x="213.093927" y="219.3" style="fill: #1e90ff; fill-opacity: 0.5; stroke: #000000; stroke-opacity: 0.5"/>
     <use xlink:href="#m925153687b" x="184.973116" y="219.3" style="fill: #1e90ff; fill-opacity: 0.5; stroke: #000000; stroke-opacity: 0.5"/>
     <use xlink:href="#m925153687b" x="154.573329" y="219.3" style="fill: #1e90ff; fill-opacity: 0.5; stroke: #000000; stroke-opacity: 0.5"/>
     <use xlink:href="#m925153687b" x="182.228439" y="219.3" style="fill: #1e90ff; fill-opacity: 0.5; stroke: #000000; stroke-opacity: 0.5"/>
     <use xlink:href="#m925153687b" x="193.400847" y="219.3" style="fill: #1e90ff; fill-opacity: 0.5; stroke: #000000; stroke-opacity: 0.5"/>
     <use xlink:href="#m925153687b" x="351.657188" y="219.3" style="fill: #1e90ff; fill-opacity: 0.5; stroke: #000000; stroke-opacity: 0.5"/>
    </g>
   </g>
  </g>
  <g id="axes_2">
   <g id="patch_7">
    <path d="M 538.652836 219.3 
L 754.352836 219.3 
L 754.352836 3.6 
L 538.652836 3.6 
z
" style="fill: #ffffff"/>
   </g>
   <g id="PathCollection_2">
    <defs>
     <path id="m36403fa0bb" d="M 0 3 
C 0.795609 3 1.55874 2.683901 2.12132 2.12132 
C 2.683901 1.55874 3 0.795609 3 0 
C 3 -0.795609 2.683901 -1.55874 2.12132 -2.12132 
C 1.55874 -2.683901 0.795609 -3 0 -3 
C -0.795609 -3 -1.55874 -2.683901 -2.12132 -2.12132 
C -2.683901 -1.55874 -3 -0.795609 -3 0 
C -3 0.795609 -2.683901 1.55874 -2.12132 2.12132 
C -1.55874 2.683901 -0.795609 3 0 3 
z
" style="stroke: #009ade"/>
    </defs>
    <g clip-path="url(#p1282b57026)">
     <use xlink:href="#m36403fa0bb" x="548.457382" y="209.495455" style="fill: #009ade; stroke: #009ade"/>
     <use xlink:href="#m36403fa0bb" x="579.941429" y="177.780334" style="fill: #009ade; stroke: #009ade"/>
     <use xlink:href="#m36403fa0bb" x="604.362353" y="151.915042" style="fill: #009ade; stroke: #009ade"/>
     <use xlink:href="#m36403fa0bb" x="624.315701" y="131.896221" style="fill: #009ade; stroke: #009ade"/>
     <use xlink:href="#m36403fa0bb" x="641.186016" y="118.264262" style="fill: #009ade; stroke: #009ade"/>
     <use xlink:href="#m36403fa0bb" x="655.799747" y="109.059961" style="fill: #009ade; stroke: #009ade"/>
     <use xlink:href="#m36403fa0bb" x="668.689972" y="103.975636" style="fill: #009ade; stroke: #009ade"/>
     <use xlink:href="#m36403fa0bb" x="680.220671" y="101.698426" style="fill: #009ade; stroke: #009ade"/>
     <use xlink:href="#m36403fa0bb" x="690.651458" y="100.649905" style="fill: #009ade; stroke: #009ade"/>
     <use xlink:href="#m36403fa0bb" x="700.174019" y="100.521216" style="fill: #009ade; stroke: #009ade"/>
     <use xlink:href="#m36403fa0bb" x="708.933927" y="100.521216" style="fill: #009ade; stroke: #009ade"/>
     <use xlink:href="#m36403fa0bb" x="717.044334" y="100.521216" style="fill: #009ade; stroke: #009ade"/>
     <use xlink:href="#m36403fa0bb" x="724.594943" y="100.521216" style="fill: #009ade; stroke: #009ade"/>
     <use xlink:href="#m36403fa0bb" x="731.658066" y="100.521216" style="fill: #009ade; stroke: #009ade"/>
     <use xlink:href="#m36403fa0bb" x="738.29285" y="100.521216" style="fill: #009ade; stroke: #009ade"/>
     <use xlink:href="#m36403fa0bb" x="744.548291" y="100.521216" style="fill: #009ade; stroke: #009ade"/>
    </g>
   </g>
   <g id="matplotlib.axis_3">
    <g id="xtick_27">
     <g id="line2d_101">
      <g>
       <use xlink:href="#mf809bd6ca7" x="592.385422" y="219.3" style="stroke: #000000; stroke-width: 0.5"/>
      </g>
     </g>
     <g id="line2d_102">
      <g>
       <use xlink:href="#m3237215ded" x="592.385422" y="3.6" style="stroke: #000000; stroke-width: 0.5"/>
      </g>
     </g>
     <g id="text_13">
      <!-- $\mathdefault{1.5}$ -->
      <g transform="translate(577.985422 236.477187) scale(0.18 -0.18)">
       <use xlink:href="#DejaVuSans-31" transform="translate(0 0.09375)"/>
       <use xlink:href="#DejaVuSans-2e" transform="translate(63.623047 0.09375)"/>
       <use xlink:href="#DejaVuSans-35" transform="translate(95.410156 0.09375)"/>
      </g>
     </g>
    </g>
    <g id="xtick_28">
     <g id="line2d_103">
      <g>
       <use xlink:href="#mf809bd6ca7" x="647.105632" y="219.3" style="stroke: #000000; stroke-width: 0.5"/>
      </g>
     </g>
     <g id="line2d_104">
      <g>
       <use xlink:href="#m3237215ded" x="647.105632" y="3.6" style="stroke: #000000; stroke-width: 0.5"/>
      </g>
     </g>
     <g id="text_14">
      <!-- $\mathdefault{2.0}$ -->
      <g transform="translate(632.705632 236.477187) scale(0.18 -0.18)">
       <use xlink:href="#DejaVuSans-32" transform="translate(0 0.78125)"/>
       <use xlink:href="#DejaVuSans-2e" transform="translate(63.623047 0.78125)"/>
       <use xlink:href="#DejaVuSans-30" transform="translate(95.410156 0.78125)"/>
      </g>
     </g>
    </g>
    <g id="xtick_29">
     <g id="line2d_105">
      <g>
       <use xlink:href="#mf809bd6ca7" x="701.825842" y="219.3" style="stroke: #000000; stroke-width: 0.5"/>
      </g>
     </g>
     <g id="line2d_106">
      <g>
       <use xlink:href="#m3237215ded" x="701.825842" y="3.6" style="stroke: #000000; stroke-width: 0.5"/>
      </g>
     </g>
     <g id="text_15">
      <!-- $\mathdefault{2.5}$ -->
      <g transform="translate(687.425842 236.477187) scale(0.18 -0.18)">
       <use xlink:href="#DejaVuSans-32" transform="translate(0 0.78125)"/>
       <use xlink:href="#DejaVuSans-2e" transform="translate(63.623047 0.78125)"/>
       <use xlink:href="#DejaVuSans-35" transform="translate(95.410156 0.78125)"/>
      </g>
     </g>
    </g>
    <g id="xtick_30">
     <g id="line2d_107">
      <g>
       <use xlink:href="#m215366c03e" x="548.609254" y="219.3" style="stroke: #000000; stroke-width: 0.5"/>
      </g>
     </g>
     <g id="line2d_108">
      <g>
       <use xlink:href="#m9511cacb55" x="548.609254" y="3.6" style="stroke: #000000; stroke-width: 0.5"/>
      </g>
     </g>
    </g>
    <g id="xtick_31">
     <g id="line2d_109">
      <g>
       <use xlink:href="#m215366c03e" x="559.553296" y="219.3" style="stroke: #000000; stroke-width: 0.5"/>
      </g>
     </g>
     <g id="line2d_110">
      <g>
       <use xlink:href="#m9511cacb55" x="559.553296" y="3.6" style="stroke: #000000; stroke-width: 0.5"/>
      </g>
     </g>
    </g>
    <g id="xtick_32">
     <g id="line2d_111">
      <g>
       <use xlink:href="#m215366c03e" x="570.497338" y="219.3" style="stroke: #000000; stroke-width: 0.5"/>
      </g>
     </g>
     <g id="line2d_112">
      <g>
       <use xlink:href="#m9511cacb55" x="570.497338" y="3.6" style="stroke: #000000; stroke-width: 0.5"/>
      </g>
     </g>
    </g>
    <g id="xtick_33">
     <g id="line2d_113">
      <g>
       <use xlink:href="#m215366c03e" x="581.44138" y="219.3" style="stroke: #000000; stroke-width: 0.5"/>
      </g>
     </g>
     <g id="line2d_114">
      <g>
       <use xlink:href="#m9511cacb55" x="581.44138" y="3.6" style="stroke: #000000; stroke-width: 0.5"/>
      </g>
     </g>
    </g>
    <g id="xtick_34">
     <g id="line2d_115">
      <g>
       <use xlink:href="#m215366c03e" x="603.329464" y="219.3" style="stroke: #000000; stroke-width: 0.5"/>
      </g>
     </g>
     <g id="line2d_116">
      <g>
       <use xlink:href="#m9511cacb55" x="603.329464" y="3.6" style="stroke: #000000; stroke-width: 0.5"/>
      </g>
     </g>
    </g>
    <g id="xtick_35">
     <g id="line2d_117">
      <g>
       <use xlink:href="#m215366c03e" x="614.273506" y="219.3" style="stroke: #000000; stroke-width: 0.5"/>
      </g>
     </g>
     <g id="line2d_118">
      <g>
       <use xlink:href="#m9511cacb55" x="614.273506" y="3.6" style="stroke: #000000; stroke-width: 0.5"/>
      </g>
     </g>
    </g>
    <g id="xtick_36">
     <g id="line2d_119">
      <g>
       <use xlink:href="#m215366c03e" x="625.217548" y="219.3" style="stroke: #000000; stroke-width: 0.5"/>
      </g>
     </g>
     <g id="line2d_120">
      <g>
       <use xlink:href="#m9511cacb55" x="625.217548" y="3.6" style="stroke: #000000; stroke-width: 0.5"/>
      </g>
     </g>
    </g>
    <g id="xtick_37">
     <g id="line2d_121">
      <g>
       <use xlink:href="#m215366c03e" x="636.16159" y="219.3" style="stroke: #000000; stroke-width: 0.5"/>
      </g>
     </g>
     <g id="line2d_122">
      <g>
       <use xlink:href="#m9511cacb55" x="636.16159" y="3.6" style="stroke: #000000; stroke-width: 0.5"/>
      </g>
     </g>
    </g>
    <g id="xtick_38">
     <g id="line2d_123">
      <g>
       <use xlink:href="#m215366c03e" x="658.049674" y="219.3" style="stroke: #000000; stroke-width: 0.5"/>
      </g>
     </g>
     <g id="line2d_124">
      <g>
       <use xlink:href="#m9511cacb55" x="658.049674" y="3.6" style="stroke: #000000; stroke-width: 0.5"/>
      </g>
     </g>
    </g>
    <g id="xtick_39">
     <g id="line2d_125">
      <g>
       <use xlink:href="#m215366c03e" x="668.993716" y="219.3" style="stroke: #000000; stroke-width: 0.5"/>
      </g>
     </g>
     <g id="line2d_126">
      <g>
       <use xlink:href="#m9511cacb55" x="668.993716" y="3.6" style="stroke: #000000; stroke-width: 0.5"/>
      </g>
     </g>
    </g>
    <g id="xtick_40">
     <g id="line2d_127">
      <g>
       <use xlink:href="#m215366c03e" x="679.937758" y="219.3" style="stroke: #000000; stroke-width: 0.5"/>
      </g>
     </g>
     <g id="line2d_128">
      <g>
       <use xlink:href="#m9511cacb55" x="679.937758" y="3.6" style="stroke: #000000; stroke-width: 0.5"/>
      </g>
     </g>
    </g>
    <g id="xtick_41">
     <g id="line2d_129">
      <g>
       <use xlink:href="#m215366c03e" x="690.8818" y="219.3" style="stroke: #000000; stroke-width: 0.5"/>
      </g>
     </g>
     <g id="line2d_130">
      <g>
       <use xlink:href="#m9511cacb55" x="690.8818" y="3.6" style="stroke: #000000; stroke-width: 0.5"/>
      </g>
     </g>
    </g>
    <g id="xtick_42">
     <g id="line2d_131">
      <g>
       <use xlink:href="#m215366c03e" x="712.769884" y="219.3" style="stroke: #000000; stroke-width: 0.5"/>
      </g>
     </g>
     <g id="line2d_132">
      <g>
       <use xlink:href="#m9511cacb55" x="712.769884" y="3.6" style="stroke: #000000; stroke-width: 0.5"/>
      </g>
     </g>
    </g>
    <g id="xtick_43">
     <g id="line2d_133">
      <g>
       <use xlink:href="#m215366c03e" x="723.713926" y="219.3" style="stroke: #000000; stroke-width: 0.5"/>
      </g>
     </g>
     <g id="line2d_134">
      <g>
       <use xlink:href="#m9511cacb55" x="723.713926" y="3.6" style="stroke: #000000; stroke-width: 0.5"/>
      </g>
     </g>
    </g>
    <g id="xtick_44">
     <g id="line2d_135">
      <g>
       <use xlink:href="#m215366c03e" x="734.657968" y="219.3" style="stroke: #000000; stroke-width: 0.5"/>
      </g>
     </g>
     <g id="line2d_136">
      <g>
       <use xlink:href="#m9511cacb55" x="734.657968" y="3.6" style="stroke: #000000; stroke-width: 0.5"/>
      </g>
     </g>
    </g>
    <g id="xtick_45">
     <g id="line2d_137">
      <g>
       <use xlink:href="#m215366c03e" x="745.60201" y="219.3" style="stroke: #000000; stroke-width: 0.5"/>
      </g>
     </g>
     <g id="line2d_138">
      <g>
       <use xlink:href="#m9511cacb55" x="745.60201" y="3.6" style="stroke: #000000; stroke-width: 0.5"/>
      </g>
     </g>
    </g>
    <g id="text_16">
     <!-- $\log(r)$ -->
     <g transform="translate(622.022836 257.900625) scale(0.18 -0.18)">
      <defs>
       <path id="DejaVuSans-6c" d="M 603 4863 
L 1178 4863 
L 1178 0 
L 603 0 
L 603 4863 
z
" transform="scale(0.015625)"/>
       <path id="DejaVuSans-67" d="M 2906 1791 
Q 2906 2416 2648 2759 
Q 2391 3103 1925 3103 
Q 1463 3103 1205 2759 
Q 947 2416 947 1791 
Q 947 1169 1205 825 
Q 1463 481 1925 481 
Q 2391 481 2648 825 
Q 2906 1169 2906 1791 
z
M 3481 434 
Q 3481 -459 3084 -895 
Q 2688 -1331 1869 -1331 
Q 1566 -1331 1297 -1286 
Q 1028 -1241 775 -1147 
L 775 -588 
Q 1028 -725 1275 -790 
Q 1522 -856 1778 -856 
Q 2344 -856 2625 -561 
Q 2906 -266 2906 331 
L 2906 616 
Q 2728 306 2450 153 
Q 2172 0 1784 0 
Q 1141 0 747 490 
Q 353 981 353 1791 
Q 353 2603 747 3093 
Q 1141 3584 1784 3584 
Q 2172 3584 2450 3431 
Q 2728 3278 2906 2969 
L 2906 3500 
L 3481 3500 
L 3481 434 
z
" transform="scale(0.015625)"/>
       <path id="DejaVuSans-28" d="M 1984 4856 
Q 1566 4138 1362 3434 
Q 1159 2731 1159 2009 
Q 1159 1288 1364 580 
Q 1569 -128 1984 -844 
L 1484 -844 
Q 1016 -109 783 600 
Q 550 1309 550 2009 
Q 550 2706 781 3412 
Q 1013 4119 1484 4856 
L 1984 4856 
z
" transform="scale(0.015625)"/>
       <path id="DejaVuSans-Oblique-72" d="M 2853 2969 
Q 2766 3016 2653 3041 
Q 2541 3066 2413 3066 
Q 1953 3066 1609 2717 
Q 1266 2369 1153 1784 
L 800 0 
L 225 0 
L 909 3500 
L 1484 3500 
L 1375 2956 
Q 1603 3259 1920 3421 
Q 2238 3584 2597 3584 
Q 2691 3584 2781 3573 
Q 2872 3563 2963 3538 
L 2853 2969 
z
" transform="scale(0.015625)"/>
       <path id="DejaVuSans-29" d="M 513 4856 
L 1013 4856 
Q 1481 4119 1714 3412 
Q 1947 2706 1947 2009 
Q 1947 1309 1714 600 
Q 1481 -109 1013 -844 
L 513 -844 
Q 928 -128 1133 580 
Q 1338 1288 1338 2009 
Q 1338 2731 1133 3434 
Q 928 4138 513 4856 
z
" transform="scale(0.015625)"/>
      </defs>
      <use xlink:href="#DejaVuSans-6c" transform="translate(0 0.015625)"/>
      <use xlink:href="#DejaVuSans-6f" transform="translate(27.783203 0.015625)"/>
      <use xlink:href="#DejaVuSans-67" transform="translate(88.964844 0.015625)"/>
      <use xlink:href="#DejaVuSans-28" transform="translate(152.441406 0.015625)"/>
      <use xlink:href="#DejaVuSans-Oblique-72" transform="translate(191.455078 0.015625)"/>
      <use xlink:href="#DejaVuSans-29" transform="translate(232.568359 0.015625)"/>
     </g>
    </g>
   </g>
   <g id="matplotlib.axis_4">
    <g id="ytick_25">
     <g id="line2d_139">
      <g>
       <use xlink:href="#md91375b934" x="538.652836" y="216.064397" style="stroke: #000000; stroke-width: 0.5"/>
      </g>
     </g>
     <g id="line2d_140">
      <g>
       <use xlink:href="#mf02ad436d0" x="754.352836" y="216.064397" style="stroke: #000000; stroke-width: 0.5"/>
      </g>
     </g>
     <g id="text_17">
      <!-- $\mathdefault{4}$ -->
      <g transform="translate(523.632836 222.902991) scale(0.18 -0.18)">
       <defs>
        <path id="DejaVuSans-34" d="M 2419 4116 
L 825 1625 
L 2419 1625 
L 2419 4116 
z
M 2253 4666 
L 3047 4666 
L 3047 1625 
L 3713 1625 
L 3713 1100 
L 3047 1100 
L 3047 0 
L 2419 0 
L 2419 1100 
L 313 1100 
L 313 1709 
L 2253 4666 
z
" transform="scale(0.015625)"/>
       </defs>
       <use xlink:href="#DejaVuSans-34" transform="translate(0 0.09375)"/>
      </g>
     </g>
    </g>
    <g id="ytick_26">
     <g id="line2d_141">
      <g>
       <use xlink:href="#md91375b934" x="538.652836" y="151.880914" style="stroke: #000000; stroke-width: 0.5"/>
      </g>
     </g>
     <g id="line2d_142">
      <g>
       <use xlink:href="#mf02ad436d0" x="754.352836" y="151.880914" style="stroke: #000000; stroke-width: 0.5"/>
      </g>
     </g>
     <g id="text_18">
      <!-- $\mathdefault{6}$ -->
      <g transform="translate(523.632836 158.719508) scale(0.18 -0.18)">
       <defs>
        <path id="DejaVuSans-36" d="M 2113 2584 
Q 1688 2584 1439 2293 
Q 1191 2003 1191 1497 
Q 1191 994 1439 701 
Q 1688 409 2113 409 
Q 2538 409 2786 701 
Q 3034 994 3034 1497 
Q 3034 2003 2786 2293 
Q 2538 2584 2113 2584 
z
M 3366 4563 
L 3366 3988 
Q 3128 4100 2886 4159 
Q 2644 4219 2406 4219 
Q 1781 4219 1451 3797 
Q 1122 3375 1075 2522 
Q 1259 2794 1537 2939 
Q 1816 3084 2150 3084 
Q 2853 3084 3261 2657 
Q 3669 2231 3669 1497 
Q 3669 778 3244 343 
Q 2819 -91 2113 -91 
Q 1303 -91 875 529 
Q 447 1150 447 2328 
Q 447 3434 972 4092 
Q 1497 4750 2381 4750 
Q 2619 4750 2861 4703 
Q 3103 4656 3366 4563 
z
" transform="scale(0.015625)"/>
       </defs>
       <use xlink:href="#DejaVuSans-36" transform="translate(0 0.78125)"/>
      </g>
     </g>
    </g>
    <g id="ytick_27">
     <g id="line2d_143">
      <g>
       <use xlink:href="#md91375b934" x="538.652836" y="87.697431" style="stroke: #000000; stroke-width: 0.5"/>
      </g>
     </g>
     <g id="line2d_144">
      <g>
       <use xlink:href="#mf02ad436d0" x="754.352836" y="87.697431" style="stroke: #000000; stroke-width: 0.5"/>
      </g>
     </g>
     <g id="text_19">
      <!-- $\mathdefault{8}$ -->
      <g transform="translate(523.632836 94.536024) scale(0.18 -0.18)">
       <defs>
        <path id="DejaVuSans-38" d="M 2034 2216 
Q 1584 2216 1326 1975 
Q 1069 1734 1069 1313 
Q 1069 891 1326 650 
Q 1584 409 2034 409 
Q 2484 409 2743 651 
Q 3003 894 3003 1313 
Q 3003 1734 2745 1975 
Q 2488 2216 2034 2216 
z
M 1403 2484 
Q 997 2584 770 2862 
Q 544 3141 544 3541 
Q 544 4100 942 4425 
Q 1341 4750 2034 4750 
Q 2731 4750 3128 4425 
Q 3525 4100 3525 3541 
Q 3525 3141 3298 2862 
Q 3072 2584 2669 2484 
Q 3125 2378 3379 2068 
Q 3634 1759 3634 1313 
Q 3634 634 3220 271 
Q 2806 -91 2034 -91 
Q 1263 -91 848 271 
Q 434 634 434 1313 
Q 434 1759 690 2068 
Q 947 2378 1403 2484 
z
M 1172 3481 
Q 1172 3119 1398 2916 
Q 1625 2713 2034 2713 
Q 2441 2713 2670 2916 
Q 2900 3119 2900 3481 
Q 2900 3844 2670 4047 
Q 2441 4250 2034 4250 
Q 1625 4250 1398 4047 
Q 1172 3844 1172 3481 
z
" transform="scale(0.015625)"/>
       </defs>
       <use xlink:href="#DejaVuSans-38" transform="translate(0 0.78125)"/>
      </g>
     </g>
    </g>
    <g id="ytick_28">
     <g id="line2d_145">
      <g>
       <use xlink:href="#md91375b934" x="538.652836" y="23.513947" style="stroke: #000000; stroke-width: 0.5"/>
      </g>
     </g>
     <g id="line2d_146">
      <g>
       <use xlink:href="#mf02ad436d0" x="754.352836" y="23.513947" style="stroke: #000000; stroke-width: 0.5"/>
      </g>
     </g>
     <g id="text_20">
      <!-- $\mathdefault{10}$ -->
      <g transform="translate(512.112836 30.352541) scale(0.18 -0.18)">
       <use xlink:href="#DejaVuSans-31" transform="translate(0 0.78125)"/>
       <use xlink:href="#DejaVuSans-30" transform="translate(63.623047 0.78125)"/>
      </g>
     </g>
    </g>
    <g id="ytick_29">
     <g id="line2d_147">
      <g>
       <use xlink:href="#mf388abed3c" x="538.652836" y="200.018526" style="stroke: #000000; stroke-width: 0.5"/>
      </g>
     </g>
     <g id="line2d_148">
      <g>
       <use xlink:href="#ma23d251772" x="754.352836" y="200.018526" style="stroke: #000000; stroke-width: 0.5"/>
      </g>
     </g>
    </g>
    <g id="ytick_30">
     <g id="line2d_149">
      <g>
       <use xlink:href="#mf388abed3c" x="538.652836" y="183.972656" style="stroke: #000000; stroke-width: 0.5"/>
      </g>
     </g>
     <g id="line2d_150">
      <g>
       <use xlink:href="#ma23d251772" x="754.352836" y="183.972656" style="stroke: #000000; stroke-width: 0.5"/>
      </g>
     </g>
    </g>
    <g id="ytick_31">
     <g id="line2d_151">
      <g>
       <use xlink:href="#mf388abed3c" x="538.652836" y="167.926785" style="stroke: #000000; stroke-width: 0.5"/>
      </g>
     </g>
     <g id="line2d_152">
      <g>
       <use xlink:href="#ma23d251772" x="754.352836" y="167.926785" style="stroke: #000000; stroke-width: 0.5"/>
      </g>
     </g>
    </g>
    <g id="ytick_32">
     <g id="line2d_153">
      <g>
       <use xlink:href="#mf388abed3c" x="538.652836" y="135.835043" style="stroke: #000000; stroke-width: 0.5"/>
      </g>
     </g>
     <g id="line2d_154">
      <g>
       <use xlink:href="#ma23d251772" x="754.352836" y="135.835043" style="stroke: #000000; stroke-width: 0.5"/>
      </g>
     </g>
    </g>
    <g id="ytick_33">
     <g id="line2d_155">
      <g>
       <use xlink:href="#mf388abed3c" x="538.652836" y="119.789172" style="stroke: #000000; stroke-width: 0.5"/>
      </g>
     </g>
     <g id="line2d_156">
      <g>
       <use xlink:href="#ma23d251772" x="754.352836" y="119.789172" style="stroke: #000000; stroke-width: 0.5"/>
      </g>
     </g>
    </g>
    <g id="ytick_34">
     <g id="line2d_157">
      <g>
       <use xlink:href="#mf388abed3c" x="538.652836" y="103.743302" style="stroke: #000000; stroke-width: 0.5"/>
      </g>
     </g>
     <g id="line2d_158">
      <g>
       <use xlink:href="#ma23d251772" x="754.352836" y="103.743302" style="stroke: #000000; stroke-width: 0.5"/>
      </g>
     </g>
    </g>
    <g id="ytick_35">
     <g id="line2d_159">
      <g>
       <use xlink:href="#mf388abed3c" x="538.652836" y="71.65156" style="stroke: #000000; stroke-width: 0.5"/>
      </g>
     </g>
     <g id="line2d_160">
      <g>
       <use xlink:href="#ma23d251772" x="754.352836" y="71.65156" style="stroke: #000000; stroke-width: 0.5"/>
      </g>
     </g>
    </g>
    <g id="ytick_36">
     <g id="line2d_161">
      <g>
       <use xlink:href="#mf388abed3c" x="538.652836" y="55.605689" style="stroke: #000000; stroke-width: 0.5"/>
      </g>
     </g>
     <g id="line2d_162">
      <g>
       <use xlink:href="#ma23d251772" x="754.352836" y="55.605689" style="stroke: #000000; stroke-width: 0.5"/>
      </g>
     </g>
    </g>
    <g id="ytick_37">
     <g id="line2d_163">
      <g>
       <use xlink:href="#mf388abed3c" x="538.652836" y="39.559818" style="stroke: #000000; stroke-width: 0.5"/>
      </g>
     </g>
     <g id="line2d_164">
      <g>
       <use xlink:href="#ma23d251772" x="754.352836" y="39.559818" style="stroke: #000000; stroke-width: 0.5"/>
      </g>
     </g>
    </g>
    <g id="ytick_38">
     <g id="line2d_165">
      <g>
       <use xlink:href="#mf388abed3c" x="538.652836" y="7.468077" style="stroke: #000000; stroke-width: 0.5"/>
      </g>
     </g>
     <g id="line2d_166">
      <g>
       <use xlink:href="#ma23d251772" x="754.352836" y="7.468077" style="stroke: #000000; stroke-width: 0.5"/>
      </g>
     </g>
    </g>
    <g id="text_21">
     <!-- $\log(N_v)$ -->
     <g transform="translate(504.332836 142.95) rotate(-90) scale(0.18 -0.18)">
      <defs>
       <path id="DejaVuSans-Oblique-4e" d="M 1081 4666 
L 1931 4666 
L 3219 666 
L 4000 4666 
L 4616 4666 
L 3706 0 
L 2853 0 
L 1569 4025 
L 788 0 
L 172 0 
L 1081 4666 
z
" transform="scale(0.015625)"/>
       <path id="DejaVuSans-Oblique-76" d="M 459 3500 
L 1069 3500 
L 1581 525 
L 3256 3500 
L 3866 3500 
L 1875 0 
L 1100 0 
L 459 3500 
z
" transform="scale(0.015625)"/>
      </defs>
      <use xlink:href="#DejaVuSans-6c" transform="translate(0 0.015625)"/>
      <use xlink:href="#DejaVuSans-6f" transform="translate(27.783203 0.015625)"/>
      <use xlink:href="#DejaVuSans-67" transform="translate(88.964844 0.015625)"/>
      <use xlink:href="#DejaVuSans-28" transform="translate(152.441406 0.015625)"/>
      <use xlink:href="#DejaVuSans-Oblique-4e" transform="translate(191.455078 0.015625)"/>
      <use xlink:href="#DejaVuSans-Oblique-76" transform="translate(266.259766 -16.390625) scale(0.7)"/>
      <use xlink:href="#DejaVuSans-29" transform="translate(310.419922 0.015625)"/>
     </g>
    </g>
   </g>
   <g id="line2d_167">
    <path d="M 548.457382 208.913528 
L 579.941429 177.522914 
L 604.362353 153.174463 
L 624.315701 133.280329 
L 641.186016 116.460079 
L 655.799747 101.889716 
L 668.689972 89.037744 
L 680.220671 77.541264 
L 690.651458 67.141433 
L 700.174019 57.64713 
L 708.933927 48.913219 
L 717.044334 40.82688 
L 724.594943 33.298679 
L 731.658066 26.256517 
L 738.29285 19.641422 
L 744.548291 13.404545 
" clip-path="url(#p1282b57026)" style="fill: none; stroke-dasharray: 7.4,3.2; stroke-dashoffset: 0; stroke: #ff0000; stroke-width: 2"/>
   </g>
   <g id="patch_8">
    <path d="M 538.652836 219.3 
L 538.652836 3.6 
" style="fill: none; stroke: #000000; stroke-width: 0.5; stroke-linejoin: miter; stroke-linecap: square"/>
   </g>
   <g id="patch_9">
    <path d="M 754.352836 219.3 
L 754.352836 3.6 
" style="fill: none; stroke: #000000; stroke-width: 0.5; stroke-linejoin: miter; stroke-linecap: square"/>
   </g>
   <g id="patch_10">
    <path d="M 538.652836 219.3 
L 754.352836 219.3 
" style="fill: none; stroke: #000000; stroke-width: 0.5; stroke-linejoin: miter; stroke-linecap: square"/>
   </g>
   <g id="patch_11">
    <path d="M 538.652836 3.6 
L 754.352836 3.6 
" style="fill: none; stroke: #000000; stroke-width: 0.5; stroke-linejoin: miter; stroke-linecap: square"/>
   </g>
   <g id="legend_1">
    <g id="line2d_168">
     <path d="M 553.052836 24.5575 
L 569.052836 24.5575 
L 585.052836 24.5575 
" style="fill: none; stroke-dasharray: 7.4,3.2; stroke-dashoffset: 0; stroke: #ff0000; stroke-width: 2"/>
    </g>
    <g id="text_22">
     <!-- Fit: dim=3.40 -->
     <g transform="translate(597.852836 30.1575) scale(0.16 -0.16)">
      <defs>
       <path id="DejaVuSans-46" d="M 628 4666 
L 3309 4666 
L 3309 4134 
L 1259 4134 
L 1259 2759 
L 3109 2759 
L 3109 2228 
L 1259 2228 
L 1259 0 
L 628 0 
L 628 4666 
z
" transform="scale(0.015625)"/>
       <path id="DejaVuSans-3a" d="M 750 794 
L 1409 794 
L 1409 0 
L 750 0 
L 750 794 
z
M 750 3309 
L 1409 3309 
L 1409 2516 
L 750 2516 
L 750 3309 
z
" transform="scale(0.015625)"/>
       <path id="DejaVuSans-3d" d="M 678 2906 
L 4684 2906 
L 4684 2381 
L 678 2381 
L 678 2906 
z
M 678 1631 
L 4684 1631 
L 4684 1100 
L 678 1100 
L 678 1631 
z
" transform="scale(0.015625)"/>
      </defs>
      <use xlink:href="#DejaVuSans-46"/>
      <use xlink:href="#DejaVuSans-69" x="50.269531"/>
      <use xlink:href="#DejaVuSans-74" x="78.052734"/>
      <use xlink:href="#DejaVuSans-3a" x="117.261719"/>
      <use xlink:href="#DejaVuSans-20" x="150.953125"/>
      <use xlink:href="#DejaVuSans-64" x="182.740234"/>
      <use xlink:href="#DejaVuSans-69" x="246.216797"/>
      <use xlink:href="#DejaVuSans-6d" x="274"/>
      <use xlink:href="#DejaVuSans-3d" x="371.412109"/>
      <use xlink:href="#DejaVuSans-33" x="455.201172"/>
      <use xlink:href="#DejaVuSans-2e" x="518.824219"/>
      <use xlink:href="#DejaVuSans-34" x="550.611328"/>
      <use xlink:href="#DejaVuSans-30" x="614.234375"/>
     </g>
    </g>
   </g>
  </g>
 </g>
 <defs>
  <clipPath id="p8218da0fdc">
   <rect x="57.320625" y="3.6" width="366.007921" height="215.7"/>
  </clipPath>
  <clipPath id="p1282b57026">
   <rect x="538.652836" y="3.6" width="215.7" height="215.7"/>
  </clipPath>
 </defs>
</svg>
